<?xml version="1.0" encoding="utf-8" standalone="no"?>
<!DOCTYPE svg PUBLIC "-//W3C//DTD SVG 1.1//EN"
  "http://www.w3.org/Graphics/SVG/1.1/DTD/svg11.dtd">
<svg xmlns:xlink="http://www.w3.org/1999/xlink" width="867.024pt" height="291.6pt" viewBox="0 0 867.024 291.6" xmlns="http://www.w3.org/2000/svg" version="1.1">
 <metadata>
  <rdf:RDF xmlns:dc="http://purl.org/dc/elements/1.1/" xmlns:cc="http://creativecommons.org/ns#" xmlns:rdf="http://www.w3.org/1999/02/22-rdf-syntax-ns#">
   <cc:Work>
    <dc:type rdf:resource="http://purl.org/dc/dcmitype/StillImage"/>
    <dc:date>2022-04-26T23:05:23.952616</dc:date>
    <dc:format>image/svg+xml</dc:format>
    <dc:creator>
     <cc:Agent>
      <dc:title>Matplotlib v3.5.1, https://matplotlib.org/</dc:title>
     </cc:Agent>
    </dc:creator>
   </cc:Work>
  </rdf:RDF>
 </metadata>
 <defs>
  <style type="text/css">*{stroke-linejoin: round; stroke-linecap: butt}</style>
 </defs>
 <g id="figure_1">
  <g id="patch_1">
   <path d="M 0 291.6 
L 867.024 291.6 
L 867.024 0 
L 0 0 
z
" style="fill: #ffffff"/>
  </g>
  <g id="axes_1">
   <g id="PolyCollection_1">
    <path d="M -576.519508 276.126646 
L -563.486843 276.126646 
L -550.454178 276.126646 
L -537.421514 276.126646 
L -524.388849 276.126646 
L -511.356185 276.126646 
L -498.32352 276.126646 
L -485.290855 276.126646 
L -472.258191 276.126646 
L -459.225526 276.126646 
L -446.192862 276.126646 
L -433.160197 276.126646 
L -420.127532 276.126646 
L -407.094868 276.126646 
L -394.062203 276.126646 
L -381.029538 276.126646 
L -367.996874 276.126646 
L -354.964209 276.126646 
L -341.931545 276.126646 
L -328.89888 276.126646 
L -315.866215 276.126646 
L -302.833551 276.126646 
L -289.800886 276.126646 
L -276.768222 276.126646 
L -263.735557 276.126646 
L -250.702892 276.126646 
L -237.670228 276.126646 
L -224.637563 276.126646 
L -211.604898 276.126646 
L -198.572234 276.126646 
L -185.539569 276.126646 
L -172.506905 276.126646 
L -159.47424 276.126646 
L -146.441575 276.126646 
L -133.408911 276.126646 
L -120.376246 276.126646 
L -107.343582 276.126646 
L -94.310917 276.126646 
L -81.278252 276.126646 
L -68.245588 276.126646 
L -55.212923 276.126646 
L -42.180258 276.126646 
L -29.147594 276.126646 
L -16.114929 276.126646 
L -3.082265 276.126646 
L 9.9504 276.126646 
L 22.983065 276.126646 
L 36.015729 276.126646 
L 49.048394 276.126646 
L 62.081058 276.126646 
L 75.113723 276.126646 
L 88.146388 276.126646 
L 101.179052 276.126646 
L 114.211717 276.126646 
L 127.244382 276.126646 
L 140.277046 276.126646 
L 153.309711 276.126646 
L 166.342375 276.126646 
L 179.37504 276.126646 
L 192.407705 276.126646 
L 205.440369 276.126646 
L 218.473034 276.126646 
L 231.505698 276.126646 
L 244.538363 276.126646 
L 257.571028 276.126646 
L 270.603692 276.126646 
L 283.636357 276.126646 
L 296.669022 276.126646 
L 309.701686 276.126646 
L 322.734351 276.126646 
L 335.767015 276.126646 
L 348.79968 276.126646 
L 361.832345 276.126646 
L 374.865009 276.126646 
L 387.897674 276.126646 
L 400.930338 276.126646 
L 413.963003 276.126646 
L 426.995668 276.126646 
L 440.028332 276.126646 
L 453.060997 276.126646 
L 466.093662 276.126646 
L 479.126326 276.126646 
L 492.158991 276.126646 
L 505.191655 276.126646 
L 518.22432 276.126646 
L 531.256985 276.126646 
L 544.289649 276.126646 
L 557.322314 276.126646 
L 570.354978 276.126646 
L 583.387643 276.126646 
L 596.420308 276.126646 
L 609.452972 276.126646 
L 622.485637 276.126646 
L 635.518302 276.126646 
L 648.550966 276.126646 
L 661.583631 276.126646 
L 674.616295 276.126646 
L 687.64896 276.126646 
L 700.681625 276.126646 
L 713.714289 276.126646 
L 726.746954 276.126646 
L 739.779618 276.126646 
L 752.812283 276.126646 
L 765.844948 276.126646 
L 778.877612 276.126646 
L 791.910277 276.126646 
L 804.942942 276.126646 
L 817.975606 276.126646 
L 831.008271 276.126646 
L 844.040935 276.126646 
L 857.0736 276.126646 
L 870.106265 276.126646 
L 883.138929 276.126646 
L 896.171594 276.126646 
L 909.204258 276.126646 
L 922.236923 276.126646 
L 935.269588 276.126646 
L 948.302252 276.126646 
L 961.334917 276.126646 
L 974.367582 276.126646 
L 987.400246 276.126646 
L 1000.432911 276.126646 
L 1013.465575 276.126646 
L 1026.49824 276.126646 
L 1039.530905 276.126646 
L 1052.563569 276.126646 
L 1065.596234 276.126646 
L 1078.628898 276.126646 
L 1091.661563 276.126646 
L 1104.694228 276.126646 
L 1117.726892 276.126646 
L 1130.759557 276.126646 
L 1143.792222 276.126646 
L 1156.824886 276.126646 
L 1169.857551 276.126646 
L 1182.890215 276.126646 
L 1195.92288 276.126646 
L 1208.955545 276.126646 
L 1221.988209 276.126646 
L 1235.020874 276.126646 
L 1248.053538 276.126646 
L 1261.086203 276.126646 
L 1274.118868 276.126646 
L 1287.151532 276.126646 
L 1300.184197 276.126646 
L 1313.216862 276.126646 
L 1326.249526 276.126646 
L 1339.282191 276.126646 
L 1352.314855 276.126646 
L 1365.34752 276.126646 
L 1378.380185 276.126646 
L 1391.412849 276.126646 
L 1404.445514 276.126646 
L 1417.478178 276.126646 
L 1430.510843 276.126646 
L 1443.543508 276.126646 
L 1456.576172 276.126646 
L 1469.608837 276.126646 
L 1482.641502 276.126646 
L 1495.674166 276.126646 
L 1508.706831 276.126646 
L 1521.739495 276.126646 
L 1534.77216 276.126646 
L 1547.804825 276.126646 
L 1560.837489 276.126646 
L 1573.870154 276.126646 
L 1586.902818 276.126646 
L 1599.935483 276.126646 
L 1612.968148 276.126646 
L 1626.000812 276.126646 
L 1639.033477 276.126646 
L 1652.066142 276.126646 
L 1665.098806 276.126646 
L 1678.131471 276.126646 
L 1691.164135 276.126646 
L 1704.1968 276.126646 
L 1717.229465 276.126646 
L 1730.262129 276.126646 
L 1743.294794 276.126646 
L 1756.327458 276.126646 
L 1769.360123 276.126646 
L 1782.392788 276.126646 
L 1795.425452 276.126646 
L 1808.458117 276.126646 
L 1821.490782 276.126646 
L 1834.523446 276.126646 
L 1847.556111 276.126646 
L 1860.588775 276.126646 
L 1873.62144 276.126646 
L 1886.654105 276.126646 
L 1899.686769 276.126646 
L 1912.719434 276.126646 
L 1925.752098 276.126646 
L 1938.784763 276.126646 
L 1951.817428 276.126646 
L 1964.850092 276.126646 
L 1977.882757 276.126646 
L 1990.915422 276.126646 
L 2003.948086 276.126646 
L 2016.980751 276.126646 
L 2030.013415 276.126646 
L 2043.04608 276.126646 
L 2056.078745 276.126646 
L 2069.111409 276.126646 
L 2082.144074 276.126646 
L 2095.176738 276.126646 
L 2108.209403 276.126646 
L 2121.242068 276.126646 
L 2134.274732 276.126646 
L 2147.307397 276.126646 
L 2147.307397 145.8 
L 2134.274732 145.8 
L 2121.242068 145.8 
L 2108.209403 145.8 
L 2095.176738 145.8 
L 2082.144074 145.8 
L 2069.111409 145.8 
L 2056.078745 145.8 
L 2043.04608 145.8 
L 2030.013415 145.8 
L 2016.980751 145.8 
L 2003.948086 145.8 
L 1990.915422 145.8 
L 1977.882757 145.8 
L 1964.850092 145.8 
L 1951.817428 145.8 
L 1938.784763 145.8 
L 1925.752098 145.8 
L 1912.719434 145.8 
L 1899.686769 145.8 
L 1886.654105 145.8 
L 1873.62144 145.8 
L 1860.588775 145.8 
L 1847.556111 145.8 
L 1834.523446 145.8 
L 1821.490782 145.8 
L 1808.458117 145.8 
L 1795.425452 145.8 
L 1782.392788 145.8 
L 1769.360123 145.8 
L 1756.327458 145.8 
L 1743.294794 145.8 
L 1730.262129 145.8 
L 1717.229465 145.8 
L 1704.1968 145.8 
L 1691.164135 145.8 
L 1678.131471 145.8 
L 1665.098806 145.8 
L 1652.066142 145.8 
L 1639.033477 145.8 
L 1626.000812 145.8 
L 1612.968148 145.8 
L 1599.935483 145.8 
L 1586.902818 145.8 
L 1573.870154 145.8 
L 1560.837489 145.8 
L 1547.804825 145.8 
L 1534.77216 145.8 
L 1521.739495 145.8 
L 1508.706831 145.8 
L 1495.674166 145.8 
L 1482.641502 145.8 
L 1469.608837 145.8 
L 1456.576172 145.8 
L 1443.543508 145.8 
L 1430.510843 145.8 
L 1417.478178 145.8 
L 1404.445514 145.8 
L 1391.412849 145.8 
L 1378.380185 145.8 
L 1365.34752 145.8 
L 1352.314855 145.8 
L 1339.282191 145.8 
L 1326.249526 145.8 
L 1313.216862 145.8 
L 1300.184197 145.8 
L 1287.151532 145.8 
L 1274.118868 145.8 
L 1261.086203 145.8 
L 1248.053538 145.8 
L 1235.020874 145.8 
L 1221.988209 145.8 
L 1208.955545 145.8 
L 1195.92288 145.8 
L 1182.890215 145.8 
L 1169.857551 145.8 
L 1156.824886 145.8 
L 1143.792222 145.8 
L 1130.759557 145.8 
L 1117.726892 145.8 
L 1104.694228 145.8 
L 1091.661563 145.8 
L 1078.628898 145.8 
L 1065.596234 145.8 
L 1052.563569 145.8 
L 1039.530905 145.8 
L 1026.49824 145.8 
L 1013.465575 145.8 
L 1000.432911 145.8 
L 987.400246 145.8 
L 974.367582 145.8 
L 961.334917 145.8 
L 948.302252 145.8 
L 935.269588 145.8 
L 922.236923 145.8 
L 909.204258 145.8 
L 896.171594 145.8 
L 883.138929 145.8 
L 870.106265 145.8 
L 857.0736 145.8 
L 844.040935 145.8 
L 831.008271 145.8 
L 817.975606 145.8 
L 804.942942 145.8 
L 791.910277 145.8 
L 778.877612 145.8 
L 765.844948 145.8 
L 752.812283 145.8 
L 739.779618 145.8 
L 726.746954 145.8 
L 713.714289 145.8 
L 700.681625 145.8 
L 687.64896 145.8 
L 674.616295 145.8 
L 661.583631 145.8 
L 648.550966 145.8 
L 635.518302 145.8 
L 622.485637 145.8 
L 609.452972 145.8 
L 596.420308 145.8 
L 583.387643 145.8 
L 570.354978 145.8 
L 557.322314 145.8 
L 544.289649 145.8 
L 531.256985 145.8 
L 518.22432 145.8 
L 505.191655 145.8 
L 492.158991 145.8 
L 479.126326 145.8 
L 466.093662 145.8 
L 453.060997 145.8 
L 440.028332 145.8 
L 426.995668 145.8 
L 413.963003 145.8 
L 400.930338 145.8 
L 387.897674 145.8 
L 374.865009 145.8 
L 361.832345 145.8 
L 348.79968 145.8 
L 335.767015 145.8 
L 322.734351 145.8 
L 309.701686 145.8 
L 296.669022 145.8 
L 283.636357 145.8 
L 270.603692 145.8 
L 257.571028 145.8 
L 244.538363 145.8 
L 231.505698 145.8 
L 218.473034 145.8 
L 205.440369 145.8 
L 192.407705 145.8 
L 179.37504 145.8 
L 166.342375 145.8 
L 153.309711 145.8 
L 140.277046 145.8 
L 127.244382 145.8 
L 114.211717 145.8 
L 101.179052 145.8 
L 88.146388 145.8 
L 75.113723 145.8 
L 62.081058 145.8 
L 49.048394 145.8 
L 36.015729 145.8 
L 22.983065 145.8 
L 9.9504 145.8 
L -3.082265 145.8 
L -16.114929 145.8 
L -29.147594 145.8 
L -42.180258 145.8 
L -55.212923 145.8 
L -68.245588 145.8 
L -81.278252 145.8 
L -94.310917 145.8 
L -107.343582 145.8 
L -120.376246 145.8 
L -133.408911 145.8 
L -146.441575 145.8 
L -159.47424 145.8 
L -172.506905 145.8 
L -185.539569 145.8 
L -198.572234 145.8 
L -211.604898 145.8 
L -224.637563 145.8 
L -237.670228 145.8 
L -250.702892 145.8 
L -263.735557 145.8 
L -276.768222 145.8 
L -289.800886 145.8 
L -302.833551 145.8 
L -315.866215 145.8 
L -328.89888 145.8 
L -341.931545 145.8 
L -354.964209 145.8 
L -367.996874 145.8 
L -381.029538 145.8 
L -394.062203 145.8 
L -407.094868 145.8 
L -420.127532 145.8 
L -433.160197 145.8 
L -446.192862 145.8 
L -459.225526 145.8 
L -472.258191 145.8 
L -485.290855 145.8 
L -498.32352 145.8 
L -511.356185 145.8 
L -524.388849 145.8 
L -537.421514 145.8 
L -550.454178 145.8 
L -563.486843 145.8 
L -576.519508 145.8 
z
" clip-path="url(#p56827903e4)" style="fill: #c7c7c7"/>
    <path d="M -576.519508 145.8 
L -563.486843 145.8 
L -550.454178 145.8 
L -537.421514 145.8 
L -524.388849 145.8 
L -511.356185 145.8 
L -498.32352 145.8 
L -485.290855 145.8 
L -472.258191 145.8 
L -459.225526 145.8 
L -446.192862 145.8 
L -433.160197 145.8 
L -420.127532 145.8 
L -407.094868 145.8 
L -394.062203 145.8 
L -381.029538 145.8 
L -367.996874 145.8 
L -354.964209 145.8 
L -341.931545 145.8 
L -328.89888 145.8 
L -315.866215 145.8 
L -302.833551 145.8 
L -289.800886 145.8 
L -276.768222 145.8 
L -263.735557 145.8 
L -250.702892 145.8 
L -237.670228 145.8 
L -224.637563 145.8 
L -211.604898 145.8 
L -198.572234 145.8 
L -185.539569 145.8 
L -172.506905 145.8 
L -159.47424 145.8 
L -146.441575 145.8 
L -133.408911 145.8 
L -120.376246 145.8 
L -107.343582 145.8 
L -94.310917 145.8 
L -81.278252 145.8 
L -68.245588 145.8 
L -55.212923 145.8 
L -42.180258 145.8 
L -29.147594 145.8 
L -16.114929 145.8 
L -3.082265 145.8 
L 9.9504 145.8 
L 22.983065 145.8 
L 36.015729 145.8 
L 49.048394 145.8 
L 62.081058 145.8 
L 75.113723 145.8 
L 88.146388 145.8 
L 101.179052 145.8 
L 114.211717 145.8 
L 127.244382 145.8 
L 140.277046 145.8 
L 153.309711 145.8 
L 166.342375 145.8 
L 179.37504 145.8 
L 192.407705 145.8 
L 205.440369 145.8 
L 218.473034 145.8 
L 231.505698 145.8 
L 244.538363 145.8 
L 257.571028 145.8 
L 270.603692 145.8 
L 283.636357 145.8 
L 296.669022 145.8 
L 309.701686 145.8 
L 322.734351 145.8 
L 335.767015 145.8 
L 348.79968 145.8 
L 361.832345 145.8 
L 374.865009 145.8 
L 387.897674 145.8 
L 400.930338 145.8 
L 413.963003 145.8 
L 426.995668 145.8 
L 440.028332 145.8 
L 453.060997 145.8 
L 466.093662 145.8 
L 479.126326 145.8 
L 492.158991 145.8 
L 505.191655 145.8 
L 518.22432 145.8 
L 531.256985 145.8 
L 544.289649 145.8 
L 557.322314 145.8 
L 570.354978 145.8 
L 583.387643 145.8 
L 596.420308 145.8 
L 609.452972 145.8 
L 622.485637 145.8 
L 635.518302 145.8 
L 648.550966 145.8 
L 661.583631 145.8 
L 674.616295 145.8 
L 687.64896 145.8 
L 700.681625 145.8 
L 713.714289 145.8 
L 726.746954 145.8 
L 739.779618 145.8 
L 752.812283 145.8 
L 765.844948 145.8 
L 778.877612 145.8 
L 791.910277 145.8 
L 804.942942 145.8 
L 817.975606 145.8 
L 831.008271 145.8 
L 844.040935 145.8 
L 857.0736 145.8 
L 870.106265 145.8 
L 883.138929 145.8 
L 896.171594 145.8 
L 909.204258 145.8 
L 922.236923 145.8 
L 935.269588 145.8 
L 948.302252 145.8 
L 961.334917 145.8 
L 974.367582 145.8 
L 987.400246 145.8 
L 1000.432911 145.8 
L 1013.465575 145.8 
L 1026.49824 145.8 
L 1039.530905 145.8 
L 1052.563569 145.8 
L 1065.596234 145.8 
L 1078.628898 145.8 
L 1091.661563 145.8 
L 1104.694228 145.8 
L 1117.726892 145.8 
L 1130.759557 145.8 
L 1143.792222 145.8 
L 1156.824886 145.8 
L 1169.857551 145.8 
L 1182.890215 145.8 
L 1195.92288 145.8 
L 1208.955545 145.8 
L 1221.988209 145.8 
L 1235.020874 145.8 
L 1248.053538 145.8 
L 1261.086203 145.8 
L 1274.118868 145.8 
L 1287.151532 145.8 
L 1300.184197 145.8 
L 1313.216862 145.8 
L 1326.249526 145.8 
L 1339.282191 145.8 
L 1352.314855 145.8 
L 1365.34752 145.8 
L 1378.380185 145.8 
L 1391.412849 145.8 
L 1404.445514 145.8 
L 1417.478178 145.8 
L 1430.510843 145.8 
L 1443.543508 145.8 
L 1456.576172 145.8 
L 1469.608837 145.8 
L 1482.641502 145.8 
L 1495.674166 145.8 
L 1508.706831 145.8 
L 1521.739495 145.8 
L 1534.77216 145.8 
L 1547.804825 145.8 
L 1560.837489 145.8 
L 1573.870154 145.8 
L 1586.902818 145.8 
L 1599.935483 145.8 
L 1612.968148 145.8 
L 1626.000812 145.8 
L 1639.033477 145.8 
L 1652.066142 145.8 
L 1665.098806 145.8 
L 1678.131471 145.8 
L 1691.164135 145.8 
L 1704.1968 145.8 
L 1717.229465 145.8 
L 1730.262129 145.8 
L 1743.294794 145.8 
L 1756.327458 145.8 
L 1769.360123 145.8 
L 1782.392788 145.8 
L 1795.425452 145.8 
L 1808.458117 145.8 
L 1821.490782 145.8 
L 1834.523446 145.8 
L 1847.556111 145.8 
L 1860.588775 145.8 
L 1873.62144 145.8 
L 1886.654105 145.8 
L 1899.686769 145.8 
L 1912.719434 145.8 
L 1925.752098 145.8 
L 1938.784763 145.8 
L 1951.817428 145.8 
L 1964.850092 145.8 
L 1977.882757 145.8 
L 1990.915422 145.8 
L 2003.948086 145.8 
L 2016.980751 145.8 
L 2030.013415 145.8 
L 2043.04608 145.8 
L 2056.078745 145.8 
L 2069.111409 145.8 
L 2082.144074 145.8 
L 2095.176738 145.8 
L 2108.209403 145.8 
L 2121.242068 145.8 
L 2134.274732 145.8 
L 2147.307397 145.8 
L 2147.307397 15.473354 
L 2134.274732 15.473354 
L 2121.242068 15.473354 
L 2108.209403 15.473354 
L 2095.176738 15.473354 
L 2082.144074 15.473354 
L 2069.111409 15.473354 
L 2056.078745 15.473354 
L 2043.04608 15.473354 
L 2030.013415 15.473354 
L 2016.980751 15.473354 
L 2003.948086 15.473354 
L 1990.915422 15.473354 
L 1977.882757 15.473354 
L 1964.850092 15.473354 
L 1951.817428 15.473354 
L 1938.784763 15.473354 
L 1925.752098 15.473354 
L 1912.719434 15.473354 
L 1899.686769 15.473354 
L 1886.654105 15.473354 
L 1873.62144 15.473354 
L 1860.588775 15.473354 
L 1847.556111 15.473354 
L 1834.523446 15.473354 
L 1821.490782 15.473354 
L 1808.458117 15.473354 
L 1795.425452 15.473354 
L 1782.392788 15.473354 
L 1769.360123 15.473354 
L 1756.327458 15.473354 
L 1743.294794 15.473354 
L 1730.262129 15.473354 
L 1717.229465 15.473354 
L 1704.1968 15.473354 
L 1691.164135 15.473354 
L 1678.131471 15.473354 
L 1665.098806 15.473354 
L 1652.066142 15.473354 
L 1639.033477 15.473354 
L 1626.000812 15.473354 
L 1612.968148 15.473354 
L 1599.935483 15.473354 
L 1586.902818 15.473354 
L 1573.870154 15.473354 
L 1560.837489 15.473354 
L 1547.804825 15.473354 
L 1534.77216 15.473354 
L 1521.739495 15.473354 
L 1508.706831 15.473354 
L 1495.674166 15.473354 
L 1482.641502 15.473354 
L 1469.608837 15.473354 
L 1456.576172 15.473354 
L 1443.543508 15.473354 
L 1430.510843 15.473354 
L 1417.478178 15.473354 
L 1404.445514 15.473354 
L 1391.412849 15.473354 
L 1378.380185 15.473354 
L 1365.34752 15.473354 
L 1352.314855 15.473354 
L 1339.282191 15.473354 
L 1326.249526 15.473354 
L 1313.216862 15.473354 
L 1300.184197 15.473354 
L 1287.151532 15.473354 
L 1274.118868 15.473354 
L 1261.086203 15.473354 
L 1248.053538 15.473354 
L 1235.020874 15.473354 
L 1221.988209 15.473354 
L 1208.955545 15.473354 
L 1195.92288 15.473354 
L 1182.890215 15.473354 
L 1169.857551 15.473354 
L 1156.824886 15.473354 
L 1143.792222 15.473354 
L 1130.759557 15.473354 
L 1117.726892 15.473354 
L 1104.694228 15.473354 
L 1091.661563 15.473354 
L 1078.628898 15.473354 
L 1065.596234 15.473354 
L 1052.563569 15.473354 
L 1039.530905 15.473354 
L 1026.49824 15.473354 
L 1013.465575 15.473354 
L 1000.432911 15.473354 
L 987.400246 15.473354 
L 974.367582 15.473354 
L 961.334917 15.473354 
L 948.302252 15.473354 
L 935.269588 15.473354 
L 922.236923 15.473354 
L 909.204258 15.473354 
L 896.171594 15.473354 
L 883.138929 15.473354 
L 870.106265 15.473354 
L 857.0736 15.473354 
L 844.040935 15.473354 
L 831.008271 15.473354 
L 817.975606 15.473354 
L 804.942942 15.473354 
L 791.910277 15.473354 
L 778.877612 15.473354 
L 765.844948 15.473354 
L 752.812283 15.473354 
L 739.779618 15.473354 
L 726.746954 15.473354 
L 713.714289 15.473354 
L 700.681625 15.473354 
L 687.64896 15.473354 
L 674.616295 15.473354 
L 661.583631 15.473354 
L 648.550966 15.473354 
L 635.518302 15.473354 
L 622.485637 15.473354 
L 609.452972 15.473354 
L 596.420308 15.473354 
L 583.387643 15.473354 
L 570.354978 15.473354 
L 557.322314 15.473354 
L 544.289649 15.473354 
L 531.256985 15.473354 
L 518.22432 15.473354 
L 505.191655 15.473354 
L 492.158991 15.473354 
L 479.126326 15.473354 
L 466.093662 15.473354 
L 453.060997 15.473354 
L 440.028332 15.473354 
L 426.995668 15.473354 
L 413.963003 15.473354 
L 400.930338 15.473354 
L 387.897674 15.473354 
L 374.865009 15.473354 
L 361.832345 15.473354 
L 348.79968 15.473354 
L 335.767015 15.473354 
L 322.734351 15.473354 
L 309.701686 15.473354 
L 296.669022 15.473354 
L 283.636357 15.473354 
L 270.603692 15.473354 
L 257.571028 15.473354 
L 244.538363 15.473354 
L 231.505698 15.473354 
L 218.473034 15.473354 
L 205.440369 15.473354 
L 192.407705 15.473354 
L 179.37504 15.473354 
L 166.342375 15.473354 
L 153.309711 15.473354 
L 140.277046 15.473354 
L 127.244382 15.473354 
L 114.211717 15.473354 
L 101.179052 15.473354 
L 88.146388 15.473354 
L 75.113723 15.473354 
L 62.081058 15.473354 
L 49.048394 15.473354 
L 36.015729 15.473354 
L 22.983065 15.473354 
L 9.9504 15.473354 
L -3.082265 15.473354 
L -16.114929 15.473354 
L -29.147594 15.473354 
L -42.180258 15.473354 
L -55.212923 15.473354 
L -68.245588 15.473354 
L -81.278252 15.473354 
L -94.310917 15.473354 
L -107.343582 15.473354 
L -120.376246 15.473354 
L -133.408911 15.473354 
L -146.441575 15.473354 
L -159.47424 15.473354 
L -172.506905 15.473354 
L -185.539569 15.473354 
L -198.572234 15.473354 
L -211.604898 15.473354 
L -224.637563 15.473354 
L -237.670228 15.473354 
L -250.702892 15.473354 
L -263.735557 15.473354 
L -276.768222 15.473354 
L -289.800886 15.473354 
L -302.833551 15.473354 
L -315.866215 15.473354 
L -328.89888 15.473354 
L -341.931545 15.473354 
L -354.964209 15.473354 
L -367.996874 15.473354 
L -381.029538 15.473354 
L -394.062203 15.473354 
L -407.094868 15.473354 
L -420.127532 15.473354 
L -433.160197 15.473354 
L -446.192862 15.473354 
L -459.225526 15.473354 
L -472.258191 15.473354 
L -485.290855 15.473354 
L -498.32352 15.473354 
L -511.356185 15.473354 
L -524.388849 15.473354 
L -537.421514 15.473354 
L -550.454178 15.473354 
L -563.486843 15.473354 
L -576.519508 15.473354 
z
" clip-path="url(#p56827903e4)" style="fill: #c7c7c7"/>
   </g>
   <g id="PathCollection_1"/>
   <g id="PathCollection_2">
    <path d="M -576.519508 220.737822 
L -556.970511 210.963323 
L -576.519508 201.188825 
z
" clip-path="url(#p56827903e4)" style="fill: #dddddd; stroke: #dddddd; stroke-width: 0.5"/>
    <path d="M -576.519508 90.411175 
L -556.970511 80.636677 
L -576.519508 70.862178 
z
" clip-path="url(#p56827903e4)" style="fill: #dddddd; stroke: #dddddd; stroke-width: 0.5"/>
   </g>
   <g id="PathCollection_3">
    <path d="M -1 276.126646 
L 868.024 276.126646 
L 868.024 276.126646 
" clip-path="url(#p56827903e4)" style="fill: none; stroke: #555555; stroke-width: 0.5"/>
    <path d="M -1 145.8 
L 868.024 145.8 
L 868.024 145.8 
" clip-path="url(#p56827903e4)" style="fill: none; stroke: #555555; stroke-width: 0.5"/>
   </g>
   <g id="PathCollection_4">
    <path d="M -1 145.8 
L 868.024 145.8 
L 868.024 145.8 
" clip-path="url(#p56827903e4)" style="fill: none; stroke: #555555; stroke-width: 0.5"/>
    <path d="M -1 15.473354 
L 868.024 15.473354 
L 868.024 15.473354 
" clip-path="url(#p56827903e4)" style="fill: none; stroke: #555555; stroke-width: 0.5"/>
   </g>
   <g id="PatchCollection_1">
    <path d="M 335.767015 158.050705 
C 339.223318 158.050705 342.538526 156.677501 344.982501 154.233526 
C 347.426476 151.78955 348.79968 148.474343 348.79968 145.01804 
C 348.79968 141.561737 347.426476 138.24653 344.982501 135.802555 
C 342.538526 133.358579 339.223318 131.985376 335.767015 131.985376 
C 332.310712 131.985376 328.995505 133.358579 326.55153 135.802555 
C 324.107555 138.24653 322.734351 141.561737 322.734351 145.01804 
C 322.734351 148.474343 324.107555 151.78955 326.55153 154.233526 
C 328.995505 156.677501 332.310712 158.050705 335.767015 158.050705 
z
" clip-path="url(#p56827903e4)" style="fill: #008000; stroke: #008000"/>
    <path d="M 441.310487 142.906889 
L 394.71504 159.481248 
L 394.506532 149.057202 
L 335.87127 150.230063 
L 335.662761 139.806017 
L 394.298023 138.633155 
L 394.089514 128.209109 
z
" clip-path="url(#p56827903e4)" style="fill: #008000; stroke: #008000"/>
    <path d="M 726.746954 156.226132 
L 726.746954 135.373868 
L 791.910277 135.373868 
L 791.910277 156.226132 
z
" clip-path="url(#p56827903e4)" style="fill: #f1b514; stroke: #302404; stroke-width: 0.5"/>
    <path d="M 483.351452 154.295723 
L 481.77313 136.806186 
L 505.136982 134.697744 
L 506.715304 152.187281 
z
" clip-path="url(#p56827903e4)" style="fill: #d95558; stroke: #831d20; stroke-width: 0.5"/>
    <path d="M 612.841465 153.277038 
L 612.841465 135.716429 
L 636.300261 135.716429 
L 636.300261 153.277038 
z
" clip-path="url(#p56827903e4)" style="fill: #d95558; stroke: #831d20; stroke-width: 0.5"/>
    <path d="M 678.004788 99.843113 
L 678.004788 82.282504 
L 701.463584 82.282504 
L 701.463584 99.843113 
z
" clip-path="url(#p56827903e4)" style="fill: #d95558; stroke: #831d20; stroke-width: 0.5"/>
    <path d="M 335.767015 151.534372 
C 337.495167 151.534372 339.15277 150.847771 340.374758 149.625783 
C 341.596746 148.403795 342.283348 146.746192 342.283348 145.01804 
C 342.283348 143.289889 341.596746 141.632285 340.374758 140.410297 
C 339.15277 139.18831 337.495167 138.501708 335.767015 138.501708 
C 334.038864 138.501708 332.38126 139.18831 331.159273 140.410297 
C 329.937285 141.632285 329.250683 143.289889 329.250683 145.01804 
C 329.250683 146.746192 329.937285 148.403795 331.159273 149.625783 
C 332.38126 150.847771 334.038864 151.534372 335.767015 151.534372 
z
" clip-path="url(#p56827903e4)" style="fill: #1d7eea; stroke: #00478f; stroke-width: 0.5"/>
   </g>
   <g id="line2d_1">
    <path d="M 335.767015 145.01804 
" clip-path="url(#p56827903e4)" style="fill: none; stroke: #ffd700; stroke-width: 2; stroke-linecap: square"/>
   </g>
   <g id="line2d_2">
    <path d="M 335.767015 145.01804 
L 347.496414 144.783452 
L 359.225812 144.548864 
L 370.95521 144.314276 
L 382.684608 144.079688 
L 394.414006 143.8451 
" clip-path="url(#p56827903e4)" style="fill: none; stroke: #ffd700; stroke-width: 2; stroke-linecap: square"/>
   </g>
   <g id="line2d_3">
    <path d="M 335.767015 145.01804 
L 347.496414 144.783452 
L 359.223816 144.466978 
L 370.941791 143.904696 
L 382.63253 142.932483 
L 394.260816 141.386682 
" clip-path="url(#p56827903e4)" style="fill: none; stroke: #ffd700; stroke-width: 2; stroke-linecap: square"/>
   </g>
   <g id="line2d_4">
    <path d="M 335.767015 145.01804 
L 347.496414 144.783452 
L 359.227092 144.630765 
L 370.958178 144.724066 
L 382.678441 145.228059 
L 394.359235 146.307678 
" clip-path="url(#p56827903e4)" style="fill: none; stroke: #ffd700; stroke-width: 2; stroke-linecap: square"/>
   </g>
   <g id="line2d_5">
    <path d="M 394.414006 143.8451 
L 406.143404 143.610512 
L 417.872802 143.375924 
L 429.602201 143.141336 
L 441.331599 142.906748 
L 453.060997 142.67216 
" clip-path="url(#p56827903e4)" style="fill: none; stroke: #ffd700; stroke-width: 2; stroke-linecap: square"/>
   </g>
   <g id="line2d_6">
    <path d="M 394.414006 143.8451 
L 406.143404 143.610512 
L 417.870807 143.294038 
L 429.588781 142.731756 
L 441.279521 141.759543 
L 452.907806 140.213742 
" clip-path="url(#p56827903e4)" style="fill: none; stroke: #ffd700; stroke-width: 2; stroke-linecap: square"/>
   </g>
   <g id="line2d_7">
    <path d="M 394.414006 143.8451 
L 406.143404 143.610512 
L 417.874083 143.457825 
L 429.605169 143.551126 
L 441.325432 144.055119 
L 453.006226 145.134738 
" clip-path="url(#p56827903e4)" style="fill: none; stroke: #ffd700; stroke-width: 2; stroke-linecap: square"/>
   </g>
   <g id="line2d_8">
    <path d="M 453.060997 142.67216 
L 464.790395 142.437573 
L 476.519793 142.202985 
L 488.249191 141.968397 
L 499.97859 141.733809 
L 511.707988 141.499221 
" clip-path="url(#p56827903e4)" style="fill: none; stroke-dasharray: 7.4,3.2; stroke-dashoffset: 0; stroke: #ffd700; stroke-width: 2"/>
   </g>
   <g id="line2d_9">
    <path d="M 453.060997 142.67216 
L 464.790395 142.437573 
L 476.517798 142.121098 
L 488.235772 141.558816 
L 499.926511 140.586603 
L 511.554797 139.040803 
" clip-path="url(#p56827903e4)" style="fill: none; stroke-dasharray: 7.4,3.2; stroke-dashoffset: 0; stroke: #ffd700; stroke-width: 2"/>
   </g>
   <g id="line2d_10">
    <path d="M 453.060997 142.67216 
L 464.790395 142.437573 
L 476.521074 142.284885 
L 488.25216 142.378186 
L 499.972423 142.882179 
L 511.653217 143.961798 
" clip-path="url(#p56827903e4)" style="fill: none; stroke-dasharray: 7.4,3.2; stroke-dashoffset: 0; stroke: #ffd700; stroke-width: 2"/>
   </g>
   <g id="line2d_11">
    <path d="M 394.359235 146.307678 
L 405.94497 148.126058 
L 417.392575 150.676321 
L 428.701434 153.786511 
L 439.894799 157.290884 
L 451.012432 161.029245 
" clip-path="url(#p56827903e4)" style="fill: none; stroke: #ffd700; stroke-width: 2; stroke-linecap: square"/>
   </g>
   <g id="line2d_12">
    <path d="M 394.359235 146.307678 
L 405.94497 148.126058 
L 417.373197 150.758812 
L 428.586746 154.192769 
L 439.529523 158.410751 
L 450.146788 163.391659 
" clip-path="url(#p56827903e4)" style="fill: none; stroke: #ffd700; stroke-width: 2; stroke-linecap: square"/>
   </g>
   <g id="line2d_13">
    <path d="M 453.006226 145.134738 
L 464.591961 146.953118 
L 476.039566 149.503381 
L 487.348424 152.613571 
L 498.541789 156.117944 
L 509.659422 159.856305 
" clip-path="url(#p56827903e4)" style="fill: none; stroke-dasharray: 7.4,3.2; stroke-dashoffset: 0; stroke: #ffd700; stroke-width: 2"/>
   </g>
   <g id="line2d_14">
    <path d="M 453.006226 145.134738 
L 464.591961 146.953118 
L 476.020187 149.585872 
L 487.233737 153.019829 
L 498.176514 157.237812 
L 508.793779 162.218719 
" clip-path="url(#p56827903e4)" style="fill: none; stroke-dasharray: 7.4,3.2; stroke-dashoffset: 0; stroke: #ffd700; stroke-width: 2"/>
   </g>
   <g id="line2d_15">
    <path d="M 394.260816 141.386682 
L 405.764567 139.106451 
L 417.101032 136.100445 
L 428.27647 132.540509 
L 439.320744 128.591325 
L 450.27999 124.411367 
" clip-path="url(#p56827903e4)" style="fill: none; stroke: #ffd700; stroke-width: 2; stroke-linecap: square"/>
   </g>
   <g id="line2d_16">
    <path d="M 394.260816 141.386682 
L 405.764567 139.106451 
L 417.07837 136.018796 
L 428.145628 132.139163 
L 438.910978 127.48696 
L 449.320567 122.085459 
" clip-path="url(#p56827903e4)" style="fill: none; stroke: #ffd700; stroke-width: 2; stroke-linecap: square"/>
   </g>
   <g id="line2d_17">
    <path d="M 452.907806 140.213742 
L 464.411558 137.933511 
L 475.748023 134.927506 
L 486.923461 131.367569 
L 497.967735 127.418385 
L 508.92698 123.238428 
" clip-path="url(#p56827903e4)" style="fill: none; stroke: #ffd700; stroke-width: 2; stroke-linecap: square"/>
   </g>
   <g id="line2d_18">
    <path d="M 452.907806 140.213742 
L 464.411558 137.933511 
L 475.725361 134.845856 
L 486.792619 130.966223 
L 497.557969 126.31402 
L 507.967558 120.912519 
" clip-path="url(#p56827903e4)" style="fill: none; stroke: #ffd700; stroke-width: 2; stroke-linecap: square"/>
   </g>
   <g id="line2d_19">
    <path d="M 451.012432 161.029245 
L 462.10376 164.84516 
L 473.195089 168.661076 
L 484.286417 172.476992 
L 495.377746 176.292908 
L 506.469074 180.108824 
" clip-path="url(#p56827903e4)" style="fill: none; stroke: #ffd700; stroke-width: 2; stroke-linecap: square"/>
   </g>
   <g id="line2d_20">
    <path d="M 451.012432 161.029245 
L 462.10376 164.84516 
L 473.221393 168.583521 
L 484.414758 172.087894 
L 495.723616 175.198084 
L 507.171222 177.748347 
" clip-path="url(#p56827903e4)" style="fill: none; stroke: #ffd700; stroke-width: 2; stroke-linecap: square"/>
   </g>
   <g id="line2d_21">
    <path d="M 451.012432 161.029245 
L 462.10376 164.84516 
L 473.168108 168.738399 
L 484.148193 172.86269 
L 494.976798 177.368783 
L 505.570278 182.401644 
" clip-path="url(#p56827903e4)" style="fill: none; stroke: #ffd700; stroke-width: 2; stroke-linecap: square"/>
   </g>
   <g id="line2d_22">
    <path d="M 450.146788 163.391659 
L 460.385428 169.110575 
L 470.240979 175.468219 
L 479.772421 182.303068 
L 489.058983 189.467691 
L 498.193451 196.825585 
" clip-path="url(#p56827903e4)" style="fill: none; stroke: #ffd700; stroke-width: 2; stroke-linecap: square"/>
   </g>
   <g id="line2d_23">
    <path d="M 450.146788 163.391659 
L 460.385428 169.110575 
L 470.194226 175.538891 
L 479.524113 182.64445 
L 488.328417 190.391706 
L 496.563096 198.741905 
" clip-path="url(#p56827903e4)" style="fill: none; stroke: #ffd700; stroke-width: 2; stroke-linecap: square"/>
   </g>
   <g id="line2d_24">
    <path d="M 450.27999 124.411367 
L 461.20985 120.154969 
L 472.139711 115.898571 
L 483.069572 111.642172 
L 493.999432 107.385774 
L 504.929293 103.129376 
" clip-path="url(#p56827903e4)" style="fill: none; stroke: #ffd700; stroke-width: 2; stroke-linecap: square"/>
   </g>
   <g id="line2d_25">
    <path d="M 450.27999 124.411367 
L 461.20985 120.154969 
L 472.10966 115.822389 
L 482.916035 111.26231 
L 493.555782 106.326793 
L 503.939528 100.874331 
" clip-path="url(#p56827903e4)" style="fill: none; stroke: #ffd700; stroke-width: 2; stroke-linecap: square"/>
   </g>
   <g id="line2d_26">
    <path d="M 450.27999 124.411367 
L 461.20985 120.154969 
L 472.169096 115.975012 
L 483.21337 112.025827 
L 494.388808 108.465891 
L 505.725273 105.459886 
" clip-path="url(#p56827903e4)" style="fill: none; stroke: #ffd700; stroke-width: 2; stroke-linecap: square"/>
   </g>
   <g id="line2d_27">
    <path d="M 508.92698 123.238428 
L 519.856841 118.982029 
L 530.786702 114.725631 
L 541.716562 110.469233 
L 552.646423 106.212834 
L 563.576284 101.956436 
" clip-path="url(#p56827903e4)" style="fill: none; stroke: #ffd700; stroke-width: 2; stroke-linecap: square"/>
   </g>
   <g id="line2d_28">
    <path d="M 508.92698 123.238428 
L 519.856841 118.982029 
L 530.756651 114.649449 
L 541.563025 110.08937 
L 552.202773 105.153853 
L 562.586518 99.701392 
" clip-path="url(#p56827903e4)" style="fill: none; stroke: #ffd700; stroke-width: 2; stroke-linecap: square"/>
   </g>
   <g id="line2d_29">
    <path d="M 508.92698 123.238428 
L 519.856841 118.982029 
L 530.816086 114.802072 
L 541.860361 110.852887 
L 553.035798 107.292951 
L 564.372264 104.286946 
" clip-path="url(#p56827903e4)" style="fill: none; stroke: #ffd700; stroke-width: 2; stroke-linecap: square"/>
   </g>
   <g id="line2d_30">
    <path d="M 449.320567 122.085459 
L 459.322322 115.961681 
L 468.915751 109.215005 
L 478.166248 102.004468 
L 487.158873 94.474212 
L 495.991797 86.756923 
" clip-path="url(#p56827903e4)" style="fill: none; stroke: #ffd700; stroke-width: 2; stroke-linecap: square"/>
   </g>
   <g id="line2d_31">
    <path d="M 449.320567 122.085459 
L 459.322322 115.961681 
L 468.866209 109.14626 
L 477.904487 101.673289 
L 486.391941 93.580152 
L 494.286114 84.907333 
" clip-path="url(#p56827903e4)" style="fill: none; stroke: #ffd700; stroke-width: 2; stroke-linecap: square"/>
   </g>
   <g id="line2d_32">
    <path d="M 507.967558 120.912519 
L 517.969313 114.788741 
L 527.562741 108.042066 
L 536.813239 100.831528 
L 545.805864 93.301273 
L 554.638788 85.583983 
" clip-path="url(#p56827903e4)" style="fill: none; stroke: #ffd700; stroke-width: 2; stroke-linecap: square"/>
   </g>
   <g id="line2d_33">
    <path d="M 507.967558 120.912519 
L 517.969313 114.788741 
L 527.5132 107.97332 
L 536.551478 100.500349 
L 545.038932 92.407212 
L 552.933105 83.734393 
" clip-path="url(#p56827903e4)" style="fill: none; stroke: #ffd700; stroke-width: 2; stroke-linecap: square"/>
   </g>
   <g id="line2d_34">
    <path d="M 507.171222 177.748347 
L 518.756956 179.566727 
L 530.435418 180.646099 
L 542.153339 181.14996 
L 553.88208 181.243211 
L 565.610413 181.090523 
" clip-path="url(#p56827903e4)" style="fill: none; stroke: #ffd700; stroke-width: 2; stroke-linecap: square"/>
   </g>
   <g id="line2d_35">
    <path d="M 507.171222 177.748347 
L 518.756956 179.566727 
L 530.442242 180.561638 
L 542.168625 180.728101 
L 553.877443 180.065286 
L 565.510125 178.576506 
" clip-path="url(#p56827903e4)" style="fill: none; stroke: #ffd700; stroke-width: 2; stroke-linecap: square"/>
   </g>
   <g id="line2d_36">
    <path d="M 506.469074 180.108824 
L 517.560403 183.924739 
L 528.651731 187.740655 
L 539.74306 191.556571 
L 550.834388 195.372487 
L 561.925717 199.188402 
" clip-path="url(#p56827903e4)" style="fill: none; stroke: #ffd700; stroke-width: 2; stroke-linecap: square"/>
   </g>
   <g id="line2d_37">
    <path d="M 506.469074 180.108824 
L 517.560403 183.924739 
L 528.678036 187.6631 
L 539.871401 191.167473 
L 551.180259 194.277663 
L 562.627864 196.827926 
" clip-path="url(#p56827903e4)" style="fill: none; stroke: #ffd700; stroke-width: 2; stroke-linecap: square"/>
   </g>
   <g id="line2d_38">
    <path d="M 506.469074 180.108824 
L 517.560403 183.924739 
L 528.624751 187.817978 
L 539.604836 191.942269 
L 550.433441 196.448362 
L 561.026921 201.481223 
" clip-path="url(#p56827903e4)" style="fill: none; stroke: #ffd700; stroke-width: 2; stroke-linecap: square"/>
   </g>
   <g id="line2d_39">
    <path d="M 565.510125 178.576506 
L 577.008479 176.26921 
L 588.337838 173.236536 
L 599.504868 169.650311 
L 610.539818 165.675148 
L 621.489197 161.469413 
" clip-path="url(#p56827903e4)" style="fill: none; stroke: #ffd700; stroke-width: 2; stroke-linecap: square"/>
   </g>
   <g id="line2d_40">
    <path d="M 565.510125 178.576506 
L 577.008479 176.26921 
L 588.314984 173.154939 
L 599.373082 169.249274 
L 610.127455 164.57175 
L 620.524304 159.145769 
" clip-path="url(#p56827903e4)" style="fill: none; stroke: #ffd700; stroke-width: 2; stroke-linecap: square"/>
   </g>
   <g id="line2d_41">
    <path d="M 565.610413 181.090523 
L 577.339811 180.855935 
L 589.069209 180.621347 
L 600.798607 180.386759 
L 612.528005 180.152171 
L 624.257403 179.917583 
" clip-path="url(#p56827903e4)" style="fill: none; stroke: #ffd700; stroke-width: 2; stroke-linecap: square"/>
   </g>
   <g id="line2d_42">
    <path d="M 565.610413 181.090523 
L 577.339811 180.855935 
L 589.067214 180.539461 
L 600.785188 179.977179 
L 612.475927 179.004965 
L 624.104213 177.459165 
" clip-path="url(#p56827903e4)" style="fill: none; stroke: #ffd700; stroke-width: 2; stroke-linecap: square"/>
   </g>
   <g id="line2d_43">
    <path d="M 565.610413 181.090523 
L 577.339811 180.855935 
L 589.070489 180.703248 
L 600.801575 180.796548 
L 612.521838 181.300542 
L 624.202633 182.38016 
" clip-path="url(#p56827903e4)" style="fill: none; stroke: #ffd700; stroke-width: 2; stroke-linecap: square"/>
   </g>
   <g id="line2d_44">
    <path d="M 621.489197 161.469413 
L 632.409011 157.187306 
L 643.328826 152.905199 
L 654.24864 148.623092 
L 665.168454 144.340986 
L 676.088268 140.058879 
" clip-path="url(#p56827903e4)" style="fill: none; stroke: #ffd700; stroke-width: 2; stroke-linecap: square"/>
   </g>
   <g id="line2d_45">
    <path d="M 621.489197 161.469413 
L 632.409011 157.187306 
L 643.298596 152.829088 
L 654.094209 148.243592 
L 664.722313 143.283052 
L 675.093199 137.80617 
" clip-path="url(#p56827903e4)" style="fill: none; stroke: #ffd700; stroke-width: 2; stroke-linecap: square"/>
   </g>
   <g id="line2d_46">
    <path d="M 621.489197 161.469413 
L 632.409011 157.187306 
L 643.35839 152.981571 
L 654.39334 149.006408 
L 665.56037 145.420183 
L 676.88973 142.387509 
" clip-path="url(#p56827903e4)" style="fill: none; stroke: #ffd700; stroke-width: 2; stroke-linecap: square"/>
   </g>
   <g id="line2d_47">
    <path d="M 624.104213 177.459165 
L 635.607964 175.178934 
L 646.944429 172.172928 
L 658.119867 168.612992 
L 669.164141 164.663808 
L 680.123387 160.48385 
" clip-path="url(#p56827903e4)" style="fill: none; stroke: #ffd700; stroke-width: 2; stroke-linecap: square"/>
   </g>
   <g id="line2d_48">
    <path d="M 624.104213 177.459165 
L 635.607964 175.178934 
L 646.921767 172.091279 
L 657.989025 168.211646 
L 668.754375 163.559443 
L 679.163964 158.157942 
" clip-path="url(#p56827903e4)" style="fill: none; stroke: #ffd700; stroke-width: 2; stroke-linecap: square"/>
   </g>
   <g id="line2d_49">
    <path d="M 505.570278 182.401644 
L 515.822348 188.096451 
L 525.692832 194.430885 
L 535.240332 201.243285 
L 544.543728 208.386035 
L 553.695485 215.722413 
" clip-path="url(#p56827903e4)" style="fill: none; stroke: #ffd700; stroke-width: 2; stroke-linecap: square"/>
   </g>
   <g id="line2d_50">
    <path d="M 505.570278 182.401644 
L 515.822348 188.096451 
L 525.646245 194.501666 
L 534.992827 201.58525 
L 543.815338 209.311767 
L 552.069644 217.642565 
" clip-path="url(#p56827903e4)" style="fill: none; stroke: #ffd700; stroke-width: 2; stroke-linecap: square"/>
   </g>
   <g id="line2d_51">
    <path d="M 680.123387 160.48385 
L 691.053247 156.227452 
L 701.983108 151.971054 
L 712.912969 147.714655 
L 723.842829 143.458257 
L 734.77269 139.201859 
" clip-path="url(#p56827903e4)" style="fill: none; stroke: #ffd700; stroke-width: 2; stroke-linecap: square"/>
   </g>
   <g id="line2d_52">
    <path d="M 680.123387 160.48385 
L 691.053247 156.227452 
L 701.983108 151.971054 
L 712.912969 147.714655 
L 723.842829 143.458257 
L 734.77269 139.201859 
" clip-path="url(#p56827903e4)" style="fill: none; stroke: #008000; stroke-width: 3; stroke-linecap: square"/>
   </g>
   <g id="line2d_53">
    <path d="M 335.767015 145.01804 
" clip-path="url(#p56827903e4)" style="fill: none; stroke: #008000; stroke-width: 3; stroke-linecap: square"/>
   </g>
   <g id="line2d_54">
    <path d="M 335.767015 145.01804 
L 347.496414 144.783452 
L 359.227092 144.630765 
L 370.958178 144.724066 
L 382.678441 145.228059 
L 394.359235 146.307678 
" clip-path="url(#p56827903e4)" style="fill: none; stroke: #008000; stroke-width: 3; stroke-linecap: square"/>
   </g>
   <g id="line2d_55">
    <path d="M 394.359235 146.307678 
L 405.94497 148.126058 
L 417.392575 150.676321 
L 428.701434 153.786511 
L 439.894799 157.290884 
L 451.012432 161.029245 
" clip-path="url(#p56827903e4)" style="fill: none; stroke: #008000; stroke-width: 3; stroke-linecap: square"/>
   </g>
   <g id="line2d_56">
    <path d="M 451.012432 161.029245 
L 462.10376 164.84516 
L 473.221393 168.583521 
L 484.414758 172.087894 
L 495.723616 175.198084 
L 507.171222 177.748347 
" clip-path="url(#p56827903e4)" style="fill: none; stroke: #008000; stroke-width: 3; stroke-linecap: square"/>
   </g>
   <g id="line2d_57">
    <path d="M 507.171222 177.748347 
L 518.756956 179.566727 
L 530.435418 180.646099 
L 542.153339 181.14996 
L 553.88208 181.243211 
L 565.610413 181.090523 
" clip-path="url(#p56827903e4)" style="fill: none; stroke: #008000; stroke-width: 3; stroke-linecap: square"/>
   </g>
   <g id="line2d_58">
    <path d="M 565.610413 181.090523 
L 577.339811 180.855935 
L 589.067214 180.539461 
L 600.785188 179.977179 
L 612.475927 179.004965 
L 624.104213 177.459165 
" clip-path="url(#p56827903e4)" style="fill: none; stroke: #008000; stroke-width: 3; stroke-linecap: square"/>
   </g>
   <g id="line2d_59">
    <path d="M 624.104213 177.459165 
L 635.607964 175.178934 
L 646.944429 172.172928 
L 658.119867 168.612992 
L 669.164141 164.663808 
L 680.123387 160.48385 
" clip-path="url(#p56827903e4)" style="fill: none; stroke: #008000; stroke-width: 3; stroke-linecap: square"/>
   </g>
   <g id="line2d_60">
    <path d="M 680.123387 160.48385 
L 691.053247 156.227452 
L 701.983108 151.971054 
L 712.912969 147.714655 
L 723.842829 143.458257 
L 734.77269 139.201859 
" clip-path="url(#p56827903e4)" style="fill: none; stroke: #008000; stroke-width: 3; stroke-linecap: square"/>
   </g>
   <g id="line2d_61">
    <path d="M 335.767015 145.01804 
" clip-path="url(#p56827903e4)" style="fill: none; stroke: #ffd700; stroke-width: 1.5; stroke-linecap: square"/>
    <defs>
     <path id="mfcd173bd87" d="M 0 4 
C 1.060812 4 2.078319 3.578535 2.828427 2.828427 
C 3.578535 2.078319 4 1.060812 4 0 
C 4 -1.060812 3.578535 -2.078319 2.828427 -2.828427 
C 2.078319 -3.578535 1.060812 -4 0 -4 
C -1.060812 -4 -2.078319 -3.578535 -2.828427 -2.828427 
C -3.578535 -2.078319 -4 -1.060812 -4 0 
C -4 1.060812 -3.578535 2.078319 -2.828427 2.828427 
C -2.078319 3.578535 -1.060812 4 0 4 
z
" style="stroke: #ffd700"/>
    </defs>
    <g clip-path="url(#p56827903e4)">
     <use xlink:href="#mfcd173bd87" x="335.767015" y="145.01804" style="fill: #ffd700; stroke: #ffd700"/>
    </g>
   </g>
   <g id="line2d_62">
    <path d="M 394.414006 143.8451 
" clip-path="url(#p56827903e4)" style="fill: none; stroke: #ffd700; stroke-width: 1.5; stroke-linecap: square"/>
    <g clip-path="url(#p56827903e4)">
     <use xlink:href="#mfcd173bd87" x="394.414006" y="143.8451" style="fill: #ffd700; stroke: #ffd700"/>
    </g>
   </g>
   <g id="line2d_63">
    <path d="M 394.260816 141.386682 
" clip-path="url(#p56827903e4)" style="fill: none; stroke: #ffd700; stroke-width: 1.5; stroke-linecap: square"/>
    <g clip-path="url(#p56827903e4)">
     <use xlink:href="#mfcd173bd87" x="394.260816" y="141.386682" style="fill: #ffd700; stroke: #ffd700"/>
    </g>
   </g>
   <g id="line2d_64">
    <path d="M 394.359235 146.307678 
" clip-path="url(#p56827903e4)" style="fill: none; stroke: #ffd700; stroke-width: 1.5; stroke-linecap: square"/>
    <g clip-path="url(#p56827903e4)">
     <use xlink:href="#mfcd173bd87" x="394.359235" y="146.307678" style="fill: #ffd700; stroke: #ffd700"/>
    </g>
   </g>
   <g id="line2d_65">
    <path d="M 453.060997 142.67216 
" clip-path="url(#p56827903e4)" style="fill: none; stroke: #ffd700; stroke-width: 1.5; stroke-linecap: square"/>
    <g clip-path="url(#p56827903e4)">
     <use xlink:href="#mfcd173bd87" x="453.060997" y="142.67216" style="fill: #ffd700; stroke: #ffd700"/>
    </g>
   </g>
   <g id="line2d_66">
    <path d="M 452.907806 140.213742 
" clip-path="url(#p56827903e4)" style="fill: none; stroke: #ffd700; stroke-width: 1.5; stroke-linecap: square"/>
    <g clip-path="url(#p56827903e4)">
     <use xlink:href="#mfcd173bd87" x="452.907806" y="140.213742" style="fill: #ffd700; stroke: #ffd700"/>
    </g>
   </g>
   <g id="line2d_67">
    <path d="M 453.006226 145.134738 
" clip-path="url(#p56827903e4)" style="fill: none; stroke: #ffd700; stroke-width: 1.5; stroke-linecap: square"/>
    <g clip-path="url(#p56827903e4)">
     <use xlink:href="#mfcd173bd87" x="453.006226" y="145.134738" style="fill: #ffd700; stroke: #ffd700"/>
    </g>
   </g>
   <g id="line2d_68">
    <path d="M 511.707988 141.499221 
" clip-path="url(#p56827903e4)" style="fill: none; stroke: #ffd700; stroke-width: 1.5; stroke-linecap: square"/>
    <g clip-path="url(#p56827903e4)">
     <use xlink:href="#mfcd173bd87" x="511.707988" y="141.499221" style="fill: #ffd700; stroke: #ffd700"/>
    </g>
   </g>
   <g id="line2d_69">
    <path d="M 511.554797 139.040803 
" clip-path="url(#p56827903e4)" style="fill: none; stroke: #ffd700; stroke-width: 1.5; stroke-linecap: square"/>
    <g clip-path="url(#p56827903e4)">
     <use xlink:href="#mfcd173bd87" x="511.554797" y="139.040803" style="fill: #ffd700; stroke: #ffd700"/>
    </g>
   </g>
   <g id="line2d_70">
    <path d="M 511.653217 143.961798 
" clip-path="url(#p56827903e4)" style="fill: none; stroke: #ffd700; stroke-width: 1.5; stroke-linecap: square"/>
    <g clip-path="url(#p56827903e4)">
     <use xlink:href="#mfcd173bd87" x="511.653217" y="143.961798" style="fill: #ffd700; stroke: #ffd700"/>
    </g>
   </g>
   <g id="line2d_71">
    <path d="M 451.012432 161.029245 
" clip-path="url(#p56827903e4)" style="fill: none; stroke: #ffd700; stroke-width: 1.5; stroke-linecap: square"/>
    <g clip-path="url(#p56827903e4)">
     <use xlink:href="#mfcd173bd87" x="451.012432" y="161.029245" style="fill: #ffd700; stroke: #ffd700"/>
    </g>
   </g>
   <g id="line2d_72">
    <path d="M 450.146788 163.391659 
" clip-path="url(#p56827903e4)" style="fill: none; stroke: #ffd700; stroke-width: 1.5; stroke-linecap: square"/>
    <g clip-path="url(#p56827903e4)">
     <use xlink:href="#mfcd173bd87" x="450.146788" y="163.391659" style="fill: #ffd700; stroke: #ffd700"/>
    </g>
   </g>
   <g id="line2d_73">
    <path d="M 509.659422 159.856305 
" clip-path="url(#p56827903e4)" style="fill: none; stroke: #ffd700; stroke-width: 1.5; stroke-linecap: square"/>
    <g clip-path="url(#p56827903e4)">
     <use xlink:href="#mfcd173bd87" x="509.659422" y="159.856305" style="fill: #ffd700; stroke: #ffd700"/>
    </g>
   </g>
   <g id="line2d_74">
    <path d="M 508.793779 162.218719 
" clip-path="url(#p56827903e4)" style="fill: none; stroke: #ffd700; stroke-width: 1.5; stroke-linecap: square"/>
    <g clip-path="url(#p56827903e4)">
     <use xlink:href="#mfcd173bd87" x="508.793779" y="162.218719" style="fill: #ffd700; stroke: #ffd700"/>
    </g>
   </g>
   <g id="line2d_75">
    <path d="M 450.27999 124.411367 
" clip-path="url(#p56827903e4)" style="fill: none; stroke: #ffd700; stroke-width: 1.5; stroke-linecap: square"/>
    <g clip-path="url(#p56827903e4)">
     <use xlink:href="#mfcd173bd87" x="450.27999" y="124.411367" style="fill: #ffd700; stroke: #ffd700"/>
    </g>
   </g>
   <g id="line2d_76">
    <path d="M 449.320567 122.085459 
" clip-path="url(#p56827903e4)" style="fill: none; stroke: #ffd700; stroke-width: 1.5; stroke-linecap: square"/>
    <g clip-path="url(#p56827903e4)">
     <use xlink:href="#mfcd173bd87" x="449.320567" y="122.085459" style="fill: #ffd700; stroke: #ffd700"/>
    </g>
   </g>
   <g id="line2d_77">
    <path d="M 508.92698 123.238428 
" clip-path="url(#p56827903e4)" style="fill: none; stroke: #ffd700; stroke-width: 1.5; stroke-linecap: square"/>
    <g clip-path="url(#p56827903e4)">
     <use xlink:href="#mfcd173bd87" x="508.92698" y="123.238428" style="fill: #ffd700; stroke: #ffd700"/>
    </g>
   </g>
   <g id="line2d_78">
    <path d="M 507.967558 120.912519 
" clip-path="url(#p56827903e4)" style="fill: none; stroke: #ffd700; stroke-width: 1.5; stroke-linecap: square"/>
    <g clip-path="url(#p56827903e4)">
     <use xlink:href="#mfcd173bd87" x="507.967558" y="120.912519" style="fill: #ffd700; stroke: #ffd700"/>
    </g>
   </g>
   <g id="line2d_79">
    <path d="M 506.469074 180.108824 
" clip-path="url(#p56827903e4)" style="fill: none; stroke: #ffd700; stroke-width: 1.5; stroke-linecap: square"/>
    <g clip-path="url(#p56827903e4)">
     <use xlink:href="#mfcd173bd87" x="506.469074" y="180.108824" style="fill: #ffd700; stroke: #ffd700"/>
    </g>
   </g>
   <g id="line2d_80">
    <path d="M 507.171222 177.748347 
" clip-path="url(#p56827903e4)" style="fill: none; stroke: #ffd700; stroke-width: 1.5; stroke-linecap: square"/>
    <g clip-path="url(#p56827903e4)">
     <use xlink:href="#mfcd173bd87" x="507.171222" y="177.748347" style="fill: #ffd700; stroke: #ffd700"/>
    </g>
   </g>
   <g id="line2d_81">
    <path d="M 505.570278 182.401644 
" clip-path="url(#p56827903e4)" style="fill: none; stroke: #ffd700; stroke-width: 1.5; stroke-linecap: square"/>
    <g clip-path="url(#p56827903e4)">
     <use xlink:href="#mfcd173bd87" x="505.570278" y="182.401644" style="fill: #ffd700; stroke: #ffd700"/>
    </g>
   </g>
   <g id="line2d_82">
    <path d="M 498.193451 196.825585 
" clip-path="url(#p56827903e4)" style="fill: none; stroke: #ffd700; stroke-width: 1.5; stroke-linecap: square"/>
    <g clip-path="url(#p56827903e4)">
     <use xlink:href="#mfcd173bd87" x="498.193451" y="196.825585" style="fill: #ffd700; stroke: #ffd700"/>
    </g>
   </g>
   <g id="line2d_83">
    <path d="M 496.563096 198.741905 
" clip-path="url(#p56827903e4)" style="fill: none; stroke: #ffd700; stroke-width: 1.5; stroke-linecap: square"/>
    <g clip-path="url(#p56827903e4)">
     <use xlink:href="#mfcd173bd87" x="496.563096" y="198.741905" style="fill: #ffd700; stroke: #ffd700"/>
    </g>
   </g>
   <g id="line2d_84">
    <path d="M 504.929293 103.129376 
" clip-path="url(#p56827903e4)" style="fill: none; stroke: #ffd700; stroke-width: 1.5; stroke-linecap: square"/>
    <g clip-path="url(#p56827903e4)">
     <use xlink:href="#mfcd173bd87" x="504.929293" y="103.129376" style="fill: #ffd700; stroke: #ffd700"/>
    </g>
   </g>
   <g id="line2d_85">
    <path d="M 503.939528 100.874331 
" clip-path="url(#p56827903e4)" style="fill: none; stroke: #ffd700; stroke-width: 1.5; stroke-linecap: square"/>
    <g clip-path="url(#p56827903e4)">
     <use xlink:href="#mfcd173bd87" x="503.939528" y="100.874331" style="fill: #ffd700; stroke: #ffd700"/>
    </g>
   </g>
   <g id="line2d_86">
    <path d="M 505.725273 105.459886 
" clip-path="url(#p56827903e4)" style="fill: none; stroke: #ffd700; stroke-width: 1.5; stroke-linecap: square"/>
    <g clip-path="url(#p56827903e4)">
     <use xlink:href="#mfcd173bd87" x="505.725273" y="105.459886" style="fill: #ffd700; stroke: #ffd700"/>
    </g>
   </g>
   <g id="line2d_87">
    <path d="M 563.576284 101.956436 
" clip-path="url(#p56827903e4)" style="fill: none; stroke: #ffd700; stroke-width: 1.5; stroke-linecap: square"/>
    <g clip-path="url(#p56827903e4)">
     <use xlink:href="#mfcd173bd87" x="563.576284" y="101.956436" style="fill: #ffd700; stroke: #ffd700"/>
    </g>
   </g>
   <g id="line2d_88">
    <path d="M 562.586518 99.701392 
" clip-path="url(#p56827903e4)" style="fill: none; stroke: #ffd700; stroke-width: 1.5; stroke-linecap: square"/>
    <g clip-path="url(#p56827903e4)">
     <use xlink:href="#mfcd173bd87" x="562.586518" y="99.701392" style="fill: #ffd700; stroke: #ffd700"/>
    </g>
   </g>
   <g id="line2d_89">
    <path d="M 564.372264 104.286946 
" clip-path="url(#p56827903e4)" style="fill: none; stroke: #ffd700; stroke-width: 1.5; stroke-linecap: square"/>
    <g clip-path="url(#p56827903e4)">
     <use xlink:href="#mfcd173bd87" x="564.372264" y="104.286946" style="fill: #ffd700; stroke: #ffd700"/>
    </g>
   </g>
   <g id="line2d_90">
    <path d="M 495.991797 86.756923 
" clip-path="url(#p56827903e4)" style="fill: none; stroke: #ffd700; stroke-width: 1.5; stroke-linecap: square"/>
    <g clip-path="url(#p56827903e4)">
     <use xlink:href="#mfcd173bd87" x="495.991797" y="86.756923" style="fill: #ffd700; stroke: #ffd700"/>
    </g>
   </g>
   <g id="line2d_91">
    <path d="M 494.286114 84.907333 
" clip-path="url(#p56827903e4)" style="fill: none; stroke: #ffd700; stroke-width: 1.5; stroke-linecap: square"/>
    <g clip-path="url(#p56827903e4)">
     <use xlink:href="#mfcd173bd87" x="494.286114" y="84.907333" style="fill: #ffd700; stroke: #ffd700"/>
    </g>
   </g>
   <g id="line2d_92">
    <path d="M 554.638788 85.583983 
" clip-path="url(#p56827903e4)" style="fill: none; stroke: #ffd700; stroke-width: 1.5; stroke-linecap: square"/>
    <g clip-path="url(#p56827903e4)">
     <use xlink:href="#mfcd173bd87" x="554.638788" y="85.583983" style="fill: #ffd700; stroke: #ffd700"/>
    </g>
   </g>
   <g id="line2d_93">
    <path d="M 552.933105 83.734393 
" clip-path="url(#p56827903e4)" style="fill: none; stroke: #ffd700; stroke-width: 1.5; stroke-linecap: square"/>
    <g clip-path="url(#p56827903e4)">
     <use xlink:href="#mfcd173bd87" x="552.933105" y="83.734393" style="fill: #ffd700; stroke: #ffd700"/>
    </g>
   </g>
   <g id="line2d_94">
    <path d="M 565.610413 181.090523 
" clip-path="url(#p56827903e4)" style="fill: none; stroke: #ffd700; stroke-width: 1.5; stroke-linecap: square"/>
    <g clip-path="url(#p56827903e4)">
     <use xlink:href="#mfcd173bd87" x="565.610413" y="181.090523" style="fill: #ffd700; stroke: #ffd700"/>
    </g>
   </g>
   <g id="line2d_95">
    <path d="M 565.510125 178.576506 
" clip-path="url(#p56827903e4)" style="fill: none; stroke: #ffd700; stroke-width: 1.5; stroke-linecap: square"/>
    <g clip-path="url(#p56827903e4)">
     <use xlink:href="#mfcd173bd87" x="565.510125" y="178.576506" style="fill: #ffd700; stroke: #ffd700"/>
    </g>
   </g>
   <g id="line2d_96">
    <path d="M 561.925717 199.188402 
" clip-path="url(#p56827903e4)" style="fill: none; stroke: #ffd700; stroke-width: 1.5; stroke-linecap: square"/>
    <g clip-path="url(#p56827903e4)">
     <use xlink:href="#mfcd173bd87" x="561.925717" y="199.188402" style="fill: #ffd700; stroke: #ffd700"/>
    </g>
   </g>
   <g id="line2d_97">
    <path d="M 562.627864 196.827926 
" clip-path="url(#p56827903e4)" style="fill: none; stroke: #ffd700; stroke-width: 1.5; stroke-linecap: square"/>
    <g clip-path="url(#p56827903e4)">
     <use xlink:href="#mfcd173bd87" x="562.627864" y="196.827926" style="fill: #ffd700; stroke: #ffd700"/>
    </g>
   </g>
   <g id="line2d_98">
    <path d="M 561.026921 201.481223 
" clip-path="url(#p56827903e4)" style="fill: none; stroke: #ffd700; stroke-width: 1.5; stroke-linecap: square"/>
    <g clip-path="url(#p56827903e4)">
     <use xlink:href="#mfcd173bd87" x="561.026921" y="201.481223" style="fill: #ffd700; stroke: #ffd700"/>
    </g>
   </g>
   <g id="line2d_99">
    <path d="M 621.489197 161.469413 
" clip-path="url(#p56827903e4)" style="fill: none; stroke: #ffd700; stroke-width: 1.5; stroke-linecap: square"/>
    <g clip-path="url(#p56827903e4)">
     <use xlink:href="#mfcd173bd87" x="621.489197" y="161.469413" style="fill: #ffd700; stroke: #ffd700"/>
    </g>
   </g>
   <g id="line2d_100">
    <path d="M 620.524304 159.145769 
" clip-path="url(#p56827903e4)" style="fill: none; stroke: #ffd700; stroke-width: 1.5; stroke-linecap: square"/>
    <g clip-path="url(#p56827903e4)">
     <use xlink:href="#mfcd173bd87" x="620.524304" y="159.145769" style="fill: #ffd700; stroke: #ffd700"/>
    </g>
   </g>
   <g id="line2d_101">
    <path d="M 624.257403 179.917583 
" clip-path="url(#p56827903e4)" style="fill: none; stroke: #ffd700; stroke-width: 1.5; stroke-linecap: square"/>
    <g clip-path="url(#p56827903e4)">
     <use xlink:href="#mfcd173bd87" x="624.257403" y="179.917583" style="fill: #ffd700; stroke: #ffd700"/>
    </g>
   </g>
   <g id="line2d_102">
    <path d="M 624.104213 177.459165 
" clip-path="url(#p56827903e4)" style="fill: none; stroke: #ffd700; stroke-width: 1.5; stroke-linecap: square"/>
    <g clip-path="url(#p56827903e4)">
     <use xlink:href="#mfcd173bd87" x="624.104213" y="177.459165" style="fill: #ffd700; stroke: #ffd700"/>
    </g>
   </g>
   <g id="line2d_103">
    <path d="M 624.202633 182.38016 
" clip-path="url(#p56827903e4)" style="fill: none; stroke: #ffd700; stroke-width: 1.5; stroke-linecap: square"/>
    <g clip-path="url(#p56827903e4)">
     <use xlink:href="#mfcd173bd87" x="624.202633" y="182.38016" style="fill: #ffd700; stroke: #ffd700"/>
    </g>
   </g>
   <g id="line2d_104">
    <path d="M 676.088268 140.058879 
" clip-path="url(#p56827903e4)" style="fill: none; stroke: #ffd700; stroke-width: 1.5; stroke-linecap: square"/>
    <g clip-path="url(#p56827903e4)">
     <use xlink:href="#mfcd173bd87" x="676.088268" y="140.058879" style="fill: #ffd700; stroke: #ffd700"/>
    </g>
   </g>
   <g id="line2d_105">
    <path d="M 675.093199 137.80617 
" clip-path="url(#p56827903e4)" style="fill: none; stroke: #ffd700; stroke-width: 1.5; stroke-linecap: square"/>
    <g clip-path="url(#p56827903e4)">
     <use xlink:href="#mfcd173bd87" x="675.093199" y="137.80617" style="fill: #ffd700; stroke: #ffd700"/>
    </g>
   </g>
   <g id="line2d_106">
    <path d="M 676.88973 142.387509 
" clip-path="url(#p56827903e4)" style="fill: none; stroke: #ffd700; stroke-width: 1.5; stroke-linecap: square"/>
    <g clip-path="url(#p56827903e4)">
     <use xlink:href="#mfcd173bd87" x="676.88973" y="142.387509" style="fill: #ffd700; stroke: #ffd700"/>
    </g>
   </g>
   <g id="line2d_107">
    <path d="M 680.123387 160.48385 
" clip-path="url(#p56827903e4)" style="fill: none; stroke: #ffd700; stroke-width: 1.5; stroke-linecap: square"/>
    <g clip-path="url(#p56827903e4)">
     <use xlink:href="#mfcd173bd87" x="680.123387" y="160.48385" style="fill: #ffd700; stroke: #ffd700"/>
    </g>
   </g>
   <g id="line2d_108">
    <path d="M 679.163964 158.157942 
" clip-path="url(#p56827903e4)" style="fill: none; stroke: #ffd700; stroke-width: 1.5; stroke-linecap: square"/>
    <g clip-path="url(#p56827903e4)">
     <use xlink:href="#mfcd173bd87" x="679.163964" y="158.157942" style="fill: #ffd700; stroke: #ffd700"/>
    </g>
   </g>
   <g id="line2d_109">
    <path d="M 553.695485 215.722413 
" clip-path="url(#p56827903e4)" style="fill: none; stroke: #ffd700; stroke-width: 1.5; stroke-linecap: square"/>
    <g clip-path="url(#p56827903e4)">
     <use xlink:href="#mfcd173bd87" x="553.695485" y="215.722413" style="fill: #ffd700; stroke: #ffd700"/>
    </g>
   </g>
   <g id="line2d_110">
    <path d="M 552.069644 217.642565 
" clip-path="url(#p56827903e4)" style="fill: none; stroke: #ffd700; stroke-width: 1.5; stroke-linecap: square"/>
    <g clip-path="url(#p56827903e4)">
     <use xlink:href="#mfcd173bd87" x="552.069644" y="217.642565" style="fill: #ffd700; stroke: #ffd700"/>
    </g>
   </g>
   <g id="line2d_111">
    <path d="M 734.77269 139.201859 
" clip-path="url(#p56827903e4)" style="fill: none; stroke: #ffd700; stroke-width: 1.5; stroke-linecap: square"/>
    <g clip-path="url(#p56827903e4)">
     <use xlink:href="#mfcd173bd87" x="734.77269" y="139.201859" style="fill: #ffd700; stroke: #ffd700"/>
    </g>
   </g>
   <g id="line2d_112">
    <path d="M 734.77269 139.201859 
" clip-path="url(#p56827903e4)" style="fill: none; stroke: #008000; stroke-width: 1.5; stroke-linecap: square"/>
    <defs>
     <path id="mbc73b050c1" d="M 0 4 
C 1.060812 4 2.078319 3.578535 2.828427 2.828427 
C 3.578535 2.078319 4 1.060812 4 0 
C 4 -1.060812 3.578535 -2.078319 2.828427 -2.828427 
C 2.078319 -3.578535 1.060812 -4 0 -4 
C -1.060812 -4 -2.078319 -3.578535 -2.828427 -2.828427 
C -3.578535 -2.078319 -4 -1.060812 -4 0 
C -4 1.060812 -3.578535 2.078319 -2.828427 2.828427 
C -2.078319 3.578535 -1.060812 4 0 4 
z
" style="stroke: #008000"/>
    </defs>
    <g clip-path="url(#p56827903e4)">
     <use xlink:href="#mbc73b050c1" x="734.77269" y="139.201859" style="fill: #008000; stroke: #008000"/>
    </g>
   </g>
   <g id="line2d_113">
    <path d="M 335.767015 145.01804 
" clip-path="url(#p56827903e4)" style="fill: none; stroke: #008000; stroke-width: 1.5; stroke-linecap: square"/>
    <g clip-path="url(#p56827903e4)">
     <use xlink:href="#mbc73b050c1" x="335.767015" y="145.01804" style="fill: #008000; stroke: #008000"/>
    </g>
   </g>
   <g id="line2d_114">
    <path d="M 394.359235 146.307678 
" clip-path="url(#p56827903e4)" style="fill: none; stroke: #008000; stroke-width: 1.5; stroke-linecap: square"/>
    <g clip-path="url(#p56827903e4)">
     <use xlink:href="#mbc73b050c1" x="394.359235" y="146.307678" style="fill: #008000; stroke: #008000"/>
    </g>
   </g>
   <g id="line2d_115">
    <path d="M 451.012432 161.029245 
" clip-path="url(#p56827903e4)" style="fill: none; stroke: #008000; stroke-width: 1.5; stroke-linecap: square"/>
    <g clip-path="url(#p56827903e4)">
     <use xlink:href="#mbc73b050c1" x="451.012432" y="161.029245" style="fill: #008000; stroke: #008000"/>
    </g>
   </g>
   <g id="line2d_116">
    <path d="M 507.171222 177.748347 
" clip-path="url(#p56827903e4)" style="fill: none; stroke: #008000; stroke-width: 1.5; stroke-linecap: square"/>
    <g clip-path="url(#p56827903e4)">
     <use xlink:href="#mbc73b050c1" x="507.171222" y="177.748347" style="fill: #008000; stroke: #008000"/>
    </g>
   </g>
   <g id="line2d_117">
    <path d="M 565.610413 181.090523 
" clip-path="url(#p56827903e4)" style="fill: none; stroke: #008000; stroke-width: 1.5; stroke-linecap: square"/>
    <g clip-path="url(#p56827903e4)">
     <use xlink:href="#mbc73b050c1" x="565.610413" y="181.090523" style="fill: #008000; stroke: #008000"/>
    </g>
   </g>
   <g id="line2d_118">
    <path d="M 624.104213 177.459165 
" clip-path="url(#p56827903e4)" style="fill: none; stroke: #008000; stroke-width: 1.5; stroke-linecap: square"/>
    <g clip-path="url(#p56827903e4)">
     <use xlink:href="#mbc73b050c1" x="624.104213" y="177.459165" style="fill: #008000; stroke: #008000"/>
    </g>
   </g>
   <g id="line2d_119">
    <path d="M 680.123387 160.48385 
" clip-path="url(#p56827903e4)" style="fill: none; stroke: #008000; stroke-width: 1.5; stroke-linecap: square"/>
    <g clip-path="url(#p56827903e4)">
     <use xlink:href="#mbc73b050c1" x="680.123387" y="160.48385" style="fill: #008000; stroke: #008000"/>
    </g>
   </g>
   <g id="line2d_120">
    <path d="M 734.77269 139.201859 
" clip-path="url(#p56827903e4)" style="fill: none; stroke: #008000; stroke-width: 1.5; stroke-linecap: square"/>
    <g clip-path="url(#p56827903e4)">
     <use xlink:href="#mbc73b050c1" x="734.77269" y="139.201859" style="fill: #008000; stroke: #008000"/>
    </g>
   </g>
  </g>
 </g>
 <defs>
  <clipPath id="p56827903e4">
   <rect x="7.2" y="7.2" width="852.624" height="277.2"/>
  </clipPath>
 </defs>
</svg>
