<?xml version="1.0" encoding="utf-8" standalone="no"?>
<!DOCTYPE svg PUBLIC "-//W3C//DTD SVG 1.1//EN"
  "http://www.w3.org/Graphics/SVG/1.1/DTD/svg11.dtd">
<svg xmlns:xlink="http://www.w3.org/1999/xlink" width="921.15pt" height="291.6pt" viewBox="0 0 921.15 291.6" xmlns="http://www.w3.org/2000/svg" version="1.1">
 <metadata>
  <rdf:RDF xmlns:dc="http://purl.org/dc/elements/1.1/" xmlns:cc="http://creativecommons.org/ns#" xmlns:rdf="http://www.w3.org/1999/02/22-rdf-syntax-ns#">
   <cc:Work>
    <dc:type rdf:resource="http://purl.org/dc/dcmitype/StillImage"/>
    <dc:date>2022-04-29T13:17:11.483795</dc:date>
    <dc:format>image/svg+xml</dc:format>
    <dc:creator>
     <cc:Agent>
      <dc:title>Matplotlib v3.5.1, https://matplotlib.org/</dc:title>
     </cc:Agent>
    </dc:creator>
   </cc:Work>
  </rdf:RDF>
 </metadata>
 <defs>
  <style type="text/css">*{stroke-linejoin: round; stroke-linecap: butt}</style>
 </defs>
 <g id="figure_1">
  <g id="patch_1">
   <path d="M 0 291.6 
L 921.15 291.6 
L 921.15 0 
L 0 0 
z
" style="fill: #ffffff"/>
  </g>
  <g id="axes_1">
   <g id="PolyCollection_1">
    <path d="M -613.575 284.4 
L -599.715 284.4 
L -585.855 284.4 
L -571.995 284.4 
L -558.135 284.4 
L -544.275 284.4 
L -530.415 284.4 
L -516.555 284.4 
L -502.695 284.4 
L -488.835 284.4 
L -474.975 284.4 
L -461.115 284.4 
L -447.255 284.4 
L -433.395 284.4 
L -419.535 284.4 
L -405.675 284.4 
L -391.815 284.4 
L -377.955 284.4 
L -364.095 284.4 
L -350.235 284.4 
L -336.375 284.4 
L -322.515 284.4 
L -308.655 284.4 
L -294.795 284.4 
L -280.935 284.4 
L -267.075 284.4 
L -253.215 284.4 
L -239.355 284.4 
L -225.495 284.4 
L -211.635 284.4 
L -197.775 284.4 
L -183.915 284.4 
L -170.055 284.4 
L -156.195 284.4 
L -142.335 284.4 
L -128.475 284.4 
L -114.615 284.4 
L -100.755 284.4 
L -86.895 284.4 
L -73.035 284.4 
L -59.175 284.4 
L -45.315 284.4 
L -31.455 284.4 
L -17.595 284.4 
L -3.735 284.4 
L 10.125 284.4 
L 23.985 284.4 
L 37.845 284.4 
L 51.705 284.4 
L 65.565 284.4 
L 79.425 284.4 
L 93.285 284.4 
L 107.145 284.4 
L 121.005 284.4 
L 134.865 284.4 
L 148.725 284.4 
L 162.585 284.4 
L 176.445 284.4 
L 190.305 284.4 
L 204.165 284.4 
L 218.025 284.4 
L 231.885 284.4 
L 245.745 284.4 
L 259.605 284.4 
L 273.465 284.4 
L 287.325 284.4 
L 301.185 284.4 
L 315.045 284.4 
L 328.905 284.4 
L 342.765 284.4 
L 356.625 284.4 
L 370.485 284.4 
L 384.345 284.4 
L 398.205 284.4 
L 412.065 284.4 
L 425.925 284.4 
L 439.785 284.4 
L 453.645 284.4 
L 467.505 284.4 
L 481.365 284.4 
L 495.225 284.4 
L 509.085 284.4 
L 522.945 284.4 
L 536.805 284.4 
L 550.665 284.4 
L 564.525 284.4 
L 578.385 284.4 
L 592.245 284.4 
L 606.105 284.4 
L 619.965 284.4 
L 633.825 284.4 
L 647.685 284.4 
L 661.545 284.4 
L 675.405 284.4 
L 689.265 284.4 
L 703.125 284.4 
L 716.985 284.4 
L 730.845 284.4 
L 744.705 284.4 
L 758.565 284.4 
L 772.425 284.4 
L 786.285 284.4 
L 800.145 284.4 
L 814.005 284.4 
L 827.865 284.4 
L 841.725 284.4 
L 855.585 284.4 
L 869.445 284.4 
L 883.305 284.4 
L 897.165 284.4 
L 911.025 284.4 
L 924.885 284.4 
L 938.745 284.4 
L 952.605 284.4 
L 966.465 284.4 
L 980.325 284.4 
L 994.185 284.4 
L 1008.045 284.4 
L 1021.905 284.4 
L 1035.765 284.4 
L 1049.625 284.4 
L 1063.485 284.4 
L 1077.345 284.4 
L 1091.205 284.4 
L 1105.065 284.4 
L 1118.925 284.4 
L 1132.785 284.4 
L 1146.645 284.4 
L 1160.505 284.4 
L 1174.365 284.4 
L 1188.225 284.4 
L 1202.085 284.4 
L 1215.945 284.4 
L 1229.805 284.4 
L 1243.665 284.4 
L 1257.525 284.4 
L 1271.385 284.4 
L 1285.245 284.4 
L 1299.105 284.4 
L 1312.965 284.4 
L 1326.825 284.4 
L 1340.685 284.4 
L 1354.545 284.4 
L 1368.405 284.4 
L 1382.265 284.4 
L 1396.125 284.4 
L 1409.985 284.4 
L 1423.845 284.4 
L 1437.705 284.4 
L 1451.565 284.4 
L 1465.425 284.4 
L 1479.285 284.4 
L 1493.145 284.4 
L 1507.005 284.4 
L 1520.865 284.4 
L 1534.725 284.4 
L 1548.585 284.4 
L 1562.445 284.4 
L 1576.305 284.4 
L 1590.165 284.4 
L 1604.025 284.4 
L 1617.885 284.4 
L 1631.745 284.4 
L 1645.605 284.4 
L 1659.465 284.4 
L 1673.325 284.4 
L 1687.185 284.4 
L 1701.045 284.4 
L 1714.905 284.4 
L 1728.765 284.4 
L 1742.625 284.4 
L 1756.485 284.4 
L 1770.345 284.4 
L 1784.205 284.4 
L 1798.065 284.4 
L 1811.925 284.4 
L 1825.785 284.4 
L 1839.645 284.4 
L 1853.505 284.4 
L 1867.365 284.4 
L 1881.225 284.4 
L 1895.085 284.4 
L 1908.945 284.4 
L 1922.805 284.4 
L 1936.665 284.4 
L 1950.525 284.4 
L 1964.385 284.4 
L 1978.245 284.4 
L 1992.105 284.4 
L 2005.965 284.4 
L 2019.825 284.4 
L 2033.685 284.4 
L 2047.545 284.4 
L 2061.405 284.4 
L 2075.265 284.4 
L 2089.125 284.4 
L 2102.985 284.4 
L 2116.845 284.4 
L 2130.705 284.4 
L 2144.565 284.4 
L 2158.425 284.4 
L 2172.285 284.4 
L 2186.145 284.4 
L 2200.005 284.4 
L 2213.865 284.4 
L 2227.725 284.4 
L 2241.585 284.4 
L 2255.445 284.4 
L 2269.305 284.4 
L 2283.165 284.4 
L 2283.165 145.8 
L 2269.305 145.8 
L 2255.445 145.8 
L 2241.585 145.8 
L 2227.725 145.8 
L 2213.865 145.8 
L 2200.005 145.8 
L 2186.145 145.8 
L 2172.285 145.8 
L 2158.425 145.8 
L 2144.565 145.8 
L 2130.705 145.8 
L 2116.845 145.8 
L 2102.985 145.8 
L 2089.125 145.8 
L 2075.265 145.8 
L 2061.405 145.8 
L 2047.545 145.8 
L 2033.685 145.8 
L 2019.825 145.8 
L 2005.965 145.8 
L 1992.105 145.8 
L 1978.245 145.8 
L 1964.385 145.8 
L 1950.525 145.8 
L 1936.665 145.8 
L 1922.805 145.8 
L 1908.945 145.8 
L 1895.085 145.8 
L 1881.225 145.8 
L 1867.365 145.8 
L 1853.505 145.8 
L 1839.645 145.8 
L 1825.785 145.8 
L 1811.925 145.8 
L 1798.065 145.8 
L 1784.205 145.8 
L 1770.345 145.8 
L 1756.485 145.8 
L 1742.625 145.8 
L 1728.765 145.8 
L 1714.905 145.8 
L 1701.045 145.8 
L 1687.185 145.8 
L 1673.325 145.8 
L 1659.465 145.8 
L 1645.605 145.8 
L 1631.745 145.8 
L 1617.885 145.8 
L 1604.025 145.8 
L 1590.165 145.8 
L 1576.305 145.8 
L 1562.445 145.8 
L 1548.585 145.8 
L 1534.725 145.8 
L 1520.865 145.8 
L 1507.005 145.8 
L 1493.145 145.8 
L 1479.285 145.8 
L 1465.425 145.8 
L 1451.565 145.8 
L 1437.705 145.8 
L 1423.845 145.8 
L 1409.985 145.8 
L 1396.125 145.8 
L 1382.265 145.8 
L 1368.405 145.8 
L 1354.545 145.8 
L 1340.685 145.8 
L 1326.825 145.8 
L 1312.965 145.8 
L 1299.105 145.8 
L 1285.245 145.8 
L 1271.385 145.8 
L 1257.525 145.8 
L 1243.665 145.8 
L 1229.805 145.8 
L 1215.945 145.8 
L 1202.085 145.8 
L 1188.225 145.8 
L 1174.365 145.8 
L 1160.505 145.8 
L 1146.645 145.8 
L 1132.785 145.8 
L 1118.925 145.8 
L 1105.065 145.8 
L 1091.205 145.8 
L 1077.345 145.8 
L 1063.485 145.8 
L 1049.625 145.8 
L 1035.765 145.8 
L 1021.905 145.8 
L 1008.045 145.8 
L 994.185 145.8 
L 980.325 145.8 
L 966.465 145.8 
L 952.605 145.8 
L 938.745 145.8 
L 924.885 145.8 
L 911.025 145.8 
L 897.165 145.8 
L 883.305 145.8 
L 869.445 145.8 
L 855.585 145.8 
L 841.725 145.8 
L 827.865 145.8 
L 814.005 145.8 
L 800.145 145.8 
L 786.285 145.8 
L 772.425 145.8 
L 758.565 145.8 
L 744.705 145.8 
L 730.845 145.8 
L 716.985 145.8 
L 703.125 145.8 
L 689.265 145.8 
L 675.405 145.8 
L 661.545 145.8 
L 647.685 145.8 
L 633.825 145.8 
L 619.965 145.8 
L 606.105 145.8 
L 592.245 145.8 
L 578.385 145.8 
L 564.525 145.8 
L 550.665 145.8 
L 536.805 145.8 
L 522.945 145.8 
L 509.085 145.8 
L 495.225 145.8 
L 481.365 145.8 
L 467.505 145.8 
L 453.645 145.8 
L 439.785 145.8 
L 425.925 145.8 
L 412.065 145.8 
L 398.205 145.8 
L 384.345 145.8 
L 370.485 145.8 
L 356.625 145.8 
L 342.765 145.8 
L 328.905 145.8 
L 315.045 145.8 
L 301.185 145.8 
L 287.325 145.8 
L 273.465 145.8 
L 259.605 145.8 
L 245.745 145.8 
L 231.885 145.8 
L 218.025 145.8 
L 204.165 145.8 
L 190.305 145.8 
L 176.445 145.8 
L 162.585 145.8 
L 148.725 145.8 
L 134.865 145.8 
L 121.005 145.8 
L 107.145 145.8 
L 93.285 145.8 
L 79.425 145.8 
L 65.565 145.8 
L 51.705 145.8 
L 37.845 145.8 
L 23.985 145.8 
L 10.125 145.8 
L -3.735 145.8 
L -17.595 145.8 
L -31.455 145.8 
L -45.315 145.8 
L -59.175 145.8 
L -73.035 145.8 
L -86.895 145.8 
L -100.755 145.8 
L -114.615 145.8 
L -128.475 145.8 
L -142.335 145.8 
L -156.195 145.8 
L -170.055 145.8 
L -183.915 145.8 
L -197.775 145.8 
L -211.635 145.8 
L -225.495 145.8 
L -239.355 145.8 
L -253.215 145.8 
L -267.075 145.8 
L -280.935 145.8 
L -294.795 145.8 
L -308.655 145.8 
L -322.515 145.8 
L -336.375 145.8 
L -350.235 145.8 
L -364.095 145.8 
L -377.955 145.8 
L -391.815 145.8 
L -405.675 145.8 
L -419.535 145.8 
L -433.395 145.8 
L -447.255 145.8 
L -461.115 145.8 
L -474.975 145.8 
L -488.835 145.8 
L -502.695 145.8 
L -516.555 145.8 
L -530.415 145.8 
L -544.275 145.8 
L -558.135 145.8 
L -571.995 145.8 
L -585.855 145.8 
L -599.715 145.8 
L -613.575 145.8 
z
" clip-path="url(#pd395c7c590)" style="fill: #c7c7c7"/>
    <path d="M -613.575 145.8 
L -599.715 145.8 
L -585.855 145.8 
L -571.995 145.8 
L -558.135 145.8 
L -544.275 145.8 
L -530.415 145.8 
L -516.555 145.8 
L -502.695 145.8 
L -488.835 145.8 
L -474.975 145.8 
L -461.115 145.8 
L -447.255 145.8 
L -433.395 145.8 
L -419.535 145.8 
L -405.675 145.8 
L -391.815 145.8 
L -377.955 145.8 
L -364.095 145.8 
L -350.235 145.8 
L -336.375 145.8 
L -322.515 145.8 
L -308.655 145.8 
L -294.795 145.8 
L -280.935 145.8 
L -267.075 145.8 
L -253.215 145.8 
L -239.355 145.8 
L -225.495 145.8 
L -211.635 145.8 
L -197.775 145.8 
L -183.915 145.8 
L -170.055 145.8 
L -156.195 145.8 
L -142.335 145.8 
L -128.475 145.8 
L -114.615 145.8 
L -100.755 145.8 
L -86.895 145.8 
L -73.035 145.8 
L -59.175 145.8 
L -45.315 145.8 
L -31.455 145.8 
L -17.595 145.8 
L -3.735 145.8 
L 10.125 145.8 
L 23.985 145.8 
L 37.845 145.8 
L 51.705 145.8 
L 65.565 145.8 
L 79.425 145.8 
L 93.285 145.8 
L 107.145 145.8 
L 121.005 145.8 
L 134.865 145.8 
L 148.725 145.8 
L 162.585 145.8 
L 176.445 145.8 
L 190.305 145.8 
L 204.165 145.8 
L 218.025 145.8 
L 231.885 145.8 
L 245.745 145.8 
L 259.605 145.8 
L 273.465 145.8 
L 287.325 145.8 
L 301.185 145.8 
L 315.045 145.8 
L 328.905 145.8 
L 342.765 145.8 
L 356.625 145.8 
L 370.485 145.8 
L 384.345 145.8 
L 398.205 145.8 
L 412.065 145.8 
L 425.925 145.8 
L 439.785 145.8 
L 453.645 145.8 
L 467.505 145.8 
L 481.365 145.8 
L 495.225 145.8 
L 509.085 145.8 
L 522.945 145.8 
L 536.805 145.8 
L 550.665 145.8 
L 564.525 145.8 
L 578.385 145.8 
L 592.245 145.8 
L 606.105 145.8 
L 619.965 145.8 
L 633.825 145.8 
L 647.685 145.8 
L 661.545 145.8 
L 675.405 145.8 
L 689.265 145.8 
L 703.125 145.8 
L 716.985 145.8 
L 730.845 145.8 
L 744.705 145.8 
L 758.565 145.8 
L 772.425 145.8 
L 786.285 145.8 
L 800.145 145.8 
L 814.005 145.8 
L 827.865 145.8 
L 841.725 145.8 
L 855.585 145.8 
L 869.445 145.8 
L 883.305 145.8 
L 897.165 145.8 
L 911.025 145.8 
L 924.885 145.8 
L 938.745 145.8 
L 952.605 145.8 
L 966.465 145.8 
L 980.325 145.8 
L 994.185 145.8 
L 1008.045 145.8 
L 1021.905 145.8 
L 1035.765 145.8 
L 1049.625 145.8 
L 1063.485 145.8 
L 1077.345 145.8 
L 1091.205 145.8 
L 1105.065 145.8 
L 1118.925 145.8 
L 1132.785 145.8 
L 1146.645 145.8 
L 1160.505 145.8 
L 1174.365 145.8 
L 1188.225 145.8 
L 1202.085 145.8 
L 1215.945 145.8 
L 1229.805 145.8 
L 1243.665 145.8 
L 1257.525 145.8 
L 1271.385 145.8 
L 1285.245 145.8 
L 1299.105 145.8 
L 1312.965 145.8 
L 1326.825 145.8 
L 1340.685 145.8 
L 1354.545 145.8 
L 1368.405 145.8 
L 1382.265 145.8 
L 1396.125 145.8 
L 1409.985 145.8 
L 1423.845 145.8 
L 1437.705 145.8 
L 1451.565 145.8 
L 1465.425 145.8 
L 1479.285 145.8 
L 1493.145 145.8 
L 1507.005 145.8 
L 1520.865 145.8 
L 1534.725 145.8 
L 1548.585 145.8 
L 1562.445 145.8 
L 1576.305 145.8 
L 1590.165 145.8 
L 1604.025 145.8 
L 1617.885 145.8 
L 1631.745 145.8 
L 1645.605 145.8 
L 1659.465 145.8 
L 1673.325 145.8 
L 1687.185 145.8 
L 1701.045 145.8 
L 1714.905 145.8 
L 1728.765 145.8 
L 1742.625 145.8 
L 1756.485 145.8 
L 1770.345 145.8 
L 1784.205 145.8 
L 1798.065 145.8 
L 1811.925 145.8 
L 1825.785 145.8 
L 1839.645 145.8 
L 1853.505 145.8 
L 1867.365 145.8 
L 1881.225 145.8 
L 1895.085 145.8 
L 1908.945 145.8 
L 1922.805 145.8 
L 1936.665 145.8 
L 1950.525 145.8 
L 1964.385 145.8 
L 1978.245 145.8 
L 1992.105 145.8 
L 2005.965 145.8 
L 2019.825 145.8 
L 2033.685 145.8 
L 2047.545 145.8 
L 2061.405 145.8 
L 2075.265 145.8 
L 2089.125 145.8 
L 2102.985 145.8 
L 2116.845 145.8 
L 2130.705 145.8 
L 2144.565 145.8 
L 2158.425 145.8 
L 2172.285 145.8 
L 2186.145 145.8 
L 2200.005 145.8 
L 2213.865 145.8 
L 2227.725 145.8 
L 2241.585 145.8 
L 2255.445 145.8 
L 2269.305 145.8 
L 2283.165 145.8 
L 2283.165 7.2 
L 2269.305 7.2 
L 2255.445 7.2 
L 2241.585 7.2 
L 2227.725 7.2 
L 2213.865 7.2 
L 2200.005 7.2 
L 2186.145 7.2 
L 2172.285 7.2 
L 2158.425 7.2 
L 2144.565 7.2 
L 2130.705 7.2 
L 2116.845 7.2 
L 2102.985 7.2 
L 2089.125 7.2 
L 2075.265 7.2 
L 2061.405 7.2 
L 2047.545 7.2 
L 2033.685 7.2 
L 2019.825 7.2 
L 2005.965 7.2 
L 1992.105 7.2 
L 1978.245 7.2 
L 1964.385 7.2 
L 1950.525 7.2 
L 1936.665 7.2 
L 1922.805 7.2 
L 1908.945 7.2 
L 1895.085 7.2 
L 1881.225 7.2 
L 1867.365 7.2 
L 1853.505 7.2 
L 1839.645 7.2 
L 1825.785 7.2 
L 1811.925 7.2 
L 1798.065 7.2 
L 1784.205 7.2 
L 1770.345 7.2 
L 1756.485 7.2 
L 1742.625 7.2 
L 1728.765 7.2 
L 1714.905 7.2 
L 1701.045 7.2 
L 1687.185 7.2 
L 1673.325 7.2 
L 1659.465 7.2 
L 1645.605 7.2 
L 1631.745 7.2 
L 1617.885 7.2 
L 1604.025 7.2 
L 1590.165 7.2 
L 1576.305 7.2 
L 1562.445 7.2 
L 1548.585 7.2 
L 1534.725 7.2 
L 1520.865 7.2 
L 1507.005 7.2 
L 1493.145 7.2 
L 1479.285 7.2 
L 1465.425 7.2 
L 1451.565 7.2 
L 1437.705 7.2 
L 1423.845 7.2 
L 1409.985 7.2 
L 1396.125 7.2 
L 1382.265 7.2 
L 1368.405 7.2 
L 1354.545 7.2 
L 1340.685 7.2 
L 1326.825 7.2 
L 1312.965 7.2 
L 1299.105 7.2 
L 1285.245 7.2 
L 1271.385 7.2 
L 1257.525 7.2 
L 1243.665 7.2 
L 1229.805 7.2 
L 1215.945 7.2 
L 1202.085 7.2 
L 1188.225 7.2 
L 1174.365 7.2 
L 1160.505 7.2 
L 1146.645 7.2 
L 1132.785 7.2 
L 1118.925 7.2 
L 1105.065 7.2 
L 1091.205 7.2 
L 1077.345 7.2 
L 1063.485 7.2 
L 1049.625 7.2 
L 1035.765 7.2 
L 1021.905 7.2 
L 1008.045 7.2 
L 994.185 7.2 
L 980.325 7.2 
L 966.465 7.2 
L 952.605 7.2 
L 938.745 7.2 
L 924.885 7.2 
L 911.025 7.2 
L 897.165 7.2 
L 883.305 7.2 
L 869.445 7.2 
L 855.585 7.2 
L 841.725 7.2 
L 827.865 7.2 
L 814.005 7.2 
L 800.145 7.2 
L 786.285 7.2 
L 772.425 7.2 
L 758.565 7.2 
L 744.705 7.2 
L 730.845 7.2 
L 716.985 7.2 
L 703.125 7.2 
L 689.265 7.2 
L 675.405 7.2 
L 661.545 7.2 
L 647.685 7.2 
L 633.825 7.2 
L 619.965 7.2 
L 606.105 7.2 
L 592.245 7.2 
L 578.385 7.2 
L 564.525 7.2 
L 550.665 7.2 
L 536.805 7.2 
L 522.945 7.2 
L 509.085 7.2 
L 495.225 7.2 
L 481.365 7.2 
L 467.505 7.2 
L 453.645 7.2 
L 439.785 7.2 
L 425.925 7.2 
L 412.065 7.2 
L 398.205 7.2 
L 384.345 7.2 
L 370.485 7.2 
L 356.625 7.2 
L 342.765 7.2 
L 328.905 7.2 
L 315.045 7.2 
L 301.185 7.2 
L 287.325 7.2 
L 273.465 7.2 
L 259.605 7.2 
L 245.745 7.2 
L 231.885 7.2 
L 218.025 7.2 
L 204.165 7.2 
L 190.305 7.2 
L 176.445 7.2 
L 162.585 7.2 
L 148.725 7.2 
L 134.865 7.2 
L 121.005 7.2 
L 107.145 7.2 
L 93.285 7.2 
L 79.425 7.2 
L 65.565 7.2 
L 51.705 7.2 
L 37.845 7.2 
L 23.985 7.2 
L 10.125 7.2 
L -3.735 7.2 
L -17.595 7.2 
L -31.455 7.2 
L -45.315 7.2 
L -59.175 7.2 
L -73.035 7.2 
L -86.895 7.2 
L -100.755 7.2 
L -114.615 7.2 
L -128.475 7.2 
L -142.335 7.2 
L -156.195 7.2 
L -170.055 7.2 
L -183.915 7.2 
L -197.775 7.2 
L -211.635 7.2 
L -225.495 7.2 
L -239.355 7.2 
L -253.215 7.2 
L -267.075 7.2 
L -280.935 7.2 
L -294.795 7.2 
L -308.655 7.2 
L -322.515 7.2 
L -336.375 7.2 
L -350.235 7.2 
L -364.095 7.2 
L -377.955 7.2 
L -391.815 7.2 
L -405.675 7.2 
L -419.535 7.2 
L -433.395 7.2 
L -447.255 7.2 
L -461.115 7.2 
L -474.975 7.2 
L -488.835 7.2 
L -502.695 7.2 
L -516.555 7.2 
L -530.415 7.2 
L -544.275 7.2 
L -558.135 7.2 
L -571.995 7.2 
L -585.855 7.2 
L -599.715 7.2 
L -613.575 7.2 
z
" clip-path="url(#pd395c7c590)" style="fill: #c7c7c7"/>
   </g>
   <g id="PathCollection_1"/>
   <g id="PathCollection_2">
    <path d="M -613.575 225.495 
L -592.785 215.1 
L -613.575 204.705 
z
" clip-path="url(#pd395c7c590)" style="fill: #dddddd; stroke: #dddddd; stroke-width: 0.5"/>
    <path d="M -613.575 86.895 
L -592.785 76.5 
L -613.575 66.105 
z
" clip-path="url(#pd395c7c590)" style="fill: #dddddd; stroke: #dddddd; stroke-width: 0.5"/>
   </g>
   <g id="PathCollection_3">
    <path d="M -1 284.4 
L 922.15 284.4 
L 922.15 284.4 
" clip-path="url(#pd395c7c590)" style="fill: none; stroke: #555555; stroke-width: 0.5"/>
    <path d="M -1 145.8 
L 922.15 145.8 
L 922.15 145.8 
" clip-path="url(#pd395c7c590)" style="fill: none; stroke: #555555; stroke-width: 0.5"/>
   </g>
   <g id="PathCollection_4">
    <path d="M -1 145.8 
L 922.15 145.8 
L 922.15 145.8 
" clip-path="url(#pd395c7c590)" style="fill: none; stroke: #555555; stroke-width: 0.5"/>
    <path d="M -1 7.2 
L 922.15 7.2 
L 922.15 7.2 
" clip-path="url(#pd395c7c590)" style="fill: none; stroke: #555555; stroke-width: 0.5"/>
   </g>
   <g id="PatchCollection_1">
    <path d="M 23.985 158.735954 
C 27.660715 158.735954 31.186377 157.275577 33.7855 154.676454 
C 36.384623 152.077331 37.845 148.551669 37.845 144.875954 
C 37.845 141.200239 36.384623 137.674577 33.7855 135.075454 
C 31.186377 132.476331 27.660715 131.015954 23.985 131.015954 
C 20.309285 131.015954 16.783623 132.476331 14.1845 135.075454 
C 11.585377 137.674577 10.125 141.200239 10.125 144.875954 
C 10.125 148.551669 11.585377 152.077331 14.1845 154.676454 
C 16.783623 157.275577 20.309285 158.735954 23.985 158.735954 
z
" clip-path="url(#pd395c7c590)" style="fill: #008000; stroke: #008000"/>
    <path d="M 136.228548 142.630783 
L 86.675144 160.257311 
L 86.453399 149.171528 
L 24.095873 150.418845 
L 23.874127 139.333063 
L 86.231654 138.085746 
L 86.009909 126.999963 
z
" clip-path="url(#pd395c7c590)" style="fill: #008000; stroke: #008000"/>
    <path d="M 786.285 198.468 
L 786.285 148.572 
L 855.585 148.572 
L 855.585 198.468 
z
" clip-path="url(#pd395c7c590)" style="fill: #f1b514; stroke: #302404; stroke-width: 0.5"/>
    <path d="M 214.6986 284.4 
L 214.6986 62.64 
L 253.5066 62.64 
L 253.5066 284.4 
z
" clip-path="url(#pd395c7c590)" style="fill: #d95558; stroke: #831d20; stroke-width: 0.5"/>
    <path d="M 630.4986 228.96 
L 630.4986 7.2 
L 669.3066 7.2 
L 669.3066 228.96 
z
" clip-path="url(#pd395c7c590)" style="fill: #d95558; stroke: #831d20; stroke-width: 0.5"/>
    <path d="M 23.985 151.805954 
C 25.822857 151.805954 27.585689 151.075765 28.88525 149.776204 
C 30.184811 148.476642 30.915 146.713811 30.915 144.875954 
C 30.915 143.038096 30.184811 141.275265 28.88525 139.975704 
C 27.585689 138.676142 25.822857 137.945954 23.985 137.945954 
C 22.147143 137.945954 20.384311 138.676142 19.08475 139.975704 
C 17.785189 141.275265 17.055 143.038096 17.055 144.875954 
C 17.055 146.713811 17.785189 148.476642 19.08475 149.776204 
C 20.384311 151.075765 22.147143 151.805954 23.985 151.805954 
z
" clip-path="url(#pd395c7c590)" style="fill: #1d7eea; stroke: #00478f; stroke-width: 0.5"/>
   </g>
   <g id="line2d_1">
    <path d="M 23.985 144.875954 
" clip-path="url(#pd395c7c590)" style="fill: none; stroke: #ffd700; stroke-width: 2; stroke-linecap: square"/>
   </g>
   <g id="line2d_2">
    <path d="M 23.985 144.875954 
L 36.459 144.626474 
L 48.933 144.376994 
L 61.407 144.127514 
L 73.881 143.878034 
L 86.355 143.628554 
" clip-path="url(#pd395c7c590)" style="fill: none; stroke: #ffd700; stroke-width: 2; stroke-linecap: square"/>
   </g>
   <g id="line2d_3">
    <path d="M 23.985 144.875954 
L 36.459 144.626474 
L 48.930878 144.289909 
L 61.392729 143.691933 
L 73.825616 142.658002 
L 86.192085 141.014071 
" clip-path="url(#pd395c7c590)" style="fill: none; stroke: #ffd700; stroke-width: 2; stroke-linecap: square"/>
   </g>
   <g id="line2d_4">
    <path d="M 23.985 144.875954 
L 36.459 144.626474 
L 48.934362 144.464094 
L 61.410157 144.563317 
L 73.874442 145.099305 
L 86.296752 146.24746 
" clip-path="url(#pd395c7c590)" style="fill: none; stroke: #ffd700; stroke-width: 2; stroke-linecap: square"/>
   </g>
   <g id="line2d_5">
    <path d="M 86.296752 146.24746 
L 98.617969 148.181274 
L 110.792287 150.893432 
L 122.819051 154.201062 
L 134.722989 157.927898 
L 146.546388 161.903576 
" clip-path="url(#pd395c7c590)" style="fill: none; stroke: #ffd700; stroke-width: 2; stroke-linecap: square"/>
   </g>
   <g id="line2d_6">
    <path d="M 86.296752 146.24746 
L 98.617969 148.181274 
L 110.771678 150.981159 
L 122.697083 154.63311 
L 134.334526 159.118857 
L 145.625793 164.415961 
" clip-path="url(#pd395c7c590)" style="fill: none; stroke: #ffd700; stroke-width: 2; stroke-linecap: square"/>
   </g>
   <g id="line2d_7">
    <path d="M 145.625793 164.415961 
L 156.514399 170.497923 
L 166.995596 177.259161 
L 177.13211 184.527898 
L 187.008198 192.147343 
L 196.722538 199.972328 
" clip-path="url(#pd395c7c590)" style="fill: none; stroke: #ffd700; stroke-width: 2; stroke-linecap: square"/>
   </g>
   <g id="line2d_8">
    <path d="M 145.625793 164.415961 
L 156.514399 170.497923 
L 166.945875 177.334319 
L 176.868039 184.890951 
L 186.231255 193.130016 
L 194.988685 202.010299 
" clip-path="url(#pd395c7c590)" style="fill: none; stroke: #ffd700; stroke-width: 2; stroke-linecap: square"/>
   </g>
   <g id="line2d_9">
    <path d="M 196.722538 199.972328 
L 206.382065 207.864996 
L 216.041593 215.757663 
L 225.701121 223.650331 
L 235.360648 231.542998 
L 245.020176 239.435666 
" clip-path="url(#pd395c7c590)" style="fill: none; stroke-dasharray: 7.4,3.2; stroke-dashoffset: 0; stroke: #ffd700; stroke-width: 2"/>
   </g>
   <g id="line2d_10">
    <path d="M 196.722538 199.972328 
L 206.382065 207.864996 
L 216.096405 215.689981 
L 225.972493 223.309426 
L 236.109007 230.578162 
L 246.590204 237.339401 
" clip-path="url(#pd395c7c590)" style="fill: none; stroke-dasharray: 7.4,3.2; stroke-dashoffset: 0; stroke: #ffd700; stroke-width: 2"/>
   </g>
   <g id="line2d_11">
    <path d="M 196.722538 199.972328 
L 206.382065 207.864996 
L 215.986193 215.824865 
L 225.421142 223.984203 
L 234.564323 232.468641 
L 243.278885 241.391995 
" clip-path="url(#pd395c7c590)" style="fill: none; stroke-dasharray: 7.4,3.2; stroke-dashoffset: 0; stroke: #ffd700; stroke-width: 2"/>
   </g>
   <g id="line2d_12">
    <path d="M 194.988685 202.010299 
L 203.09652 211.487378 
L 210.586877 221.460561 
L 217.578101 231.790432 
L 224.203541 242.359094 
L 230.606051 253.064544 
" clip-path="url(#pd395c7c590)" style="fill: none; stroke-dasharray: 7.4,3.2; stroke-dashoffset: 0; stroke: #ffd700; stroke-width: 2"/>
   </g>
   <g id="line2d_13">
    <path d="M 194.988685 202.010299 
L 203.09652 211.487378 
L 210.514201 221.513844 
L 217.204622 232.03954 
L 223.134315 243.011812 
L 228.273616 254.375773 
" clip-path="url(#pd395c7c590)" style="fill: none; stroke-dasharray: 7.4,3.2; stroke-dashoffset: 0; stroke: #ffd700; stroke-width: 2"/>
   </g>
   <g id="line2d_14">
    <path d="M 146.546388 161.903576 
L 158.341813 165.961733 
L 170.137238 170.019889 
L 181.932662 174.078046 
L 193.728087 178.136202 
L 205.523511 182.194359 
" clip-path="url(#pd395c7c590)" style="fill: none; stroke: #ffd700; stroke-width: 2; stroke-linecap: square"/>
   </g>
   <g id="line2d_15">
    <path d="M 146.546388 161.903576 
L 158.341813 165.961733 
L 170.165212 169.937411 
L 182.069151 173.664247 
L 194.095914 176.971877 
L 206.270232 179.684035 
" clip-path="url(#pd395c7c590)" style="fill: none; stroke: #ffd700; stroke-width: 2; stroke-linecap: square"/>
   </g>
   <g id="line2d_16">
    <path d="M 146.546388 161.903576 
L 158.341813 165.961733 
L 170.108544 170.10212 
L 181.785664 174.488229 
L 193.301687 179.280376 
L 204.567658 184.632732 
" clip-path="url(#pd395c7c590)" style="fill: none; stroke: #ffd700; stroke-width: 2; stroke-linecap: square"/>
   </g>
   <g id="line2d_17">
    <path d="M 206.270232 179.684035 
L 218.591449 181.61785 
L 231.011279 182.765742 
L 243.473073 183.301589 
L 255.946374 183.400759 
L 268.419241 183.238378 
" clip-path="url(#pd395c7c590)" style="fill: none; stroke-dasharray: 7.4,3.2; stroke-dashoffset: 0; stroke: #ffd700; stroke-width: 2"/>
   </g>
   <g id="line2d_18">
    <path d="M 206.270232 179.684035 
L 218.591449 181.61785 
L 231.018536 182.675919 
L 243.489329 182.85295 
L 255.941443 182.148057 
L 268.312587 180.564767 
" clip-path="url(#pd395c7c590)" style="fill: none; stroke-dasharray: 7.4,3.2; stroke-dashoffset: 0; stroke: #ffd700; stroke-width: 2"/>
   </g>
   <g id="line2d_19">
    <path d="M 205.523511 182.194359 
L 217.318936 186.252515 
L 229.114361 190.310672 
L 240.909785 194.368828 
L 252.70521 198.426985 
L 264.500634 202.485142 
" clip-path="url(#pd395c7c590)" style="fill: none; stroke-dasharray: 7.4,3.2; stroke-dashoffset: 0; stroke: #ffd700; stroke-width: 2"/>
   </g>
   <g id="line2d_20">
    <path d="M 205.523511 182.194359 
L 217.318936 186.252515 
L 229.142335 190.228194 
L 241.046274 193.95503 
L 253.073037 197.26266 
L 265.247355 199.974818 
" clip-path="url(#pd395c7c590)" style="fill: none; stroke-dasharray: 7.4,3.2; stroke-dashoffset: 0; stroke: #ffd700; stroke-width: 2"/>
   </g>
   <g id="line2d_21">
    <path d="M 205.523511 182.194359 
L 217.318936 186.252515 
L 229.085667 190.392903 
L 240.762787 194.779012 
L 252.27881 199.571158 
L 263.544781 204.923514 
" clip-path="url(#pd395c7c590)" style="fill: none; stroke-dasharray: 7.4,3.2; stroke-dashoffset: 0; stroke: #ffd700; stroke-width: 2"/>
   </g>
   <g id="line2d_22">
    <path d="M 204.567658 184.632732 
L 215.470547 190.689054 
L 225.967625 197.425609 
L 236.121217 204.670472 
L 246.015208 212.266655 
L 255.747934 220.068759 
" clip-path="url(#pd395c7c590)" style="fill: none; stroke-dasharray: 7.4,3.2; stroke-dashoffset: 0; stroke: #ffd700; stroke-width: 2"/>
   </g>
   <g id="line2d_23">
    <path d="M 204.567658 184.632732 
L 215.470547 190.689054 
L 225.918082 197.500884 
L 235.858 205.034145 
L 245.240579 213.251154 
L 254.018882 222.110805 
" clip-path="url(#pd395c7c590)" style="fill: none; stroke-dasharray: 7.4,3.2; stroke-dashoffset: 0; stroke: #ffd700; stroke-width: 2"/>
   </g>
   <g id="line2d_24">
    <path d="M 86.355 143.628554 
L 98.829 143.379074 
L 111.303 143.129594 
L 123.777 142.880114 
L 136.251 142.630634 
L 148.725 142.381154 
" clip-path="url(#pd395c7c590)" style="fill: none; stroke: #ffd700; stroke-width: 2; stroke-linecap: square"/>
   </g>
   <g id="line2d_25">
    <path d="M 86.355 143.628554 
L 98.829 143.379074 
L 111.300878 143.042509 
L 123.762729 142.444533 
L 136.195616 141.410602 
L 148.562085 139.766671 
" clip-path="url(#pd395c7c590)" style="fill: none; stroke: #ffd700; stroke-width: 2; stroke-linecap: square"/>
   </g>
   <g id="line2d_26">
    <path d="M 86.355 143.628554 
L 98.829 143.379074 
L 111.304362 143.216694 
L 123.780157 143.315917 
L 136.244442 143.851905 
L 148.666752 145.00006 
" clip-path="url(#pd395c7c590)" style="fill: none; stroke: #ffd700; stroke-width: 2; stroke-linecap: square"/>
   </g>
   <g id="line2d_27">
    <path d="M 148.666752 145.00006 
L 160.987969 146.933874 
L 173.162287 149.646032 
L 185.189051 152.953662 
L 197.092989 156.680498 
L 208.916388 160.656176 
" clip-path="url(#pd395c7c590)" style="fill: none; stroke: #ffd700; stroke-width: 2; stroke-linecap: square"/>
   </g>
   <g id="line2d_28">
    <path d="M 148.666752 145.00006 
L 160.987969 146.933874 
L 173.141678 149.733759 
L 185.067083 153.38571 
L 196.704526 157.871457 
L 207.995793 163.168561 
" clip-path="url(#pd395c7c590)" style="fill: none; stroke: #ffd700; stroke-width: 2; stroke-linecap: square"/>
   </g>
   <g id="line2d_29">
    <path d="M 207.995793 163.168561 
L 218.884399 169.250523 
L 229.365596 176.011761 
L 239.50211 183.280498 
L 249.378198 190.899943 
L 259.092538 198.724928 
" clip-path="url(#pd395c7c590)" style="fill: none; stroke-dasharray: 7.4,3.2; stroke-dashoffset: 0; stroke: #ffd700; stroke-width: 2"/>
   </g>
   <g id="line2d_30">
    <path d="M 207.995793 163.168561 
L 218.884399 169.250523 
L 229.315875 176.086919 
L 239.238039 183.643551 
L 248.601255 191.882616 
L 257.358685 200.762899 
" clip-path="url(#pd395c7c590)" style="fill: none; stroke-dasharray: 7.4,3.2; stroke-dashoffset: 0; stroke: #ffd700; stroke-width: 2"/>
   </g>
   <g id="line2d_31">
    <path d="M 208.916388 160.656176 
L 220.711813 164.714333 
L 232.507238 168.772489 
L 244.302662 172.830646 
L 256.098087 176.888802 
L 267.893511 180.946959 
" clip-path="url(#pd395c7c590)" style="fill: none; stroke-dasharray: 7.4,3.2; stroke-dashoffset: 0; stroke: #ffd700; stroke-width: 2"/>
   </g>
   <g id="line2d_32">
    <path d="M 208.916388 160.656176 
L 220.711813 164.714333 
L 232.535212 168.690011 
L 244.439151 172.416847 
L 256.465914 175.724477 
L 268.640232 178.436635 
" clip-path="url(#pd395c7c590)" style="fill: none; stroke-dasharray: 7.4,3.2; stroke-dashoffset: 0; stroke: #ffd700; stroke-width: 2"/>
   </g>
   <g id="line2d_33">
    <path d="M 208.916388 160.656176 
L 220.711813 164.714333 
L 232.478544 168.85472 
L 244.155664 173.240829 
L 255.671687 178.032976 
L 266.937658 183.385332 
" clip-path="url(#pd395c7c590)" style="fill: none; stroke-dasharray: 7.4,3.2; stroke-dashoffset: 0; stroke: #ffd700; stroke-width: 2"/>
   </g>
   <g id="line2d_34">
    <path d="M 148.725 142.381154 
L 161.199 142.131674 
L 173.673 141.882194 
L 186.147 141.632714 
L 198.621 141.383234 
L 211.095 141.133754 
" clip-path="url(#pd395c7c590)" style="fill: none; stroke: #ffd700; stroke-width: 2; stroke-linecap: square"/>
   </g>
   <g id="line2d_35">
    <path d="M 148.725 142.381154 
L 161.199 142.131674 
L 173.670878 141.795109 
L 186.132729 141.197133 
L 198.565616 140.163202 
L 210.932085 138.519271 
" clip-path="url(#pd395c7c590)" style="fill: none; stroke: #ffd700; stroke-width: 2; stroke-linecap: square"/>
   </g>
   <g id="line2d_36">
    <path d="M 148.725 142.381154 
L 161.199 142.131674 
L 173.674362 141.969294 
L 186.150157 142.068517 
L 198.614442 142.604505 
L 211.036752 143.75266 
" clip-path="url(#pd395c7c590)" style="fill: none; stroke: #ffd700; stroke-width: 2; stroke-linecap: square"/>
   </g>
   <g id="line2d_37">
    <path d="M 211.036752 143.75266 
L 223.357969 145.686474 
L 235.532287 148.398632 
L 247.559051 151.706262 
L 259.462989 155.433098 
L 271.286388 159.408776 
" clip-path="url(#pd395c7c590)" style="fill: none; stroke-dasharray: 7.4,3.2; stroke-dashoffset: 0; stroke: #ffd700; stroke-width: 2"/>
   </g>
   <g id="line2d_38">
    <path d="M 211.036752 143.75266 
L 223.357969 145.686474 
L 235.511678 148.486359 
L 247.437083 152.13831 
L 259.074526 156.624057 
L 270.365793 161.921161 
" clip-path="url(#pd395c7c590)" style="fill: none; stroke-dasharray: 7.4,3.2; stroke-dashoffset: 0; stroke: #ffd700; stroke-width: 2"/>
   </g>
   <g id="line2d_39">
    <path d="M 211.095 141.133754 
L 223.569 140.884274 
L 236.043 140.634794 
L 248.517 140.385314 
L 260.991 140.135834 
L 273.465 139.886354 
" clip-path="url(#pd395c7c590)" style="fill: none; stroke-dasharray: 7.4,3.2; stroke-dashoffset: 0; stroke: #ffd700; stroke-width: 2"/>
   </g>
   <g id="line2d_40">
    <path d="M 211.095 141.133754 
L 223.569 140.884274 
L 236.040878 140.547709 
L 248.502729 139.949733 
L 260.935616 138.915802 
L 273.302085 137.271871 
" clip-path="url(#pd395c7c590)" style="fill: none; stroke-dasharray: 7.4,3.2; stroke-dashoffset: 0; stroke: #ffd700; stroke-width: 2"/>
   </g>
   <g id="line2d_41">
    <path d="M 211.095 141.133754 
L 223.569 140.884274 
L 236.044362 140.721894 
L 248.520157 140.821117 
L 260.984442 141.357105 
L 273.406752 142.50526 
" clip-path="url(#pd395c7c590)" style="fill: none; stroke-dasharray: 7.4,3.2; stroke-dashoffset: 0; stroke: #ffd700; stroke-width: 2"/>
   </g>
   <g id="line2d_42">
    <path d="M 210.932085 138.519271 
L 223.166113 136.094287 
L 235.222236 132.897455 
L 247.10711 129.111528 
L 258.852493 124.911643 
L 270.50745 120.466335 
" clip-path="url(#pd395c7c590)" style="fill: none; stroke-dasharray: 7.4,3.2; stroke-dashoffset: 0; stroke: #ffd700; stroke-width: 2"/>
   </g>
   <g id="line2d_43">
    <path d="M 210.932085 138.519271 
L 223.166113 136.094287 
L 235.198136 132.810622 
L 246.967962 128.684704 
L 258.416714 123.737171 
L 269.487122 117.992774 
" clip-path="url(#pd395c7c590)" style="fill: none; stroke-dasharray: 7.4,3.2; stroke-dashoffset: 0; stroke: #ffd700; stroke-width: 2"/>
   </g>
   <g id="line2d_44">
    <path d="M 148.562085 139.766671 
L 160.796113 137.341687 
L 172.852236 134.144855 
L 184.73711 130.358928 
L 196.482493 126.159043 
L 208.13745 121.713735 
" clip-path="url(#pd395c7c590)" style="fill: none; stroke: #ffd700; stroke-width: 2; stroke-linecap: square"/>
   </g>
   <g id="line2d_45">
    <path d="M 148.562085 139.766671 
L 160.796113 137.341687 
L 172.828136 134.058022 
L 184.597962 129.932104 
L 196.046714 124.984571 
L 207.117122 119.240174 
" clip-path="url(#pd395c7c590)" style="fill: none; stroke: #ffd700; stroke-width: 2; stroke-linecap: square"/>
   </g>
   <g id="line2d_46">
    <path d="M 208.13745 121.713735 
L 219.761156 117.187133 
L 231.384863 112.660532 
L 243.008569 108.13393 
L 254.632276 103.607329 
L 266.255982 99.080727 
" clip-path="url(#pd395c7c590)" style="fill: none; stroke-dasharray: 7.4,3.2; stroke-dashoffset: 0; stroke: #ffd700; stroke-width: 2"/>
   </g>
   <g id="line2d_47">
    <path d="M 208.13745 121.713735 
L 219.761156 117.187133 
L 231.352904 112.579514 
L 242.845285 107.729954 
L 254.160462 102.481122 
L 265.203385 96.682529 
" clip-path="url(#pd395c7c590)" style="fill: none; stroke-dasharray: 7.4,3.2; stroke-dashoffset: 0; stroke: #ffd700; stroke-width: 2"/>
   </g>
   <g id="line2d_48">
    <path d="M 208.13745 121.713735 
L 219.761156 117.187133 
L 231.416113 112.741825 
L 243.161496 108.54194 
L 255.046369 104.756013 
L 267.102492 101.559182 
" clip-path="url(#pd395c7c590)" style="fill: none; stroke-dasharray: 7.4,3.2; stroke-dashoffset: 0; stroke: #ffd700; stroke-width: 2"/>
   </g>
   <g id="line2d_49">
    <path d="M 207.117122 119.240174 
L 217.753804 112.727649 
L 227.95624 105.552682 
L 237.793975 97.884408 
L 247.357466 89.876119 
L 256.751119 81.668923 
" clip-path="url(#pd395c7c590)" style="fill: none; stroke-dasharray: 7.4,3.2; stroke-dashoffset: 0; stroke: #ffd700; stroke-width: 2"/>
   </g>
   <g id="line2d_50">
    <path d="M 207.117122 119.240174 
L 217.753804 112.727649 
L 227.903554 105.479573 
L 237.515596 97.532205 
L 246.541848 88.925302 
L 254.937156 79.701918 
" clip-path="url(#pd395c7c590)" style="fill: none; stroke-dasharray: 7.4,3.2; stroke-dashoffset: 0; stroke: #ffd700; stroke-width: 2"/>
   </g>
   <g id="line2d_51">
    <path d="M 86.192085 141.014071 
L 98.426113 138.589087 
L 110.482236 135.392255 
L 122.36711 131.606328 
L 134.112493 127.406443 
L 145.76745 122.961135 
" clip-path="url(#pd395c7c590)" style="fill: none; stroke: #ffd700; stroke-width: 2; stroke-linecap: square"/>
   </g>
   <g id="line2d_52">
    <path d="M 86.192085 141.014071 
L 98.426113 138.589087 
L 110.458136 135.305422 
L 122.227962 131.179504 
L 133.676714 126.231971 
L 144.747122 120.487574 
" clip-path="url(#pd395c7c590)" style="fill: none; stroke: #ffd700; stroke-width: 2; stroke-linecap: square"/>
   </g>
   <g id="line2d_53">
    <path d="M 145.76745 122.961135 
L 157.391156 118.434533 
L 169.014863 113.907932 
L 180.638569 109.38133 
L 192.262276 104.854729 
L 203.885982 100.328127 
" clip-path="url(#pd395c7c590)" style="fill: none; stroke: #ffd700; stroke-width: 2; stroke-linecap: square"/>
   </g>
   <g id="line2d_54">
    <path d="M 145.76745 122.961135 
L 157.391156 118.434533 
L 168.982904 113.826914 
L 180.475285 108.977354 
L 191.790462 103.728522 
L 202.833385 97.929929 
" clip-path="url(#pd395c7c590)" style="fill: none; stroke: #ffd700; stroke-width: 2; stroke-linecap: square"/>
   </g>
   <g id="line2d_55">
    <path d="M 145.76745 122.961135 
L 157.391156 118.434533 
L 169.046113 113.989225 
L 180.791496 109.78934 
L 192.676369 106.003413 
L 204.732492 102.806582 
" clip-path="url(#pd395c7c590)" style="fill: none; stroke: #ffd700; stroke-width: 2; stroke-linecap: square"/>
   </g>
   <g id="line2d_56">
    <path d="M 204.732492 102.806582 
L 216.966521 100.381597 
L 229.330513 98.737963 
L 241.760911 97.704205 
L 254.220269 97.106315 
L 266.689653 96.769784 
" clip-path="url(#pd395c7c590)" style="fill: none; stroke-dasharray: 7.4,3.2; stroke-dashoffset: 0; stroke: #ffd700; stroke-width: 2"/>
   </g>
   <g id="line2d_57">
    <path d="M 204.732492 102.806582 
L 216.966521 100.381597 
L 229.341357 98.827423 
L 241.795095 98.151835 
L 254.265436 98.358212 
L 266.69 99.445522 
" clip-path="url(#pd395c7c590)" style="fill: none; stroke-dasharray: 7.4,3.2; stroke-dashoffset: 0; stroke: #ffd700; stroke-width: 2"/>
   </g>
   <g id="line2d_58">
    <path d="M 203.885982 100.328127 
L 215.509689 95.801525 
L 227.133395 91.274924 
L 238.757102 86.748322 
L 250.380809 82.221721 
L 262.004515 77.695119 
" clip-path="url(#pd395c7c590)" style="fill: none; stroke-dasharray: 7.4,3.2; stroke-dashoffset: 0; stroke: #ffd700; stroke-width: 2"/>
   </g>
   <g id="line2d_59">
    <path d="M 203.885982 100.328127 
L 215.509689 95.801525 
L 227.101437 91.193906 
L 238.593818 86.344346 
L 249.908995 81.095514 
L 260.951918 75.296921 
" clip-path="url(#pd395c7c590)" style="fill: none; stroke-dasharray: 7.4,3.2; stroke-dashoffset: 0; stroke: #ffd700; stroke-width: 2"/>
   </g>
   <g id="line2d_60">
    <path d="M 203.885982 100.328127 
L 215.509689 95.801525 
L 227.164646 91.356217 
L 238.910029 87.156332 
L 250.794902 83.370405 
L 262.851025 80.173574 
" clip-path="url(#pd395c7c590)" style="fill: none; stroke-dasharray: 7.4,3.2; stroke-dashoffset: 0; stroke: #ffd700; stroke-width: 2"/>
   </g>
   <g id="line2d_61">
    <path d="M 202.833385 97.929929 
L 213.485364 91.442451 
L 223.704655 84.291514 
L 233.560408 76.646411 
L 243.142718 68.660649 
L 252.555659 60.475581 
" clip-path="url(#pd395c7c590)" style="fill: none; stroke-dasharray: 7.4,3.2; stroke-dashoffset: 0; stroke: #ffd700; stroke-width: 2"/>
   </g>
   <g id="line2d_62">
    <path d="M 202.833385 97.929929 
L 213.485364 91.442451 
L 223.652141 84.21828 
L 233.282859 76.293554 
L 242.32934 67.707915 
L 250.746329 58.504312 
" clip-path="url(#pd395c7c590)" style="fill: none; stroke-dasharray: 7.4,3.2; stroke-dashoffset: 0; stroke: #ffd700; stroke-width: 2"/>
   </g>
   <g id="line2d_63">
    <path d="M 144.747122 120.487574 
L 155.383804 113.975049 
L 165.58624 106.800082 
L 175.423975 99.131808 
L 184.987466 91.123519 
L 194.381119 82.916323 
" clip-path="url(#pd395c7c590)" style="fill: none; stroke: #ffd700; stroke-width: 2; stroke-linecap: square"/>
   </g>
   <g id="line2d_64">
    <path d="M 144.747122 120.487574 
L 155.383804 113.975049 
L 165.533554 106.726973 
L 175.145596 98.779605 
L 184.171848 90.172702 
L 192.567156 80.949318 
" clip-path="url(#pd395c7c590)" style="fill: none; stroke: #ffd700; stroke-width: 2; stroke-linecap: square"/>
   </g>
   <g id="line2d_65">
    <path d="M 194.381119 82.916323 
L 203.717298 74.643691 
L 213.053476 66.371059 
L 222.389655 58.098426 
L 231.725834 49.825794 
L 241.062012 41.553162 
" clip-path="url(#pd395c7c590)" style="fill: none; stroke: #ffd700; stroke-width: 2; stroke-linecap: square"/>
   </g>
   <g id="line2d_66">
    <path d="M 194.381119 82.916323 
L 203.717298 74.643691 
L 212.995433 66.306126 
L 222.096549 57.776017 
L 230.893129 48.932736 
L 239.243882 39.668031 
" clip-path="url(#pd395c7c590)" style="fill: none; stroke: #ffd700; stroke-width: 2; stroke-linecap: square"/>
   </g>
   <g id="line2d_67">
    <path d="M 194.381119 82.916323 
L 203.717298 74.643691 
L 213.110951 66.436495 
L 222.674442 58.428206 
L 232.512177 50.759932 
L 242.714613 43.584966 
" clip-path="url(#pd395c7c590)" style="fill: none; stroke: #ffd700; stroke-width: 2; stroke-linecap: square"/>
   </g>
   <g id="line2d_68">
    <path d="M 242.714613 43.584966 
L 253.351296 37.07244 
L 264.380543 31.247877 
L 275.683336 25.972432 
L 287.164274 21.095841 
L 298.745147 16.460957 
" clip-path="url(#pd395c7c590)" style="fill: none; stroke: #ffd700; stroke-width: 2; stroke-linecap: square"/>
   </g>
   <g id="line2d_69">
    <path d="M 242.714613 43.584966 
L 253.351296 37.07244 
L 264.421703 31.328043 
L 275.870455 26.380511 
L 287.640282 22.254592 
L 299.672304 18.970928 
" clip-path="url(#pd395c7c590)" style="fill: none; stroke: #ffd700; stroke-width: 2; stroke-linecap: square"/>
   </g>
   <g id="line2d_70">
    <path d="M 241.062012 41.553162 
L 250.398191 33.280529 
L 259.734369 25.007897 
L 269.070548 16.735265 
L 278.406726 8.462632 
L 287.742905 0.19 
" clip-path="url(#pd395c7c590)" style="fill: none; stroke-dasharray: 7.4,3.2; stroke-dashoffset: 0; stroke: #ffd700; stroke-width: 2"/>
   </g>
   <g id="line2d_71">
    <path d="M 241.062012 41.553162 
L 250.398191 33.280529 
L 259.676326 24.942965 
L 268.777442 16.412856 
L 277.574022 7.569574 
L 285.298218 -1 
" clip-path="url(#pd395c7c590)" style="fill: none; stroke-dasharray: 7.4,3.2; stroke-dashoffset: 0; stroke: #ffd700; stroke-width: 2"/>
   </g>
   <g id="line2d_72">
    <path d="M 241.062012 41.553162 
L 250.398191 33.280529 
L 259.791844 25.073333 
L 269.355335 17.065045 
L 279.19307 9.39677 
L 289.395506 2.221804 
" clip-path="url(#pd395c7c590)" style="fill: none; stroke-dasharray: 7.4,3.2; stroke-dashoffset: 0; stroke: #ffd700; stroke-width: 2"/>
   </g>
   <g id="line2d_73">
    <path d="M 239.243882 39.668031 
L 246.989275 29.892505 
L 254.098955 19.644467 
L 260.696431 9.05878 
L 266.486652 -1 
" clip-path="url(#pd395c7c590)" style="fill: none; stroke-dasharray: 7.4,3.2; stroke-dashoffset: 0; stroke: #ffd700; stroke-width: 2"/>
   </g>
   <g id="line2d_74">
    <path d="M 239.243882 39.668031 
L 246.989275 29.892505 
L 254.024325 19.593958 
L 260.313841 8.823906 
L 265.154385 -1 
" clip-path="url(#pd395c7c590)" style="fill: none; stroke-dasharray: 7.4,3.2; stroke-dashoffset: 0; stroke: #ffd700; stroke-width: 2"/>
   </g>
   <g id="line2d_75">
    <path d="M 299.672304 18.970928 
L 311.906333 16.545943 
L 324.270325 14.902308 
L 336.700723 13.868551 
L 349.16008 13.270661 
L 361.629464 12.93413 
" clip-path="url(#pd395c7c590)" style="fill: none; stroke: #ffd700; stroke-width: 2; stroke-linecap: square"/>
   </g>
   <g id="line2d_76">
    <path d="M 299.672304 18.970928 
L 311.906333 16.545943 
L 324.281168 14.991769 
L 336.734906 14.316181 
L 349.205248 14.522558 
L 361.629811 15.609868 
" clip-path="url(#pd395c7c590)" style="fill: none; stroke: #ffd700; stroke-width: 2; stroke-linecap: square"/>
   </g>
   <g id="line2d_77">
    <path d="M 298.745147 16.460957 
L 310.358169 11.907015 
L 321.971192 7.353073 
L 333.584214 2.79913 
L 343.272389 -1 
" clip-path="url(#pd395c7c590)" style="fill: none; stroke-dasharray: 7.4,3.2; stroke-dashoffset: 0; stroke: #ffd700; stroke-width: 2"/>
   </g>
   <g id="line2d_78">
    <path d="M 298.745147 16.460957 
L 310.358169 11.907015 
L 321.939043 7.27213 
L 333.41998 2.395539 
L 340.695022 -1 
" clip-path="url(#pd395c7c590)" style="fill: none; stroke-dasharray: 7.4,3.2; stroke-dashoffset: 0; stroke: #ffd700; stroke-width: 2"/>
   </g>
   <g id="line2d_79">
    <path d="M 298.745147 16.460957 
L 310.358169 11.907015 
L 322.002633 7.434292 
L 333.7381 3.206779 
L 345.614032 -0.607105 
L 347.081796 -1 
" clip-path="url(#pd395c7c590)" style="fill: none; stroke-dasharray: 7.4,3.2; stroke-dashoffset: 0; stroke: #ffd700; stroke-width: 2"/>
   </g>
   <g id="line2d_80">
    <path d="M 361.629811 15.609868 
L 373.946443 17.572671 
L 386.114345 20.313471 
L 398.133292 23.649393 
L 410.028427 27.404231 
L 421.842438 31.407722 
" clip-path="url(#pd395c7c590)" style="fill: none; stroke: #ffd700; stroke-width: 2; stroke-linecap: square"/>
   </g>
   <g id="line2d_81">
    <path d="M 361.629811 15.609868 
L 373.946443 17.572671 
L 386.09353 20.401149 
L 398.010307 24.081153 
L 409.637162 28.594273 
L 420.915933 33.917933 
" clip-path="url(#pd395c7c590)" style="fill: none; stroke: #ffd700; stroke-width: 2; stroke-linecap: square"/>
   </g>
   <g id="line2d_82">
    <path d="M 420.915933 33.917933 
L 431.790197 40.025501 
L 442.255454 46.811386 
L 452.374836 54.103955 
L 462.232966 61.74662 
L 471.928865 69.594443 
" clip-path="url(#pd395c7c590)" style="fill: none; stroke: #ffd700; stroke-width: 2; stroke-linecap: square"/>
   </g>
   <g id="line2d_83">
    <path d="M 420.915933 33.917933 
L 431.790197 40.025501 
L 442.205556 46.886426 
L 452.10991 54.466386 
L 461.453712 62.727462 
L 470.190221 71.628329 
" clip-path="url(#pd395c7c590)" style="fill: none; stroke: #ffd700; stroke-width: 2; stroke-linecap: square"/>
   </g>
   <g id="line2d_84">
    <path d="M 421.842438 31.407722 
L 433.62828 35.493624 
L 445.414123 39.579526 
L 457.199965 43.665429 
L 468.985807 47.751331 
L 480.771649 51.837234 
" clip-path="url(#pd395c7c590)" style="fill: none; stroke: #ffd700; stroke-width: 2; stroke-linecap: square"/>
   </g>
   <g id="line2d_85">
    <path d="M 421.842438 31.407722 
L 433.62828 35.493624 
L 445.442291 39.497114 
L 457.337427 43.251952 
L 469.356373 46.587875 
L 481.524276 49.328674 
" clip-path="url(#pd395c7c590)" style="fill: none; stroke: #ffd700; stroke-width: 2; stroke-linecap: square"/>
   </g>
   <g id="line2d_86">
    <path d="M 421.842438 31.407722 
L 433.62828 35.493624 
L 445.385236 39.66169 
L 457.052001 44.075265 
L 468.556716 48.894498 
L 479.810061 54.27335 
" clip-path="url(#pd395c7c590)" style="fill: none; stroke: #ffd700; stroke-width: 2; stroke-linecap: square"/>
   </g>
   <g id="line2d_87">
    <path d="M 361.629464 12.93413 
L 374.103464 12.68465 
L 386.577464 12.43517 
L 399.051464 12.18569 
L 411.525464 11.93621 
L 423.999464 11.68673 
" clip-path="url(#pd395c7c590)" style="fill: none; stroke: #ffd700; stroke-width: 2; stroke-linecap: square"/>
   </g>
   <g id="line2d_88">
    <path d="M 361.629464 12.93413 
L 374.103464 12.68465 
L 386.575342 12.348085 
L 399.037193 11.750109 
L 411.47008 10.716178 
L 423.836549 9.072248 
" clip-path="url(#pd395c7c590)" style="fill: none; stroke: #ffd700; stroke-width: 2; stroke-linecap: square"/>
   </g>
   <g id="line2d_89">
    <path d="M 361.629464 12.93413 
L 374.103464 12.68465 
L 386.578826 12.52227 
L 399.054621 12.621494 
L 411.518906 13.157481 
L 423.941216 14.305636 
" clip-path="url(#pd395c7c590)" style="fill: none; stroke: #ffd700; stroke-width: 2; stroke-linecap: square"/>
   </g>
   <g id="line2d_90">
    <path d="M 423.941216 14.305636 
L 436.262433 16.23945 
L 448.436751 18.951608 
L 460.463515 22.259239 
L 472.367453 25.986074 
L 484.190852 29.961753 
" clip-path="url(#pd395c7c590)" style="fill: none; stroke: #ffd700; stroke-width: 2; stroke-linecap: square"/>
   </g>
   <g id="line2d_91">
    <path d="M 423.941216 14.305636 
L 436.262433 16.23945 
L 448.416142 19.039336 
L 460.341547 22.691286 
L 471.97899 27.177033 
L 483.270256 32.474137 
" clip-path="url(#pd395c7c590)" style="fill: none; stroke: #ffd700; stroke-width: 2; stroke-linecap: square"/>
   </g>
   <g id="line2d_92">
    <path d="M 423.999464 11.68673 
L 436.473464 11.43725 
L 448.947464 11.18777 
L 461.421464 10.93829 
L 473.895464 10.68881 
L 486.369464 10.43933 
" clip-path="url(#pd395c7c590)" style="fill: none; stroke: #ffd700; stroke-width: 2; stroke-linecap: square"/>
   </g>
   <g id="line2d_93">
    <path d="M 423.999464 11.68673 
L 436.473464 11.43725 
L 448.945342 11.100685 
L 461.407193 10.502709 
L 473.84008 9.468778 
L 486.206549 7.824848 
" clip-path="url(#pd395c7c590)" style="fill: none; stroke: #ffd700; stroke-width: 2; stroke-linecap: square"/>
   </g>
   <g id="line2d_94">
    <path d="M 423.999464 11.68673 
L 436.473464 11.43725 
L 448.948826 11.27487 
L 461.424621 11.374094 
L 473.888906 11.910081 
L 486.311216 13.058236 
" clip-path="url(#pd395c7c590)" style="fill: none; stroke: #ffd700; stroke-width: 2; stroke-linecap: square"/>
   </g>
   <g id="line2d_95">
    <path d="M 470.190221 71.628329 
L 478.275732 81.124461 
L 485.742599 91.115243 
L 492.709496 101.461537 
L 499.310047 112.04576 
L 505.687346 122.766247 
" clip-path="url(#pd395c7c590)" style="fill: none; stroke: #ffd700; stroke-width: 2; stroke-linecap: square"/>
   </g>
   <g id="line2d_96">
    <path d="M 470.190221 71.628329 
L 478.275732 81.124461 
L 485.669798 91.168354 
L 492.335431 101.709765 
L 498.239287 112.695961 
L 503.351833 124.071984 
" clip-path="url(#pd395c7c590)" style="fill: none; stroke: #ffd700; stroke-width: 2; stroke-linecap: square"/>
   </g>
   <g id="line2d_97">
    <path d="M 505.687346 122.766247 
L 511.989679 133.531064 
L 518.292011 144.295881 
L 524.594343 155.060698 
L 530.896675 165.825515 
L 537.199008 176.590332 
" clip-path="url(#pd395c7c590)" style="fill: none; stroke: #ffd700; stroke-width: 2; stroke-linecap: square"/>
   </g>
   <g id="line2d_98">
    <path d="M 505.687346 122.766247 
L 511.989679 133.531064 
L 518.366978 144.251551 
L 524.967529 154.835774 
L 531.934426 165.182068 
L 539.401293 175.17285 
" clip-path="url(#pd395c7c590)" style="fill: none; stroke: #ffd700; stroke-width: 2; stroke-linecap: square"/>
   </g>
   <g id="line2d_99">
    <path d="M 505.687346 122.766247 
L 511.989679 133.531064 
L 518.21666 144.339555 
L 524.215541 155.27603 
L 529.827629 166.415506 
L 534.884982 177.816954 
" clip-path="url(#pd395c7c590)" style="fill: none; stroke: #ffd700; stroke-width: 2; stroke-linecap: square"/>
   </g>
   <g id="line2d_100">
    <path d="M 539.401293 175.17285 
L 547.486804 184.668982 
L 556.159273 193.633251 
L 565.262421 202.160627 
L 574.658865 210.36428 
L 584.225424 218.369262 
" clip-path="url(#pd395c7c590)" style="fill: none; stroke: #ffd700; stroke-width: 2; stroke-linecap: square"/>
   </g>
   <g id="line2d_101">
    <path d="M 539.401293 175.17285 
L 547.486804 184.668982 
L 556.223313 193.569849 
L 565.567115 201.830925 
L 575.471468 209.410885 
L 585.886828 216.27181 
" clip-path="url(#pd395c7c590)" style="fill: none; stroke: #ffd700; stroke-width: 2; stroke-linecap: square"/>
   </g>
   <g id="line2d_102">
    <path d="M 585.886828 216.27181 
L 596.761092 222.379378 
L 608.001749 227.784697 
L 619.495091 232.63099 
L 631.151438 237.072008 
L 642.898552 241.267728 
" clip-path="url(#pd395c7c590)" style="fill: none; stroke: #ffd700; stroke-width: 2; stroke-linecap: square"/>
   </g>
   <g id="line2d_103">
    <path d="M 585.886828 216.27181 
L 596.761092 222.379378 
L 608.039863 227.703038 
L 619.666718 232.216158 
L 631.583495 235.896162 
L 643.730582 238.72464 
" clip-path="url(#pd395c7c590)" style="fill: none; stroke: #ffd700; stroke-width: 2; stroke-linecap: square"/>
   </g>
   <g id="line2d_104">
    <path d="M 643.730582 238.72464 
L 656.047214 240.687443 
L 668.464308 241.864558 
L 680.924807 242.42973 
L 693.39784 242.558252 
L 705.871055 242.425223 
" clip-path="url(#pd395c7c590)" style="fill: none; stroke: #ffd700; stroke-width: 2; stroke-linecap: square"/>
   </g>
   <g id="line2d_105">
    <path d="M 643.730582 238.72464 
L 656.047214 240.687443 
L 668.471777 241.774753 
L 680.942119 241.98113 
L 693.395857 241.305542 
L 705.770692 239.751368 
" clip-path="url(#pd395c7c590)" style="fill: none; stroke: #ffd700; stroke-width: 2; stroke-linecap: square"/>
   </g>
   <g id="line2d_106">
    <path d="M 705.770692 239.751368 
L 718.004721 237.326383 
L 730.060844 234.129552 
L 741.945717 230.343625 
L 753.691101 226.14374 
L 765.346057 221.698432 
" clip-path="url(#pd395c7c590)" style="fill: none; stroke: #ffd700; stroke-width: 2; stroke-linecap: square"/>
   </g>
   <g id="line2d_107">
    <path d="M 705.770692 239.751368 
L 718.004721 237.326383 
L 730.036743 234.042719 
L 741.80657 229.9168 
L 753.255322 224.969268 
L 764.325729 219.224871 
" clip-path="url(#pd395c7c590)" style="fill: none; stroke: #ffd700; stroke-width: 2; stroke-linecap: square"/>
   </g>
   <g id="line2d_108">
    <path d="M 764.325729 219.224871 
L 774.962412 212.712345 
L 785.164848 205.537379 
L 795.002583 197.869105 
L 804.566074 189.860816 
L 813.959727 181.65362 
" clip-path="url(#pd395c7c590)" style="fill: none; stroke: #ffd700; stroke-width: 2; stroke-linecap: square"/>
   </g>
   <g id="line2d_109">
    <path d="M 764.325729 219.224871 
L 774.962412 212.712345 
L 785.164848 205.537379 
L 795.002583 197.869105 
L 804.566074 189.860816 
L 813.959727 181.65362 
" clip-path="url(#pd395c7c590)" style="fill: none; stroke: #008000; stroke-width: 3; stroke-linecap: square"/>
   </g>
   <g id="line2d_110">
    <path d="M 23.985 144.875954 
" clip-path="url(#pd395c7c590)" style="fill: none; stroke: #008000; stroke-width: 3; stroke-linecap: square"/>
   </g>
   <g id="line2d_111">
    <path d="M 23.985 144.875954 
L 36.459 144.626474 
L 48.930878 144.289909 
L 61.392729 143.691933 
L 73.825616 142.658002 
L 86.192085 141.014071 
" clip-path="url(#pd395c7c590)" style="fill: none; stroke: #008000; stroke-width: 3; stroke-linecap: square"/>
   </g>
   <g id="line2d_112">
    <path d="M 86.192085 141.014071 
L 98.426113 138.589087 
L 110.458136 135.305422 
L 122.227962 131.179504 
L 133.676714 126.231971 
L 144.747122 120.487574 
" clip-path="url(#pd395c7c590)" style="fill: none; stroke: #008000; stroke-width: 3; stroke-linecap: square"/>
   </g>
   <g id="line2d_113">
    <path d="M 144.747122 120.487574 
L 155.383804 113.975049 
L 165.58624 106.800082 
L 175.423975 99.131808 
L 184.987466 91.123519 
L 194.381119 82.916323 
" clip-path="url(#pd395c7c590)" style="fill: none; stroke: #008000; stroke-width: 3; stroke-linecap: square"/>
   </g>
   <g id="line2d_114">
    <path d="M 194.381119 82.916323 
L 203.717298 74.643691 
L 213.110951 66.436495 
L 222.674442 58.428206 
L 232.512177 50.759932 
L 242.714613 43.584966 
" clip-path="url(#pd395c7c590)" style="fill: none; stroke: #008000; stroke-width: 3; stroke-linecap: square"/>
   </g>
   <g id="line2d_115">
    <path d="M 242.714613 43.584966 
L 253.351296 37.07244 
L 264.421703 31.328043 
L 275.870455 26.380511 
L 287.640282 22.254592 
L 299.672304 18.970928 
" clip-path="url(#pd395c7c590)" style="fill: none; stroke: #008000; stroke-width: 3; stroke-linecap: square"/>
   </g>
   <g id="line2d_116">
    <path d="M 299.672304 18.970928 
L 311.906333 16.545943 
L 324.281168 14.991769 
L 336.734906 14.316181 
L 349.205248 14.522558 
L 361.629811 15.609868 
" clip-path="url(#pd395c7c590)" style="fill: none; stroke: #008000; stroke-width: 3; stroke-linecap: square"/>
   </g>
   <g id="line2d_117">
    <path d="M 361.629811 15.609868 
L 373.946443 17.572671 
L 386.09353 20.401149 
L 398.010307 24.081153 
L 409.637162 28.594273 
L 420.915933 33.917933 
" clip-path="url(#pd395c7c590)" style="fill: none; stroke: #008000; stroke-width: 3; stroke-linecap: square"/>
   </g>
   <g id="line2d_118">
    <path d="M 420.915933 33.917933 
L 431.790197 40.025501 
L 442.205556 46.886426 
L 452.10991 54.466386 
L 461.453712 62.727462 
L 470.190221 71.628329 
" clip-path="url(#pd395c7c590)" style="fill: none; stroke: #008000; stroke-width: 3; stroke-linecap: square"/>
   </g>
   <g id="line2d_119">
    <path d="M 470.190221 71.628329 
L 478.275732 81.124461 
L 485.742599 91.115243 
L 492.709496 101.461537 
L 499.310047 112.04576 
L 505.687346 122.766247 
" clip-path="url(#pd395c7c590)" style="fill: none; stroke: #008000; stroke-width: 3; stroke-linecap: square"/>
   </g>
   <g id="line2d_120">
    <path d="M 505.687346 122.766247 
L 511.989679 133.531064 
L 518.366978 144.251551 
L 524.967529 154.835774 
L 531.934426 165.182068 
L 539.401293 175.17285 
" clip-path="url(#pd395c7c590)" style="fill: none; stroke: #008000; stroke-width: 3; stroke-linecap: square"/>
   </g>
   <g id="line2d_121">
    <path d="M 539.401293 175.17285 
L 547.486804 184.668982 
L 556.223313 193.569849 
L 565.567115 201.830925 
L 575.471468 209.410885 
L 585.886828 216.27181 
" clip-path="url(#pd395c7c590)" style="fill: none; stroke: #008000; stroke-width: 3; stroke-linecap: square"/>
   </g>
   <g id="line2d_122">
    <path d="M 585.886828 216.27181 
L 596.761092 222.379378 
L 608.039863 227.703038 
L 619.666718 232.216158 
L 631.583495 235.896162 
L 643.730582 238.72464 
" clip-path="url(#pd395c7c590)" style="fill: none; stroke: #008000; stroke-width: 3; stroke-linecap: square"/>
   </g>
   <g id="line2d_123">
    <path d="M 643.730582 238.72464 
L 656.047214 240.687443 
L 668.471777 241.774753 
L 680.942119 241.98113 
L 693.395857 241.305542 
L 705.770692 239.751368 
" clip-path="url(#pd395c7c590)" style="fill: none; stroke: #008000; stroke-width: 3; stroke-linecap: square"/>
   </g>
   <g id="line2d_124">
    <path d="M 705.770692 239.751368 
L 718.004721 237.326383 
L 730.036743 234.042719 
L 741.80657 229.9168 
L 753.255322 224.969268 
L 764.325729 219.224871 
" clip-path="url(#pd395c7c590)" style="fill: none; stroke: #008000; stroke-width: 3; stroke-linecap: square"/>
   </g>
   <g id="line2d_125">
    <path d="M 764.325729 219.224871 
L 774.962412 212.712345 
L 785.164848 205.537379 
L 795.002583 197.869105 
L 804.566074 189.860816 
L 813.959727 181.65362 
" clip-path="url(#pd395c7c590)" style="fill: none; stroke: #008000; stroke-width: 3; stroke-linecap: square"/>
   </g>
   <g id="line2d_126">
    <path d="M 23.985 144.875954 
" clip-path="url(#pd395c7c590)" style="fill: none; stroke: #ffd700; stroke-width: 1.5; stroke-linecap: square"/>
    <defs>
     <path id="m59e01c0f48" d="M 0 4 
C 1.060812 4 2.078319 3.578535 2.828427 2.828427 
C 3.578535 2.078319 4 1.060812 4 0 
C 4 -1.060812 3.578535 -2.078319 2.828427 -2.828427 
C 2.078319 -3.578535 1.060812 -4 0 -4 
C -1.060812 -4 -2.078319 -3.578535 -2.828427 -2.828427 
C -3.578535 -2.078319 -4 -1.060812 -4 0 
C -4 1.060812 -3.578535 2.078319 -2.828427 2.828427 
C -2.078319 3.578535 -1.060812 4 0 4 
z
" style="stroke: #ffd700"/>
    </defs>
    <g clip-path="url(#pd395c7c590)">
     <use xlink:href="#m59e01c0f48" x="23.985" y="144.875954" style="fill: #ffd700; stroke: #ffd700"/>
    </g>
   </g>
   <g id="line2d_127">
    <path d="M 86.355 143.628554 
" clip-path="url(#pd395c7c590)" style="fill: none; stroke: #ffd700; stroke-width: 1.5; stroke-linecap: square"/>
    <g clip-path="url(#pd395c7c590)">
     <use xlink:href="#m59e01c0f48" x="86.355" y="143.628554" style="fill: #ffd700; stroke: #ffd700"/>
    </g>
   </g>
   <g id="line2d_128">
    <path d="M 86.192085 141.014071 
" clip-path="url(#pd395c7c590)" style="fill: none; stroke: #ffd700; stroke-width: 1.5; stroke-linecap: square"/>
    <g clip-path="url(#pd395c7c590)">
     <use xlink:href="#m59e01c0f48" x="86.192085" y="141.014071" style="fill: #ffd700; stroke: #ffd700"/>
    </g>
   </g>
   <g id="line2d_129">
    <path d="M 86.296752 146.24746 
" clip-path="url(#pd395c7c590)" style="fill: none; stroke: #ffd700; stroke-width: 1.5; stroke-linecap: square"/>
    <g clip-path="url(#pd395c7c590)">
     <use xlink:href="#m59e01c0f48" x="86.296752" y="146.24746" style="fill: #ffd700; stroke: #ffd700"/>
    </g>
   </g>
   <g id="line2d_130">
    <path d="M 146.546388 161.903576 
" clip-path="url(#pd395c7c590)" style="fill: none; stroke: #ffd700; stroke-width: 1.5; stroke-linecap: square"/>
    <g clip-path="url(#pd395c7c590)">
     <use xlink:href="#m59e01c0f48" x="146.546388" y="161.903576" style="fill: #ffd700; stroke: #ffd700"/>
    </g>
   </g>
   <g id="line2d_131">
    <path d="M 145.625793 164.415961 
" clip-path="url(#pd395c7c590)" style="fill: none; stroke: #ffd700; stroke-width: 1.5; stroke-linecap: square"/>
    <g clip-path="url(#pd395c7c590)">
     <use xlink:href="#m59e01c0f48" x="145.625793" y="164.415961" style="fill: #ffd700; stroke: #ffd700"/>
    </g>
   </g>
   <g id="line2d_132">
    <path d="M 196.722538 199.972328 
" clip-path="url(#pd395c7c590)" style="fill: none; stroke: #ffd700; stroke-width: 1.5; stroke-linecap: square"/>
    <g clip-path="url(#pd395c7c590)">
     <use xlink:href="#m59e01c0f48" x="196.722538" y="199.972328" style="fill: #ffd700; stroke: #ffd700"/>
    </g>
   </g>
   <g id="line2d_133">
    <path d="M 194.988685 202.010299 
" clip-path="url(#pd395c7c590)" style="fill: none; stroke: #ffd700; stroke-width: 1.5; stroke-linecap: square"/>
    <g clip-path="url(#pd395c7c590)">
     <use xlink:href="#m59e01c0f48" x="194.988685" y="202.010299" style="fill: #ffd700; stroke: #ffd700"/>
    </g>
   </g>
   <g id="line2d_134">
    <path d="M 245.020176 239.435666 
" clip-path="url(#pd395c7c590)" style="fill: none; stroke: #ffd700; stroke-width: 1.5; stroke-linecap: square"/>
    <g clip-path="url(#pd395c7c590)">
     <use xlink:href="#m59e01c0f48" x="245.020176" y="239.435666" style="fill: #ffd700; stroke: #ffd700"/>
    </g>
   </g>
   <g id="line2d_135">
    <path d="M 246.590204 237.339401 
" clip-path="url(#pd395c7c590)" style="fill: none; stroke: #ffd700; stroke-width: 1.5; stroke-linecap: square"/>
    <g clip-path="url(#pd395c7c590)">
     <use xlink:href="#m59e01c0f48" x="246.590204" y="237.339401" style="fill: #ffd700; stroke: #ffd700"/>
    </g>
   </g>
   <g id="line2d_136">
    <path d="M 243.278885 241.391995 
" clip-path="url(#pd395c7c590)" style="fill: none; stroke: #ffd700; stroke-width: 1.5; stroke-linecap: square"/>
    <g clip-path="url(#pd395c7c590)">
     <use xlink:href="#m59e01c0f48" x="243.278885" y="241.391995" style="fill: #ffd700; stroke: #ffd700"/>
    </g>
   </g>
   <g id="line2d_137">
    <path d="M 230.606051 253.064544 
" clip-path="url(#pd395c7c590)" style="fill: none; stroke: #ffd700; stroke-width: 1.5; stroke-linecap: square"/>
    <g clip-path="url(#pd395c7c590)">
     <use xlink:href="#m59e01c0f48" x="230.606051" y="253.064544" style="fill: #ffd700; stroke: #ffd700"/>
    </g>
   </g>
   <g id="line2d_138">
    <path d="M 228.273616 254.375773 
" clip-path="url(#pd395c7c590)" style="fill: none; stroke: #ffd700; stroke-width: 1.5; stroke-linecap: square"/>
    <g clip-path="url(#pd395c7c590)">
     <use xlink:href="#m59e01c0f48" x="228.273616" y="254.375773" style="fill: #ffd700; stroke: #ffd700"/>
    </g>
   </g>
   <g id="line2d_139">
    <path d="M 205.523511 182.194359 
" clip-path="url(#pd395c7c590)" style="fill: none; stroke: #ffd700; stroke-width: 1.5; stroke-linecap: square"/>
    <g clip-path="url(#pd395c7c590)">
     <use xlink:href="#m59e01c0f48" x="205.523511" y="182.194359" style="fill: #ffd700; stroke: #ffd700"/>
    </g>
   </g>
   <g id="line2d_140">
    <path d="M 206.270232 179.684035 
" clip-path="url(#pd395c7c590)" style="fill: none; stroke: #ffd700; stroke-width: 1.5; stroke-linecap: square"/>
    <g clip-path="url(#pd395c7c590)">
     <use xlink:href="#m59e01c0f48" x="206.270232" y="179.684035" style="fill: #ffd700; stroke: #ffd700"/>
    </g>
   </g>
   <g id="line2d_141">
    <path d="M 204.567658 184.632732 
" clip-path="url(#pd395c7c590)" style="fill: none; stroke: #ffd700; stroke-width: 1.5; stroke-linecap: square"/>
    <g clip-path="url(#pd395c7c590)">
     <use xlink:href="#m59e01c0f48" x="204.567658" y="184.632732" style="fill: #ffd700; stroke: #ffd700"/>
    </g>
   </g>
   <g id="line2d_142">
    <path d="M 268.419241 183.238378 
" clip-path="url(#pd395c7c590)" style="fill: none; stroke: #ffd700; stroke-width: 1.5; stroke-linecap: square"/>
    <g clip-path="url(#pd395c7c590)">
     <use xlink:href="#m59e01c0f48" x="268.419241" y="183.238378" style="fill: #ffd700; stroke: #ffd700"/>
    </g>
   </g>
   <g id="line2d_143">
    <path d="M 268.312587 180.564767 
" clip-path="url(#pd395c7c590)" style="fill: none; stroke: #ffd700; stroke-width: 1.5; stroke-linecap: square"/>
    <g clip-path="url(#pd395c7c590)">
     <use xlink:href="#m59e01c0f48" x="268.312587" y="180.564767" style="fill: #ffd700; stroke: #ffd700"/>
    </g>
   </g>
   <g id="line2d_144">
    <path d="M 264.500634 202.485142 
" clip-path="url(#pd395c7c590)" style="fill: none; stroke: #ffd700; stroke-width: 1.5; stroke-linecap: square"/>
    <g clip-path="url(#pd395c7c590)">
     <use xlink:href="#m59e01c0f48" x="264.500634" y="202.485142" style="fill: #ffd700; stroke: #ffd700"/>
    </g>
   </g>
   <g id="line2d_145">
    <path d="M 265.247355 199.974818 
" clip-path="url(#pd395c7c590)" style="fill: none; stroke: #ffd700; stroke-width: 1.5; stroke-linecap: square"/>
    <g clip-path="url(#pd395c7c590)">
     <use xlink:href="#m59e01c0f48" x="265.247355" y="199.974818" style="fill: #ffd700; stroke: #ffd700"/>
    </g>
   </g>
   <g id="line2d_146">
    <path d="M 263.544781 204.923514 
" clip-path="url(#pd395c7c590)" style="fill: none; stroke: #ffd700; stroke-width: 1.5; stroke-linecap: square"/>
    <g clip-path="url(#pd395c7c590)">
     <use xlink:href="#m59e01c0f48" x="263.544781" y="204.923514" style="fill: #ffd700; stroke: #ffd700"/>
    </g>
   </g>
   <g id="line2d_147">
    <path d="M 255.747934 220.068759 
" clip-path="url(#pd395c7c590)" style="fill: none; stroke: #ffd700; stroke-width: 1.5; stroke-linecap: square"/>
    <g clip-path="url(#pd395c7c590)">
     <use xlink:href="#m59e01c0f48" x="255.747934" y="220.068759" style="fill: #ffd700; stroke: #ffd700"/>
    </g>
   </g>
   <g id="line2d_148">
    <path d="M 254.018882 222.110805 
" clip-path="url(#pd395c7c590)" style="fill: none; stroke: #ffd700; stroke-width: 1.5; stroke-linecap: square"/>
    <g clip-path="url(#pd395c7c590)">
     <use xlink:href="#m59e01c0f48" x="254.018882" y="222.110805" style="fill: #ffd700; stroke: #ffd700"/>
    </g>
   </g>
   <g id="line2d_149">
    <path d="M 148.725 142.381154 
" clip-path="url(#pd395c7c590)" style="fill: none; stroke: #ffd700; stroke-width: 1.5; stroke-linecap: square"/>
    <g clip-path="url(#pd395c7c590)">
     <use xlink:href="#m59e01c0f48" x="148.725" y="142.381154" style="fill: #ffd700; stroke: #ffd700"/>
    </g>
   </g>
   <g id="line2d_150">
    <path d="M 148.562085 139.766671 
" clip-path="url(#pd395c7c590)" style="fill: none; stroke: #ffd700; stroke-width: 1.5; stroke-linecap: square"/>
    <g clip-path="url(#pd395c7c590)">
     <use xlink:href="#m59e01c0f48" x="148.562085" y="139.766671" style="fill: #ffd700; stroke: #ffd700"/>
    </g>
   </g>
   <g id="line2d_151">
    <path d="M 148.666752 145.00006 
" clip-path="url(#pd395c7c590)" style="fill: none; stroke: #ffd700; stroke-width: 1.5; stroke-linecap: square"/>
    <g clip-path="url(#pd395c7c590)">
     <use xlink:href="#m59e01c0f48" x="148.666752" y="145.00006" style="fill: #ffd700; stroke: #ffd700"/>
    </g>
   </g>
   <g id="line2d_152">
    <path d="M 208.916388 160.656176 
" clip-path="url(#pd395c7c590)" style="fill: none; stroke: #ffd700; stroke-width: 1.5; stroke-linecap: square"/>
    <g clip-path="url(#pd395c7c590)">
     <use xlink:href="#m59e01c0f48" x="208.916388" y="160.656176" style="fill: #ffd700; stroke: #ffd700"/>
    </g>
   </g>
   <g id="line2d_153">
    <path d="M 207.995793 163.168561 
" clip-path="url(#pd395c7c590)" style="fill: none; stroke: #ffd700; stroke-width: 1.5; stroke-linecap: square"/>
    <g clip-path="url(#pd395c7c590)">
     <use xlink:href="#m59e01c0f48" x="207.995793" y="163.168561" style="fill: #ffd700; stroke: #ffd700"/>
    </g>
   </g>
   <g id="line2d_154">
    <path d="M 259.092538 198.724928 
" clip-path="url(#pd395c7c590)" style="fill: none; stroke: #ffd700; stroke-width: 1.5; stroke-linecap: square"/>
    <g clip-path="url(#pd395c7c590)">
     <use xlink:href="#m59e01c0f48" x="259.092538" y="198.724928" style="fill: #ffd700; stroke: #ffd700"/>
    </g>
   </g>
   <g id="line2d_155">
    <path d="M 257.358685 200.762899 
" clip-path="url(#pd395c7c590)" style="fill: none; stroke: #ffd700; stroke-width: 1.5; stroke-linecap: square"/>
    <g clip-path="url(#pd395c7c590)">
     <use xlink:href="#m59e01c0f48" x="257.358685" y="200.762899" style="fill: #ffd700; stroke: #ffd700"/>
    </g>
   </g>
   <g id="line2d_156">
    <path d="M 267.893511 180.946959 
" clip-path="url(#pd395c7c590)" style="fill: none; stroke: #ffd700; stroke-width: 1.5; stroke-linecap: square"/>
    <g clip-path="url(#pd395c7c590)">
     <use xlink:href="#m59e01c0f48" x="267.893511" y="180.946959" style="fill: #ffd700; stroke: #ffd700"/>
    </g>
   </g>
   <g id="line2d_157">
    <path d="M 268.640232 178.436635 
" clip-path="url(#pd395c7c590)" style="fill: none; stroke: #ffd700; stroke-width: 1.5; stroke-linecap: square"/>
    <g clip-path="url(#pd395c7c590)">
     <use xlink:href="#m59e01c0f48" x="268.640232" y="178.436635" style="fill: #ffd700; stroke: #ffd700"/>
    </g>
   </g>
   <g id="line2d_158">
    <path d="M 266.937658 183.385332 
" clip-path="url(#pd395c7c590)" style="fill: none; stroke: #ffd700; stroke-width: 1.5; stroke-linecap: square"/>
    <g clip-path="url(#pd395c7c590)">
     <use xlink:href="#m59e01c0f48" x="266.937658" y="183.385332" style="fill: #ffd700; stroke: #ffd700"/>
    </g>
   </g>
   <g id="line2d_159">
    <path d="M 211.095 141.133754 
" clip-path="url(#pd395c7c590)" style="fill: none; stroke: #ffd700; stroke-width: 1.5; stroke-linecap: square"/>
    <g clip-path="url(#pd395c7c590)">
     <use xlink:href="#m59e01c0f48" x="211.095" y="141.133754" style="fill: #ffd700; stroke: #ffd700"/>
    </g>
   </g>
   <g id="line2d_160">
    <path d="M 210.932085 138.519271 
" clip-path="url(#pd395c7c590)" style="fill: none; stroke: #ffd700; stroke-width: 1.5; stroke-linecap: square"/>
    <g clip-path="url(#pd395c7c590)">
     <use xlink:href="#m59e01c0f48" x="210.932085" y="138.519271" style="fill: #ffd700; stroke: #ffd700"/>
    </g>
   </g>
   <g id="line2d_161">
    <path d="M 211.036752 143.75266 
" clip-path="url(#pd395c7c590)" style="fill: none; stroke: #ffd700; stroke-width: 1.5; stroke-linecap: square"/>
    <g clip-path="url(#pd395c7c590)">
     <use xlink:href="#m59e01c0f48" x="211.036752" y="143.75266" style="fill: #ffd700; stroke: #ffd700"/>
    </g>
   </g>
   <g id="line2d_162">
    <path d="M 271.286388 159.408776 
" clip-path="url(#pd395c7c590)" style="fill: none; stroke: #ffd700; stroke-width: 1.5; stroke-linecap: square"/>
    <g clip-path="url(#pd395c7c590)">
     <use xlink:href="#m59e01c0f48" x="271.286388" y="159.408776" style="fill: #ffd700; stroke: #ffd700"/>
    </g>
   </g>
   <g id="line2d_163">
    <path d="M 270.365793 161.921161 
" clip-path="url(#pd395c7c590)" style="fill: none; stroke: #ffd700; stroke-width: 1.5; stroke-linecap: square"/>
    <g clip-path="url(#pd395c7c590)">
     <use xlink:href="#m59e01c0f48" x="270.365793" y="161.921161" style="fill: #ffd700; stroke: #ffd700"/>
    </g>
   </g>
   <g id="line2d_164">
    <path d="M 273.465 139.886354 
" clip-path="url(#pd395c7c590)" style="fill: none; stroke: #ffd700; stroke-width: 1.5; stroke-linecap: square"/>
    <g clip-path="url(#pd395c7c590)">
     <use xlink:href="#m59e01c0f48" x="273.465" y="139.886354" style="fill: #ffd700; stroke: #ffd700"/>
    </g>
   </g>
   <g id="line2d_165">
    <path d="M 273.302085 137.271871 
" clip-path="url(#pd395c7c590)" style="fill: none; stroke: #ffd700; stroke-width: 1.5; stroke-linecap: square"/>
    <g clip-path="url(#pd395c7c590)">
     <use xlink:href="#m59e01c0f48" x="273.302085" y="137.271871" style="fill: #ffd700; stroke: #ffd700"/>
    </g>
   </g>
   <g id="line2d_166">
    <path d="M 273.406752 142.50526 
" clip-path="url(#pd395c7c590)" style="fill: none; stroke: #ffd700; stroke-width: 1.5; stroke-linecap: square"/>
    <g clip-path="url(#pd395c7c590)">
     <use xlink:href="#m59e01c0f48" x="273.406752" y="142.50526" style="fill: #ffd700; stroke: #ffd700"/>
    </g>
   </g>
   <g id="line2d_167">
    <path d="M 270.50745 120.466335 
" clip-path="url(#pd395c7c590)" style="fill: none; stroke: #ffd700; stroke-width: 1.5; stroke-linecap: square"/>
    <g clip-path="url(#pd395c7c590)">
     <use xlink:href="#m59e01c0f48" x="270.50745" y="120.466335" style="fill: #ffd700; stroke: #ffd700"/>
    </g>
   </g>
   <g id="line2d_168">
    <path d="M 269.487122 117.992774 
" clip-path="url(#pd395c7c590)" style="fill: none; stroke: #ffd700; stroke-width: 1.5; stroke-linecap: square"/>
    <g clip-path="url(#pd395c7c590)">
     <use xlink:href="#m59e01c0f48" x="269.487122" y="117.992774" style="fill: #ffd700; stroke: #ffd700"/>
    </g>
   </g>
   <g id="line2d_169">
    <path d="M 208.13745 121.713735 
" clip-path="url(#pd395c7c590)" style="fill: none; stroke: #ffd700; stroke-width: 1.5; stroke-linecap: square"/>
    <g clip-path="url(#pd395c7c590)">
     <use xlink:href="#m59e01c0f48" x="208.13745" y="121.713735" style="fill: #ffd700; stroke: #ffd700"/>
    </g>
   </g>
   <g id="line2d_170">
    <path d="M 207.117122 119.240174 
" clip-path="url(#pd395c7c590)" style="fill: none; stroke: #ffd700; stroke-width: 1.5; stroke-linecap: square"/>
    <g clip-path="url(#pd395c7c590)">
     <use xlink:href="#m59e01c0f48" x="207.117122" y="119.240174" style="fill: #ffd700; stroke: #ffd700"/>
    </g>
   </g>
   <g id="line2d_171">
    <path d="M 266.255982 99.080727 
" clip-path="url(#pd395c7c590)" style="fill: none; stroke: #ffd700; stroke-width: 1.5; stroke-linecap: square"/>
    <g clip-path="url(#pd395c7c590)">
     <use xlink:href="#m59e01c0f48" x="266.255982" y="99.080727" style="fill: #ffd700; stroke: #ffd700"/>
    </g>
   </g>
   <g id="line2d_172">
    <path d="M 265.203385 96.682529 
" clip-path="url(#pd395c7c590)" style="fill: none; stroke: #ffd700; stroke-width: 1.5; stroke-linecap: square"/>
    <g clip-path="url(#pd395c7c590)">
     <use xlink:href="#m59e01c0f48" x="265.203385" y="96.682529" style="fill: #ffd700; stroke: #ffd700"/>
    </g>
   </g>
   <g id="line2d_173">
    <path d="M 267.102492 101.559182 
" clip-path="url(#pd395c7c590)" style="fill: none; stroke: #ffd700; stroke-width: 1.5; stroke-linecap: square"/>
    <g clip-path="url(#pd395c7c590)">
     <use xlink:href="#m59e01c0f48" x="267.102492" y="101.559182" style="fill: #ffd700; stroke: #ffd700"/>
    </g>
   </g>
   <g id="line2d_174">
    <path d="M 256.751119 81.668923 
" clip-path="url(#pd395c7c590)" style="fill: none; stroke: #ffd700; stroke-width: 1.5; stroke-linecap: square"/>
    <g clip-path="url(#pd395c7c590)">
     <use xlink:href="#m59e01c0f48" x="256.751119" y="81.668923" style="fill: #ffd700; stroke: #ffd700"/>
    </g>
   </g>
   <g id="line2d_175">
    <path d="M 254.937156 79.701918 
" clip-path="url(#pd395c7c590)" style="fill: none; stroke: #ffd700; stroke-width: 1.5; stroke-linecap: square"/>
    <g clip-path="url(#pd395c7c590)">
     <use xlink:href="#m59e01c0f48" x="254.937156" y="79.701918" style="fill: #ffd700; stroke: #ffd700"/>
    </g>
   </g>
   <g id="line2d_176">
    <path d="M 145.76745 122.961135 
" clip-path="url(#pd395c7c590)" style="fill: none; stroke: #ffd700; stroke-width: 1.5; stroke-linecap: square"/>
    <g clip-path="url(#pd395c7c590)">
     <use xlink:href="#m59e01c0f48" x="145.76745" y="122.961135" style="fill: #ffd700; stroke: #ffd700"/>
    </g>
   </g>
   <g id="line2d_177">
    <path d="M 144.747122 120.487574 
" clip-path="url(#pd395c7c590)" style="fill: none; stroke: #ffd700; stroke-width: 1.5; stroke-linecap: square"/>
    <g clip-path="url(#pd395c7c590)">
     <use xlink:href="#m59e01c0f48" x="144.747122" y="120.487574" style="fill: #ffd700; stroke: #ffd700"/>
    </g>
   </g>
   <g id="line2d_178">
    <path d="M 203.885982 100.328127 
" clip-path="url(#pd395c7c590)" style="fill: none; stroke: #ffd700; stroke-width: 1.5; stroke-linecap: square"/>
    <g clip-path="url(#pd395c7c590)">
     <use xlink:href="#m59e01c0f48" x="203.885982" y="100.328127" style="fill: #ffd700; stroke: #ffd700"/>
    </g>
   </g>
   <g id="line2d_179">
    <path d="M 202.833385 97.929929 
" clip-path="url(#pd395c7c590)" style="fill: none; stroke: #ffd700; stroke-width: 1.5; stroke-linecap: square"/>
    <g clip-path="url(#pd395c7c590)">
     <use xlink:href="#m59e01c0f48" x="202.833385" y="97.929929" style="fill: #ffd700; stroke: #ffd700"/>
    </g>
   </g>
   <g id="line2d_180">
    <path d="M 204.732492 102.806582 
" clip-path="url(#pd395c7c590)" style="fill: none; stroke: #ffd700; stroke-width: 1.5; stroke-linecap: square"/>
    <g clip-path="url(#pd395c7c590)">
     <use xlink:href="#m59e01c0f48" x="204.732492" y="102.806582" style="fill: #ffd700; stroke: #ffd700"/>
    </g>
   </g>
   <g id="line2d_181">
    <path d="M 266.689653 96.769784 
" clip-path="url(#pd395c7c590)" style="fill: none; stroke: #ffd700; stroke-width: 1.5; stroke-linecap: square"/>
    <g clip-path="url(#pd395c7c590)">
     <use xlink:href="#m59e01c0f48" x="266.689653" y="96.769784" style="fill: #ffd700; stroke: #ffd700"/>
    </g>
   </g>
   <g id="line2d_182">
    <path d="M 266.69 99.445522 
" clip-path="url(#pd395c7c590)" style="fill: none; stroke: #ffd700; stroke-width: 1.5; stroke-linecap: square"/>
    <g clip-path="url(#pd395c7c590)">
     <use xlink:href="#m59e01c0f48" x="266.69" y="99.445522" style="fill: #ffd700; stroke: #ffd700"/>
    </g>
   </g>
   <g id="line2d_183">
    <path d="M 262.004515 77.695119 
" clip-path="url(#pd395c7c590)" style="fill: none; stroke: #ffd700; stroke-width: 1.5; stroke-linecap: square"/>
    <g clip-path="url(#pd395c7c590)">
     <use xlink:href="#m59e01c0f48" x="262.004515" y="77.695119" style="fill: #ffd700; stroke: #ffd700"/>
    </g>
   </g>
   <g id="line2d_184">
    <path d="M 260.951918 75.296921 
" clip-path="url(#pd395c7c590)" style="fill: none; stroke: #ffd700; stroke-width: 1.5; stroke-linecap: square"/>
    <g clip-path="url(#pd395c7c590)">
     <use xlink:href="#m59e01c0f48" x="260.951918" y="75.296921" style="fill: #ffd700; stroke: #ffd700"/>
    </g>
   </g>
   <g id="line2d_185">
    <path d="M 262.851025 80.173574 
" clip-path="url(#pd395c7c590)" style="fill: none; stroke: #ffd700; stroke-width: 1.5; stroke-linecap: square"/>
    <g clip-path="url(#pd395c7c590)">
     <use xlink:href="#m59e01c0f48" x="262.851025" y="80.173574" style="fill: #ffd700; stroke: #ffd700"/>
    </g>
   </g>
   <g id="line2d_186">
    <path d="M 252.555659 60.475581 
" clip-path="url(#pd395c7c590)" style="fill: none; stroke: #ffd700; stroke-width: 1.5; stroke-linecap: square"/>
    <g clip-path="url(#pd395c7c590)">
     <use xlink:href="#m59e01c0f48" x="252.555659" y="60.475581" style="fill: #ffd700; stroke: #ffd700"/>
    </g>
   </g>
   <g id="line2d_187">
    <path d="M 250.746329 58.504312 
" clip-path="url(#pd395c7c590)" style="fill: none; stroke: #ffd700; stroke-width: 1.5; stroke-linecap: square"/>
    <g clip-path="url(#pd395c7c590)">
     <use xlink:href="#m59e01c0f48" x="250.746329" y="58.504312" style="fill: #ffd700; stroke: #ffd700"/>
    </g>
   </g>
   <g id="line2d_188">
    <path d="M 194.381119 82.916323 
" clip-path="url(#pd395c7c590)" style="fill: none; stroke: #ffd700; stroke-width: 1.5; stroke-linecap: square"/>
    <g clip-path="url(#pd395c7c590)">
     <use xlink:href="#m59e01c0f48" x="194.381119" y="82.916323" style="fill: #ffd700; stroke: #ffd700"/>
    </g>
   </g>
   <g id="line2d_189">
    <path d="M 192.567156 80.949318 
" clip-path="url(#pd395c7c590)" style="fill: none; stroke: #ffd700; stroke-width: 1.5; stroke-linecap: square"/>
    <g clip-path="url(#pd395c7c590)">
     <use xlink:href="#m59e01c0f48" x="192.567156" y="80.949318" style="fill: #ffd700; stroke: #ffd700"/>
    </g>
   </g>
   <g id="line2d_190">
    <path d="M 241.062012 41.553162 
" clip-path="url(#pd395c7c590)" style="fill: none; stroke: #ffd700; stroke-width: 1.5; stroke-linecap: square"/>
    <g clip-path="url(#pd395c7c590)">
     <use xlink:href="#m59e01c0f48" x="241.062012" y="41.553162" style="fill: #ffd700; stroke: #ffd700"/>
    </g>
   </g>
   <g id="line2d_191">
    <path d="M 239.243882 39.668031 
" clip-path="url(#pd395c7c590)" style="fill: none; stroke: #ffd700; stroke-width: 1.5; stroke-linecap: square"/>
    <g clip-path="url(#pd395c7c590)">
     <use xlink:href="#m59e01c0f48" x="239.243882" y="39.668031" style="fill: #ffd700; stroke: #ffd700"/>
    </g>
   </g>
   <g id="line2d_192">
    <path d="M 242.714613 43.584966 
" clip-path="url(#pd395c7c590)" style="fill: none; stroke: #ffd700; stroke-width: 1.5; stroke-linecap: square"/>
    <g clip-path="url(#pd395c7c590)">
     <use xlink:href="#m59e01c0f48" x="242.714613" y="43.584966" style="fill: #ffd700; stroke: #ffd700"/>
    </g>
   </g>
   <g id="line2d_193">
    <path d="M 298.745147 16.460957 
" clip-path="url(#pd395c7c590)" style="fill: none; stroke: #ffd700; stroke-width: 1.5; stroke-linecap: square"/>
    <g clip-path="url(#pd395c7c590)">
     <use xlink:href="#m59e01c0f48" x="298.745147" y="16.460957" style="fill: #ffd700; stroke: #ffd700"/>
    </g>
   </g>
   <g id="line2d_194">
    <path d="M 299.672304 18.970928 
" clip-path="url(#pd395c7c590)" style="fill: none; stroke: #ffd700; stroke-width: 1.5; stroke-linecap: square"/>
    <g clip-path="url(#pd395c7c590)">
     <use xlink:href="#m59e01c0f48" x="299.672304" y="18.970928" style="fill: #ffd700; stroke: #ffd700"/>
    </g>
   </g>
   <g id="line2d_195">
    <path d="M 287.742905 0.19 
" clip-path="url(#pd395c7c590)" style="fill: none; stroke: #ffd700; stroke-width: 1.5; stroke-linecap: square"/>
    <g clip-path="url(#pd395c7c590)">
     <use xlink:href="#m59e01c0f48" x="287.742905" y="0.19" style="fill: #ffd700; stroke: #ffd700"/>
    </g>
   </g>
   <g id="line2d_196">
    <path clip-path="url(#pd395c7c590)" style="fill: none; stroke: #ffd700; stroke-width: 1.5; stroke-linecap: square"/>
    <g clip-path="url(#pd395c7c590)"/>
   </g>
   <g id="line2d_197">
    <path d="M 289.395506 2.221804 
" clip-path="url(#pd395c7c590)" style="fill: none; stroke: #ffd700; stroke-width: 1.5; stroke-linecap: square"/>
    <g clip-path="url(#pd395c7c590)">
     <use xlink:href="#m59e01c0f48" x="289.395506" y="2.221804" style="fill: #ffd700; stroke: #ffd700"/>
    </g>
   </g>
   <g id="line2d_198">
    <path clip-path="url(#pd395c7c590)" style="fill: none; stroke: #ffd700; stroke-width: 1.5; stroke-linecap: square"/>
    <g clip-path="url(#pd395c7c590)"/>
   </g>
   <g id="line2d_199">
    <path clip-path="url(#pd395c7c590)" style="fill: none; stroke: #ffd700; stroke-width: 1.5; stroke-linecap: square"/>
    <g clip-path="url(#pd395c7c590)"/>
   </g>
   <g id="line2d_200">
    <path d="M 361.629464 12.93413 
" clip-path="url(#pd395c7c590)" style="fill: none; stroke: #ffd700; stroke-width: 1.5; stroke-linecap: square"/>
    <g clip-path="url(#pd395c7c590)">
     <use xlink:href="#m59e01c0f48" x="361.629464" y="12.93413" style="fill: #ffd700; stroke: #ffd700"/>
    </g>
   </g>
   <g id="line2d_201">
    <path d="M 361.629811 15.609868 
" clip-path="url(#pd395c7c590)" style="fill: none; stroke: #ffd700; stroke-width: 1.5; stroke-linecap: square"/>
    <g clip-path="url(#pd395c7c590)">
     <use xlink:href="#m59e01c0f48" x="361.629811" y="15.609868" style="fill: #ffd700; stroke: #ffd700"/>
    </g>
   </g>
   <g id="line2d_202">
    <path clip-path="url(#pd395c7c590)" style="fill: none; stroke: #ffd700; stroke-width: 1.5; stroke-linecap: square"/>
    <g clip-path="url(#pd395c7c590)"/>
   </g>
   <g id="line2d_203">
    <path clip-path="url(#pd395c7c590)" style="fill: none; stroke: #ffd700; stroke-width: 1.5; stroke-linecap: square"/>
    <g clip-path="url(#pd395c7c590)"/>
   </g>
   <g id="line2d_204">
    <path clip-path="url(#pd395c7c590)" style="fill: none; stroke: #ffd700; stroke-width: 1.5; stroke-linecap: square"/>
    <g clip-path="url(#pd395c7c590)"/>
   </g>
   <g id="line2d_205">
    <path d="M 421.842438 31.407722 
" clip-path="url(#pd395c7c590)" style="fill: none; stroke: #ffd700; stroke-width: 1.5; stroke-linecap: square"/>
    <g clip-path="url(#pd395c7c590)">
     <use xlink:href="#m59e01c0f48" x="421.842438" y="31.407722" style="fill: #ffd700; stroke: #ffd700"/>
    </g>
   </g>
   <g id="line2d_206">
    <path d="M 420.915933 33.917933 
" clip-path="url(#pd395c7c590)" style="fill: none; stroke: #ffd700; stroke-width: 1.5; stroke-linecap: square"/>
    <g clip-path="url(#pd395c7c590)">
     <use xlink:href="#m59e01c0f48" x="420.915933" y="33.917933" style="fill: #ffd700; stroke: #ffd700"/>
    </g>
   </g>
   <g id="line2d_207">
    <path d="M 471.928865 69.594443 
" clip-path="url(#pd395c7c590)" style="fill: none; stroke: #ffd700; stroke-width: 1.5; stroke-linecap: square"/>
    <g clip-path="url(#pd395c7c590)">
     <use xlink:href="#m59e01c0f48" x="471.928865" y="69.594443" style="fill: #ffd700; stroke: #ffd700"/>
    </g>
   </g>
   <g id="line2d_208">
    <path d="M 470.190221 71.628329 
" clip-path="url(#pd395c7c590)" style="fill: none; stroke: #ffd700; stroke-width: 1.5; stroke-linecap: square"/>
    <g clip-path="url(#pd395c7c590)">
     <use xlink:href="#m59e01c0f48" x="470.190221" y="71.628329" style="fill: #ffd700; stroke: #ffd700"/>
    </g>
   </g>
   <g id="line2d_209">
    <path d="M 480.771649 51.837234 
" clip-path="url(#pd395c7c590)" style="fill: none; stroke: #ffd700; stroke-width: 1.5; stroke-linecap: square"/>
    <g clip-path="url(#pd395c7c590)">
     <use xlink:href="#m59e01c0f48" x="480.771649" y="51.837234" style="fill: #ffd700; stroke: #ffd700"/>
    </g>
   </g>
   <g id="line2d_210">
    <path d="M 481.524276 49.328674 
" clip-path="url(#pd395c7c590)" style="fill: none; stroke: #ffd700; stroke-width: 1.5; stroke-linecap: square"/>
    <g clip-path="url(#pd395c7c590)">
     <use xlink:href="#m59e01c0f48" x="481.524276" y="49.328674" style="fill: #ffd700; stroke: #ffd700"/>
    </g>
   </g>
   <g id="line2d_211">
    <path d="M 479.810061 54.27335 
" clip-path="url(#pd395c7c590)" style="fill: none; stroke: #ffd700; stroke-width: 1.5; stroke-linecap: square"/>
    <g clip-path="url(#pd395c7c590)">
     <use xlink:href="#m59e01c0f48" x="479.810061" y="54.27335" style="fill: #ffd700; stroke: #ffd700"/>
    </g>
   </g>
   <g id="line2d_212">
    <path d="M 423.999464 11.68673 
" clip-path="url(#pd395c7c590)" style="fill: none; stroke: #ffd700; stroke-width: 1.5; stroke-linecap: square"/>
    <g clip-path="url(#pd395c7c590)">
     <use xlink:href="#m59e01c0f48" x="423.999464" y="11.68673" style="fill: #ffd700; stroke: #ffd700"/>
    </g>
   </g>
   <g id="line2d_213">
    <path d="M 423.836549 9.072248 
" clip-path="url(#pd395c7c590)" style="fill: none; stroke: #ffd700; stroke-width: 1.5; stroke-linecap: square"/>
    <g clip-path="url(#pd395c7c590)">
     <use xlink:href="#m59e01c0f48" x="423.836549" y="9.072248" style="fill: #ffd700; stroke: #ffd700"/>
    </g>
   </g>
   <g id="line2d_214">
    <path d="M 423.941216 14.305636 
" clip-path="url(#pd395c7c590)" style="fill: none; stroke: #ffd700; stroke-width: 1.5; stroke-linecap: square"/>
    <g clip-path="url(#pd395c7c590)">
     <use xlink:href="#m59e01c0f48" x="423.941216" y="14.305636" style="fill: #ffd700; stroke: #ffd700"/>
    </g>
   </g>
   <g id="line2d_215">
    <path d="M 484.190852 29.961753 
" clip-path="url(#pd395c7c590)" style="fill: none; stroke: #ffd700; stroke-width: 1.5; stroke-linecap: square"/>
    <g clip-path="url(#pd395c7c590)">
     <use xlink:href="#m59e01c0f48" x="484.190852" y="29.961753" style="fill: #ffd700; stroke: #ffd700"/>
    </g>
   </g>
   <g id="line2d_216">
    <path d="M 483.270256 32.474137 
" clip-path="url(#pd395c7c590)" style="fill: none; stroke: #ffd700; stroke-width: 1.5; stroke-linecap: square"/>
    <g clip-path="url(#pd395c7c590)">
     <use xlink:href="#m59e01c0f48" x="483.270256" y="32.474137" style="fill: #ffd700; stroke: #ffd700"/>
    </g>
   </g>
   <g id="line2d_217">
    <path d="M 486.369464 10.43933 
" clip-path="url(#pd395c7c590)" style="fill: none; stroke: #ffd700; stroke-width: 1.5; stroke-linecap: square"/>
    <g clip-path="url(#pd395c7c590)">
     <use xlink:href="#m59e01c0f48" x="486.369464" y="10.43933" style="fill: #ffd700; stroke: #ffd700"/>
    </g>
   </g>
   <g id="line2d_218">
    <path d="M 486.206549 7.824848 
" clip-path="url(#pd395c7c590)" style="fill: none; stroke: #ffd700; stroke-width: 1.5; stroke-linecap: square"/>
    <g clip-path="url(#pd395c7c590)">
     <use xlink:href="#m59e01c0f48" x="486.206549" y="7.824848" style="fill: #ffd700; stroke: #ffd700"/>
    </g>
   </g>
   <g id="line2d_219">
    <path d="M 486.311216 13.058236 
" clip-path="url(#pd395c7c590)" style="fill: none; stroke: #ffd700; stroke-width: 1.5; stroke-linecap: square"/>
    <g clip-path="url(#pd395c7c590)">
     <use xlink:href="#m59e01c0f48" x="486.311216" y="13.058236" style="fill: #ffd700; stroke: #ffd700"/>
    </g>
   </g>
   <g id="line2d_220">
    <path d="M 505.687346 122.766247 
" clip-path="url(#pd395c7c590)" style="fill: none; stroke: #ffd700; stroke-width: 1.5; stroke-linecap: square"/>
    <g clip-path="url(#pd395c7c590)">
     <use xlink:href="#m59e01c0f48" x="505.687346" y="122.766247" style="fill: #ffd700; stroke: #ffd700"/>
    </g>
   </g>
   <g id="line2d_221">
    <path d="M 503.351833 124.071984 
" clip-path="url(#pd395c7c590)" style="fill: none; stroke: #ffd700; stroke-width: 1.5; stroke-linecap: square"/>
    <g clip-path="url(#pd395c7c590)">
     <use xlink:href="#m59e01c0f48" x="503.351833" y="124.071984" style="fill: #ffd700; stroke: #ffd700"/>
    </g>
   </g>
   <g id="line2d_222">
    <path d="M 537.199008 176.590332 
" clip-path="url(#pd395c7c590)" style="fill: none; stroke: #ffd700; stroke-width: 1.5; stroke-linecap: square"/>
    <g clip-path="url(#pd395c7c590)">
     <use xlink:href="#m59e01c0f48" x="537.199008" y="176.590332" style="fill: #ffd700; stroke: #ffd700"/>
    </g>
   </g>
   <g id="line2d_223">
    <path d="M 539.401293 175.17285 
" clip-path="url(#pd395c7c590)" style="fill: none; stroke: #ffd700; stroke-width: 1.5; stroke-linecap: square"/>
    <g clip-path="url(#pd395c7c590)">
     <use xlink:href="#m59e01c0f48" x="539.401293" y="175.17285" style="fill: #ffd700; stroke: #ffd700"/>
    </g>
   </g>
   <g id="line2d_224">
    <path d="M 534.884982 177.816954 
" clip-path="url(#pd395c7c590)" style="fill: none; stroke: #ffd700; stroke-width: 1.5; stroke-linecap: square"/>
    <g clip-path="url(#pd395c7c590)">
     <use xlink:href="#m59e01c0f48" x="534.884982" y="177.816954" style="fill: #ffd700; stroke: #ffd700"/>
    </g>
   </g>
   <g id="line2d_225">
    <path d="M 584.225424 218.369262 
" clip-path="url(#pd395c7c590)" style="fill: none; stroke: #ffd700; stroke-width: 1.5; stroke-linecap: square"/>
    <g clip-path="url(#pd395c7c590)">
     <use xlink:href="#m59e01c0f48" x="584.225424" y="218.369262" style="fill: #ffd700; stroke: #ffd700"/>
    </g>
   </g>
   <g id="line2d_226">
    <path d="M 585.886828 216.27181 
" clip-path="url(#pd395c7c590)" style="fill: none; stroke: #ffd700; stroke-width: 1.5; stroke-linecap: square"/>
    <g clip-path="url(#pd395c7c590)">
     <use xlink:href="#m59e01c0f48" x="585.886828" y="216.27181" style="fill: #ffd700; stroke: #ffd700"/>
    </g>
   </g>
   <g id="line2d_227">
    <path d="M 642.898552 241.267728 
" clip-path="url(#pd395c7c590)" style="fill: none; stroke: #ffd700; stroke-width: 1.5; stroke-linecap: square"/>
    <g clip-path="url(#pd395c7c590)">
     <use xlink:href="#m59e01c0f48" x="642.898552" y="241.267728" style="fill: #ffd700; stroke: #ffd700"/>
    </g>
   </g>
   <g id="line2d_228">
    <path d="M 643.730582 238.72464 
" clip-path="url(#pd395c7c590)" style="fill: none; stroke: #ffd700; stroke-width: 1.5; stroke-linecap: square"/>
    <g clip-path="url(#pd395c7c590)">
     <use xlink:href="#m59e01c0f48" x="643.730582" y="238.72464" style="fill: #ffd700; stroke: #ffd700"/>
    </g>
   </g>
   <g id="line2d_229">
    <path d="M 705.871055 242.425223 
" clip-path="url(#pd395c7c590)" style="fill: none; stroke: #ffd700; stroke-width: 1.5; stroke-linecap: square"/>
    <g clip-path="url(#pd395c7c590)">
     <use xlink:href="#m59e01c0f48" x="705.871055" y="242.425223" style="fill: #ffd700; stroke: #ffd700"/>
    </g>
   </g>
   <g id="line2d_230">
    <path d="M 705.770692 239.751368 
" clip-path="url(#pd395c7c590)" style="fill: none; stroke: #ffd700; stroke-width: 1.5; stroke-linecap: square"/>
    <g clip-path="url(#pd395c7c590)">
     <use xlink:href="#m59e01c0f48" x="705.770692" y="239.751368" style="fill: #ffd700; stroke: #ffd700"/>
    </g>
   </g>
   <g id="line2d_231">
    <path d="M 765.346057 221.698432 
" clip-path="url(#pd395c7c590)" style="fill: none; stroke: #ffd700; stroke-width: 1.5; stroke-linecap: square"/>
    <g clip-path="url(#pd395c7c590)">
     <use xlink:href="#m59e01c0f48" x="765.346057" y="221.698432" style="fill: #ffd700; stroke: #ffd700"/>
    </g>
   </g>
   <g id="line2d_232">
    <path d="M 764.325729 219.224871 
" clip-path="url(#pd395c7c590)" style="fill: none; stroke: #ffd700; stroke-width: 1.5; stroke-linecap: square"/>
    <g clip-path="url(#pd395c7c590)">
     <use xlink:href="#m59e01c0f48" x="764.325729" y="219.224871" style="fill: #ffd700; stroke: #ffd700"/>
    </g>
   </g>
   <g id="line2d_233">
    <path d="M 813.959727 181.65362 
" clip-path="url(#pd395c7c590)" style="fill: none; stroke: #ffd700; stroke-width: 1.5; stroke-linecap: square"/>
    <g clip-path="url(#pd395c7c590)">
     <use xlink:href="#m59e01c0f48" x="813.959727" y="181.65362" style="fill: #ffd700; stroke: #ffd700"/>
    </g>
   </g>
   <g id="line2d_234">
    <path d="M 813.959727 181.65362 
" clip-path="url(#pd395c7c590)" style="fill: none; stroke: #008000; stroke-width: 1.5; stroke-linecap: square"/>
    <defs>
     <path id="ma69bcbb177" d="M 0 4 
C 1.060812 4 2.078319 3.578535 2.828427 2.828427 
C 3.578535 2.078319 4 1.060812 4 0 
C 4 -1.060812 3.578535 -2.078319 2.828427 -2.828427 
C 2.078319 -3.578535 1.060812 -4 0 -4 
C -1.060812 -4 -2.078319 -3.578535 -2.828427 -2.828427 
C -3.578535 -2.078319 -4 -1.060812 -4 0 
C -4 1.060812 -3.578535 2.078319 -2.828427 2.828427 
C -2.078319 3.578535 -1.060812 4 0 4 
z
" style="stroke: #008000"/>
    </defs>
    <g clip-path="url(#pd395c7c590)">
     <use xlink:href="#ma69bcbb177" x="813.959727" y="181.65362" style="fill: #008000; stroke: #008000"/>
    </g>
   </g>
   <g id="line2d_235">
    <path d="M 23.985 144.875954 
" clip-path="url(#pd395c7c590)" style="fill: none; stroke: #008000; stroke-width: 1.5; stroke-linecap: square"/>
    <g clip-path="url(#pd395c7c590)">
     <use xlink:href="#ma69bcbb177" x="23.985" y="144.875954" style="fill: #008000; stroke: #008000"/>
    </g>
   </g>
   <g id="line2d_236">
    <path d="M 86.192085 141.014071 
" clip-path="url(#pd395c7c590)" style="fill: none; stroke: #008000; stroke-width: 1.5; stroke-linecap: square"/>
    <g clip-path="url(#pd395c7c590)">
     <use xlink:href="#ma69bcbb177" x="86.192085" y="141.014071" style="fill: #008000; stroke: #008000"/>
    </g>
   </g>
   <g id="line2d_237">
    <path d="M 144.747122 120.487574 
" clip-path="url(#pd395c7c590)" style="fill: none; stroke: #008000; stroke-width: 1.5; stroke-linecap: square"/>
    <g clip-path="url(#pd395c7c590)">
     <use xlink:href="#ma69bcbb177" x="144.747122" y="120.487574" style="fill: #008000; stroke: #008000"/>
    </g>
   </g>
   <g id="line2d_238">
    <path d="M 194.381119 82.916323 
" clip-path="url(#pd395c7c590)" style="fill: none; stroke: #008000; stroke-width: 1.5; stroke-linecap: square"/>
    <g clip-path="url(#pd395c7c590)">
     <use xlink:href="#ma69bcbb177" x="194.381119" y="82.916323" style="fill: #008000; stroke: #008000"/>
    </g>
   </g>
   <g id="line2d_239">
    <path d="M 242.714613 43.584966 
" clip-path="url(#pd395c7c590)" style="fill: none; stroke: #008000; stroke-width: 1.5; stroke-linecap: square"/>
    <g clip-path="url(#pd395c7c590)">
     <use xlink:href="#ma69bcbb177" x="242.714613" y="43.584966" style="fill: #008000; stroke: #008000"/>
    </g>
   </g>
   <g id="line2d_240">
    <path d="M 299.672304 18.970928 
" clip-path="url(#pd395c7c590)" style="fill: none; stroke: #008000; stroke-width: 1.5; stroke-linecap: square"/>
    <g clip-path="url(#pd395c7c590)">
     <use xlink:href="#ma69bcbb177" x="299.672304" y="18.970928" style="fill: #008000; stroke: #008000"/>
    </g>
   </g>
   <g id="line2d_241">
    <path d="M 361.629811 15.609868 
" clip-path="url(#pd395c7c590)" style="fill: none; stroke: #008000; stroke-width: 1.5; stroke-linecap: square"/>
    <g clip-path="url(#pd395c7c590)">
     <use xlink:href="#ma69bcbb177" x="361.629811" y="15.609868" style="fill: #008000; stroke: #008000"/>
    </g>
   </g>
   <g id="line2d_242">
    <path d="M 420.915933 33.917933 
" clip-path="url(#pd395c7c590)" style="fill: none; stroke: #008000; stroke-width: 1.5; stroke-linecap: square"/>
    <g clip-path="url(#pd395c7c590)">
     <use xlink:href="#ma69bcbb177" x="420.915933" y="33.917933" style="fill: #008000; stroke: #008000"/>
    </g>
   </g>
   <g id="line2d_243">
    <path d="M 470.190221 71.628329 
" clip-path="url(#pd395c7c590)" style="fill: none; stroke: #008000; stroke-width: 1.5; stroke-linecap: square"/>
    <g clip-path="url(#pd395c7c590)">
     <use xlink:href="#ma69bcbb177" x="470.190221" y="71.628329" style="fill: #008000; stroke: #008000"/>
    </g>
   </g>
   <g id="line2d_244">
    <path d="M 505.687346 122.766247 
" clip-path="url(#pd395c7c590)" style="fill: none; stroke: #008000; stroke-width: 1.5; stroke-linecap: square"/>
    <g clip-path="url(#pd395c7c590)">
     <use xlink:href="#ma69bcbb177" x="505.687346" y="122.766247" style="fill: #008000; stroke: #008000"/>
    </g>
   </g>
   <g id="line2d_245">
    <path d="M 539.401293 175.17285 
" clip-path="url(#pd395c7c590)" style="fill: none; stroke: #008000; stroke-width: 1.5; stroke-linecap: square"/>
    <g clip-path="url(#pd395c7c590)">
     <use xlink:href="#ma69bcbb177" x="539.401293" y="175.17285" style="fill: #008000; stroke: #008000"/>
    </g>
   </g>
   <g id="line2d_246">
    <path d="M 585.886828 216.27181 
" clip-path="url(#pd395c7c590)" style="fill: none; stroke: #008000; stroke-width: 1.5; stroke-linecap: square"/>
    <g clip-path="url(#pd395c7c590)">
     <use xlink:href="#ma69bcbb177" x="585.886828" y="216.27181" style="fill: #008000; stroke: #008000"/>
    </g>
   </g>
   <g id="line2d_247">
    <path d="M 643.730582 238.72464 
" clip-path="url(#pd395c7c590)" style="fill: none; stroke: #008000; stroke-width: 1.5; stroke-linecap: square"/>
    <g clip-path="url(#pd395c7c590)">
     <use xlink:href="#ma69bcbb177" x="643.730582" y="238.72464" style="fill: #008000; stroke: #008000"/>
    </g>
   </g>
   <g id="line2d_248">
    <path d="M 705.770692 239.751368 
" clip-path="url(#pd395c7c590)" style="fill: none; stroke: #008000; stroke-width: 1.5; stroke-linecap: square"/>
    <g clip-path="url(#pd395c7c590)">
     <use xlink:href="#ma69bcbb177" x="705.770692" y="239.751368" style="fill: #008000; stroke: #008000"/>
    </g>
   </g>
   <g id="line2d_249">
    <path d="M 764.325729 219.224871 
" clip-path="url(#pd395c7c590)" style="fill: none; stroke: #008000; stroke-width: 1.5; stroke-linecap: square"/>
    <g clip-path="url(#pd395c7c590)">
     <use xlink:href="#ma69bcbb177" x="764.325729" y="219.224871" style="fill: #008000; stroke: #008000"/>
    </g>
   </g>
   <g id="line2d_250">
    <path d="M 813.959727 181.65362 
" clip-path="url(#pd395c7c590)" style="fill: none; stroke: #008000; stroke-width: 1.5; stroke-linecap: square"/>
    <g clip-path="url(#pd395c7c590)">
     <use xlink:href="#ma69bcbb177" x="813.959727" y="181.65362" style="fill: #008000; stroke: #008000"/>
    </g>
   </g>
  </g>
 </g>
 <defs>
  <clipPath id="pd395c7c590">
   <rect x="7.2" y="7.2" width="906.75" height="277.2"/>
  </clipPath>
 </defs>
</svg>
