<?xml version="1.0" encoding="utf-8" standalone="no"?>
<!DOCTYPE svg PUBLIC "-//W3C//DTD SVG 1.1//EN"
  "http://www.w3.org/Graphics/SVG/1.1/DTD/svg11.dtd">
<svg xmlns:xlink="http://www.w3.org/1999/xlink" width="371.52pt" height="280.512pt" viewBox="0 0 371.52 280.512" xmlns="http://www.w3.org/2000/svg" version="1.1">
 <metadata>
  <rdf:RDF xmlns:dc="http://purl.org/dc/elements/1.1/" xmlns:cc="http://creativecommons.org/ns#" xmlns:rdf="http://www.w3.org/1999/02/22-rdf-syntax-ns#">
   <cc:Work>
    <dc:type rdf:resource="http://purl.org/dc/dcmitype/StillImage"/>
    <dc:date>2022-04-27T14:51:01.027027</dc:date>
    <dc:format>image/svg+xml</dc:format>
    <dc:creator>
     <cc:Agent>
      <dc:title>Matplotlib v3.5.1, https://matplotlib.org/</dc:title>
     </cc:Agent>
    </dc:creator>
   </cc:Work>
  </rdf:RDF>
 </metadata>
 <defs>
  <style type="text/css">*{stroke-linejoin: round; stroke-linecap: butt}</style>
 </defs>
 <g id="figure_1">
  <g id="patch_1">
   <path d="M 0 280.512 
L 371.52 280.512 
L 371.52 0 
L 0 0 
z
" style="fill: #ffffff"/>
  </g>
  <g id="axes_1">
   <g id="line2d_1">
    <path d="M 303.5915 182.598868 
L 307.64698 179.040486 
L 311.702461 175.482104 
L 315.757942 171.923722 
L 319.813422 168.36534 
L 323.868903 164.806959 
" clip-path="url(#pc63fab920b)" style="fill: none; stroke: #ffd700; stroke-width: 2; stroke-linecap: square"/>
   </g>
   <g id="line2d_2">
    <path d="M 303.5915 182.598868 
L 307.64698 179.040486 
L 311.691387 175.417969 
L 315.701356 171.60392 
L 319.649882 167.473764 
L 323.503958 162.908304 
" clip-path="url(#pc63fab920b)" style="fill: none; stroke: #ffd700; stroke-width: 2; stroke-linecap: square"/>
   </g>
   <g id="line2d_3">
    <path d="M 303.5915 182.598868 
L 307.64698 179.040486 
L 311.713287 175.546456 
L 315.810914 172.246695 
L 319.956824 169.274587 
L 324.161944 166.768703 
" clip-path="url(#pc63fab920b)" style="fill: none; stroke: #ffd700; stroke-width: 2; stroke-linecap: square"/>
   </g>
   <g id="line2d_4">
    <path d="M 303.237865 180.64067 
L 306.95092 175.509817 
L 310.513149 169.854242 
L 313.948657 163.807838 
L 317.288848 157.492013 
L 320.57 151.018559 
" clip-path="url(#pc63fab920b)" style="fill: none; stroke: #ffd700; stroke-width: 2; stroke-linecap: square"/>
   </g>
   <g id="line2d_5">
    <path d="M 303.237865 180.64067 
L 306.95092 175.509817 
L 310.494844 169.796322 
L 313.851909 163.528769 
L 317.005321 156.738509 
L 319.939306 149.459511 
" clip-path="url(#pc63fab920b)" style="fill: none; stroke: #ffd700; stroke-width: 2; stroke-linecap: square"/>
   </g>
   <g id="line2d_6">
    <path d="M 326.346407 197.092779 
L 330.69458 196.918685 
L 335.042754 196.74459 
L 339.390927 196.570496 
L 343.7391 196.396401 
L 348.087273 196.222307 
" clip-path="url(#pc63fab920b)" style="fill: none; stroke-dasharray: 7.4,3.2; stroke-dashoffset: 0; stroke: #ffd700; stroke-width: 2"/>
   </g>
   <g id="line2d_7">
    <path d="M 326.346407 197.092779 
L 330.69458 196.918685 
L 335.042085 196.675715 
L 339.386309 196.22599 
L 343.720795 195.431437 
L 348.03263 194.154344 
" clip-path="url(#pc63fab920b)" style="fill: none; stroke-dasharray: 7.4,3.2; stroke-dashoffset: 0; stroke: #ffd700; stroke-width: 2"/>
   </g>
   <g id="line2d_8">
    <path d="M 326.346407 197.092779 
L 330.69458 196.918685 
L 335.043157 196.813476 
L 339.391669 196.915156 
L 343.735812 197.36223 
L 348.064822 198.293356 
" clip-path="url(#pc63fab920b)" style="fill: none; stroke-dasharray: 7.4,3.2; stroke-dashoffset: 0; stroke: #ffd700; stroke-width: 2"/>
   </g>
   <g id="line2d_9">
    <path d="M 325.332365 181.728395 
L 329.387846 178.170013 
L 333.443326 174.611631 
L 337.498807 171.05325 
L 341.554287 167.494868 
L 345.609768 163.936486 
" clip-path="url(#pc63fab920b)" style="fill: none; stroke-dasharray: 7.4,3.2; stroke-dashoffset: 0; stroke: #ffd700; stroke-width: 2"/>
   </g>
   <g id="line2d_10">
    <path d="M 325.332365 181.728395 
L 329.387846 178.170013 
L 333.432253 174.547496 
L 337.442221 170.733447 
L 341.390747 166.603291 
L 345.244823 162.037831 
" clip-path="url(#pc63fab920b)" style="fill: none; stroke-dasharray: 7.4,3.2; stroke-dashoffset: 0; stroke: #ffd700; stroke-width: 2"/>
   </g>
   <g id="line2d_11">
    <path d="M 325.332365 181.728395 
L 329.387846 178.170013 
L 333.454153 174.675983 
L 337.551779 171.376223 
L 341.697689 168.404114 
L 345.90281 165.898231 
" clip-path="url(#pc63fab920b)" style="fill: none; stroke-dasharray: 7.4,3.2; stroke-dashoffset: 0; stroke: #ffd700; stroke-width: 2"/>
   </g>
   <g id="line2d_12">
    <path d="M 325.571942 212.528599 
L 329.680238 215.760081 
L 333.788534 218.991563 
L 337.89683 222.223045 
L 342.005126 225.454528 
L 346.113421 228.68601 
" clip-path="url(#pc63fab920b)" style="fill: none; stroke-dasharray: 7.4,3.2; stroke-dashoffset: 0; stroke: #ffd700; stroke-width: 2"/>
   </g>
   <g id="line2d_13">
    <path d="M 325.571942 212.528599 
L 329.680238 215.760081 
L 333.798353 218.926385 
L 337.944746 221.896033 
L 342.134297 224.534367 
L 346.375771 226.702026 
" clip-path="url(#pc63fab920b)" style="fill: none; stroke-dasharray: 7.4,3.2; stroke-dashoffset: 0; stroke: #ffd700; stroke-width: 2"/>
   </g>
   <g id="line2d_14">
    <path d="M 325.571942 212.528599 
L 329.680238 215.760081 
L 333.778465 219.056545 
L 337.845253 222.547179 
L 341.855553 226.358642 
L 345.778232 230.6127 
" clip-path="url(#pc63fab920b)" style="fill: none; stroke-dasharray: 7.4,3.2; stroke-dashoffset: 0; stroke: #ffd700; stroke-width: 2"/>
   </g>
   <g id="line2d_15">
    <path d="M 325.248982 214.513889 
L 329.039521 219.344279 
L 332.687489 224.711138 
L 336.214892 230.478727 
L 339.651228 236.523202 
L 343.031013 242.729934 
" clip-path="url(#pc63fab920b)" style="fill: none; stroke-dasharray: 7.4,3.2; stroke-dashoffset: 0; stroke: #ffd700; stroke-width: 2"/>
   </g>
   <g id="line2d_16">
    <path d="M 325.248982 214.513889 
L 329.039521 219.344279 
L 332.670096 224.770486 
L 336.122544 230.765369 
L 339.379596 237.298936 
L 342.424959 244.338505 
" clip-path="url(#pc63fab920b)" style="fill: none; stroke-dasharray: 7.4,3.2; stroke-dashoffset: 0; stroke: #ffd700; stroke-width: 2"/>
   </g>
   <g id="line2d_17">
    <path d="M 324.037367 231.483172 
L 327.832905 236.29331 
L 331.486429 241.640677 
L 335.019804 247.389417 
L 338.4624 253.415528 
L 341.848613 259.604198 
" clip-path="url(#pc63fab920b)" style="fill: none; stroke-dasharray: 7.4,3.2; stroke-dashoffset: 0; stroke: #ffd700; stroke-width: 2"/>
   </g>
   <g id="line2d_18">
    <path d="M 324.037367 231.483172 
L 327.832905 236.29331 
L 331.469097 241.700118 
L 334.927754 247.676551 
L 338.191574 254.19271 
L 341.244229 261.216 
" clip-path="url(#pc63fab920b)" style="fill: none; stroke-dasharray: 7.4,3.2; stroke-dashoffset: 0; stroke: #ffd700; stroke-width: 2"/>
   </g>
   <g id="line2d_19">
    <path d="M 323.868903 164.806959 
L 327.924383 161.248577 
L 331.979864 157.690195 
L 336.035344 154.131813 
L 340.090825 150.573432 
L 344.146306 147.01505 
" clip-path="url(#pc63fab920b)" style="fill: none; stroke-dasharray: 7.4,3.2; stroke-dashoffset: 0; stroke: #ffd700; stroke-width: 2"/>
   </g>
   <g id="line2d_20">
    <path d="M 323.868903 164.806959 
L 327.924383 161.248577 
L 331.96879 157.62606 
L 335.978759 153.812011 
L 339.927285 149.681855 
L 343.781361 145.116395 
" clip-path="url(#pc63fab920b)" style="fill: none; stroke-dasharray: 7.4,3.2; stroke-dashoffset: 0; stroke: #ffd700; stroke-width: 2"/>
   </g>
   <g id="line2d_21">
    <path d="M 323.868903 164.806959 
L 327.924383 161.248577 
L 331.99069 157.754547 
L 336.088317 154.454786 
L 340.234227 151.482678 
L 344.439347 148.976794 
" clip-path="url(#pc63fab920b)" style="fill: none; stroke-dasharray: 7.4,3.2; stroke-dashoffset: 0; stroke: #ffd700; stroke-width: 2"/>
   </g>
   <g id="line2d_22">
    <path d="M 323.503958 162.908304 
L 327.222324 157.797289 
L 330.790409 152.160749 
L 334.232178 146.132706 
L 337.578911 139.834732 
L 340.866768 133.378815 
" clip-path="url(#pc63fab920b)" style="fill: none; stroke-dasharray: 7.4,3.2; stroke-dashoffset: 0; stroke: #ffd700; stroke-width: 2"/>
   </g>
   <g id="line2d_23">
    <path d="M 323.503958 162.908304 
L 327.222324 157.797289 
L 330.772164 152.102733 
L 334.13572 145.853121 
L 337.296166 139.079716 
L 340.237693 131.816403 
" clip-path="url(#pc63fab920b)" style="fill: none; stroke-dasharray: 7.4,3.2; stroke-dashoffset: 0; stroke: #ffd700; stroke-width: 2"/>
   </g>
   <g id="line2d_24">
    <path d="M 324.161944 166.768703 
L 328.428446 164.873592 
L 332.739609 163.596679 
L 337.073419 162.802232 
L 341.416967 162.352559 
L 345.763795 162.109609 
" clip-path="url(#pc63fab920b)" style="fill: none; stroke-dasharray: 7.4,3.2; stroke-dashoffset: 0; stroke: #ffd700; stroke-width: 2"/>
   </g>
   <g id="line2d_25">
    <path d="M 324.161944 166.768703 
L 328.428446 164.873592 
L 332.743315 163.667452 
L 337.084968 163.156319 
L 341.431684 163.342748 
L 345.761721 164.225807 
" clip-path="url(#pc63fab920b)" style="fill: none; stroke-dasharray: 7.4,3.2; stroke-dashoffset: 0; stroke: #ffd700; stroke-width: 2"/>
   </g>
   <g id="line2d_26">
    <path d="M 319.939306 149.459511 
L 322.639186 141.728187 
L 325.117471 133.623159 
L 327.417212 125.25109 
L 329.586405 116.701187 
L 331.67615 108.049813 
" clip-path="url(#pc63fab920b)" style="fill: none; stroke: #ffd700; stroke-width: 2; stroke-linecap: square"/>
   </g>
   <g id="line2d_27">
    <path d="M 319.939306 149.459511 
L 322.639186 141.728187 
L 325.091456 133.583212 
L 327.283849 125.065332 
L 329.205396 116.217155 
L 330.846486 107.082946 
" clip-path="url(#pc63fab920b)" style="fill: none; stroke: #ffd700; stroke-width: 2; stroke-linecap: square"/>
   </g>
   <g id="line2d_28">
    <path d="M 326.291765 195.024816 
L 330.558266 193.129705 
L 334.763387 190.623821 
L 338.909297 187.651713 
L 343.006923 184.351952 
L 347.07323 180.857922 
" clip-path="url(#pc63fab920b)" style="fill: none; stroke-dasharray: 7.4,3.2; stroke-dashoffset: 0; stroke: #ffd700; stroke-width: 2"/>
   </g>
   <g id="line2d_29">
    <path d="M 326.291765 195.024816 
L 330.558266 193.129705 
L 334.755057 190.555102 
L 338.861143 187.313886 
L 342.855984 183.422271 
L 346.719596 178.899725 
" clip-path="url(#pc63fab920b)" style="fill: none; stroke-dasharray: 7.4,3.2; stroke-dashoffset: 0; stroke: #ffd700; stroke-width: 2"/>
   </g>
   <g id="line2d_30">
    <path d="M 326.323957 199.163829 
L 330.617275 200.716182 
L 334.858749 202.883841 
L 339.0483 205.522175 
L 343.194693 208.491823 
L 347.312808 211.658127 
" clip-path="url(#pc63fab920b)" style="fill: none; stroke-dasharray: 7.4,3.2; stroke-dashoffset: 0; stroke: #ffd700; stroke-width: 2"/>
   </g>
   <g id="line2d_31">
    <path d="M 326.323957 199.163829 
L 330.617275 200.716182 
L 334.851493 202.953185 
L 339.00543 205.863647 
L 343.058306 209.43301 
L 346.989847 213.643417 
" clip-path="url(#pc63fab920b)" style="fill: none; stroke-dasharray: 7.4,3.2; stroke-dashoffset: 0; stroke: #ffd700; stroke-width: 2"/>
   </g>
   <g id="line2d_32">
    <path d="M 324.97873 179.770197 
L 328.691785 174.639344 
L 332.254015 168.983769 
L 335.689522 162.937366 
L 339.029713 156.62154 
L 342.310865 150.148087 
" clip-path="url(#pc63fab920b)" style="fill: none; stroke-dasharray: 7.4,3.2; stroke-dashoffset: 0; stroke: #ffd700; stroke-width: 2"/>
   </g>
   <g id="line2d_33">
    <path d="M 324.97873 179.770197 
L 328.691785 174.639344 
L 332.235709 168.92585 
L 335.592774 162.658296 
L 338.746186 155.868037 
L 341.680171 148.589038 
" clip-path="url(#pc63fab920b)" style="fill: none; stroke-dasharray: 7.4,3.2; stroke-dashoffset: 0; stroke: #ffd700; stroke-width: 2"/>
   </g>
   <g id="line2d_34">
    <path d="M 324.372556 229.556482 
L 328.480852 232.787964 
L 332.589148 236.019447 
L 336.697443 239.250929 
L 340.805739 242.482411 
L 344.914035 245.713893 
" clip-path="url(#pc63fab920b)" style="fill: none; stroke-dasharray: 7.4,3.2; stroke-dashoffset: 0; stroke: #ffd700; stroke-width: 2"/>
   </g>
   <g id="line2d_35">
    <path d="M 324.372556 229.556482 
L 328.480852 232.787964 
L 332.598966 235.954268 
L 336.74536 238.923916 
L 340.934911 241.56225 
L 345.176385 243.729909 
" clip-path="url(#pc63fab920b)" style="fill: none; stroke-dasharray: 7.4,3.2; stroke-dashoffset: 0; stroke: #ffd700; stroke-width: 2"/>
   </g>
   <g id="line2d_36">
    <path d="M 324.372556 229.556482 
L 328.480852 232.787964 
L 332.579078 236.084428 
L 336.645867 239.575062 
L 340.656167 243.386525 
L 344.578846 247.640583 
" clip-path="url(#pc63fab920b)" style="fill: none; stroke-dasharray: 7.4,3.2; stroke-dashoffset: 0; stroke: #ffd700; stroke-width: 2"/>
   </g>
   <g id="line2d_37">
    <path d="M 324.634906 227.572498 
L 328.928223 229.124852 
L 333.25656 230.055815 
L 337.600027 230.502801 
L 341.947863 230.604448 
L 346.295763 230.499237 
" clip-path="url(#pc63fab920b)" style="fill: none; stroke-dasharray: 7.4,3.2; stroke-dashoffset: 0; stroke: #ffd700; stroke-width: 2"/>
   </g>
   <g id="line2d_38">
    <path d="M 324.634906 227.572498 
L 328.928223 229.124852 
L 333.259164 229.984789 
L 337.606062 230.14801 
L 341.947172 229.613697 
L 346.260778 228.384523 
" clip-path="url(#pc63fab920b)" style="fill: none; stroke-dasharray: 7.4,3.2; stroke-dashoffset: 0; stroke: #ffd700; stroke-width: 2"/>
   </g>
   <g id="line2d_39">
    <path d="M 320.57 151.018559 
L 323.831171 144.493246 
L 327.092343 137.967933 
L 330.353515 131.442619 
L 333.614686 124.917306 
L 336.875858 118.391992 
" clip-path="url(#pc63fab920b)" style="fill: none; stroke-dasharray: 7.4,3.2; stroke-dashoffset: 0; stroke: #ffd700; stroke-width: 2"/>
   </g>
   <g id="line2d_40">
    <path d="M 320.57 151.018559 
L 323.831171 144.493246 
L 327.072164 137.916471 
L 330.251609 131.187086 
L 333.325157 124.209451 
L 336.243644 116.89769 
" clip-path="url(#pc63fab920b)" style="fill: none; stroke-dasharray: 7.4,3.2; stroke-dashoffset: 0; stroke: #ffd700; stroke-width: 2"/>
   </g>
   <g id="line2d_41">
    <path d="M 320.57 151.018559 
L 323.831171 144.493246 
L 327.112324 138.019792 
L 330.452515 131.703967 
L 333.888022 125.657564 
L 337.450251 120.001989 
" clip-path="url(#pc63fab920b)" style="fill: none; stroke-dasharray: 7.4,3.2; stroke-dashoffset: 0; stroke: #ffd700; stroke-width: 2"/>
   </g>
   <g id="line2d_42">
    <path d="M 261.088827 197.589483 
L 265.353351 195.671597 
L 269.555861 193.143269 
L 273.698677 190.149033 
L 277.79287 186.827403 
L 281.855542 183.311672 
" clip-path="url(#pc63fab920b)" style="fill: none; stroke: #ffd700; stroke-width: 2; stroke-linecap: square"/>
   </g>
   <g id="line2d_43">
    <path d="M 261.088827 197.589483 
L 265.353351 195.671597 
L 269.54746 193.074594 
L 273.650173 189.811463 
L 277.640967 185.89853 
L 281.499877 181.355368 
" clip-path="url(#pc63fab920b)" style="fill: none; stroke: #ffd700; stroke-width: 2; stroke-linecap: square"/>
   </g>
   <g id="line2d_44">
    <path d="M 281.855542 183.311672 
L 285.90732 179.731648 
L 289.959099 176.151623 
L 294.010878 172.571598 
L 298.062657 168.991573 
L 302.114435 165.411548 
" clip-path="url(#pc63fab920b)" style="fill: none; stroke: #ffd700; stroke-width: 2; stroke-linecap: square"/>
   </g>
   <g id="line2d_45">
    <path d="M 281.855542 183.311672 
L 285.90732 179.731648 
L 289.947959 176.087547 
L 293.953961 172.252099 
L 297.898192 168.100872 
L 301.747522 163.514847 
" clip-path="url(#pc63fab920b)" style="fill: none; stroke: #ffd700; stroke-width: 2; stroke-linecap: square"/>
   </g>
   <g id="line2d_46">
    <path d="M 281.855542 183.311672 
L 285.90732 179.731648 
L 289.947959 176.087547 
L 293.953961 172.252099 
L 297.898192 168.100872 
L 301.747522 163.514847 
" clip-path="url(#pc63fab920b)" style="fill: none; stroke: #008000; stroke-width: 3; stroke-linecap: square"/>
   </g>
   <g id="line2d_47">
    <path d="M 23.432727 122.553867 
" clip-path="url(#pc63fab920b)" style="fill: none; stroke: #008000; stroke-width: 3; stroke-linecap: square"/>
   </g>
   <g id="line2d_48">
    <path d="M 23.432727 122.553867 
L 27.7809 122.356557 
L 32.128334 122.090373 
L 36.472272 121.617442 
L 40.806114 120.79972 
L 45.116804 119.499559 
" clip-path="url(#pc63fab920b)" style="fill: none; stroke: #008000; stroke-width: 3; stroke-linecap: square"/>
   </g>
   <g id="line2d_49">
    <path d="M 45.116804 119.499559 
L 49.381328 117.581674 
L 53.575437 114.98467 
L 57.67815 111.72154 
L 61.668943 107.808607 
L 65.527854 103.265445 
" clip-path="url(#pc63fab920b)" style="fill: none; stroke: #008000; stroke-width: 3; stroke-linecap: square"/>
   </g>
   <g id="line2d_50">
    <path d="M 65.527854 103.265445 
L 69.235577 98.114781 
L 72.79193 92.440202 
L 76.221157 86.375473 
L 79.554788 80.041831 
L 82.829217 73.550877 
" clip-path="url(#pc63fab920b)" style="fill: none; stroke: #008000; stroke-width: 3; stroke-linecap: square"/>
   </g>
   <g id="line2d_51">
    <path d="M 82.829217 73.550877 
L 86.083612 67.00817 
L 89.358041 60.517215 
L 92.691673 54.183573 
L 96.120899 48.118844 
L 99.677253 42.444265 
" clip-path="url(#pc63fab920b)" style="fill: none; stroke: #008000; stroke-width: 3; stroke-linecap: square"/>
   </g>
   <g id="line2d_52">
    <path d="M 99.677253 42.444265 
L 103.384976 37.293602 
L 107.243886 32.75044 
L 111.23468 28.837507 
L 115.337393 25.574376 
L 119.531502 22.977373 
" clip-path="url(#pc63fab920b)" style="fill: none; stroke: #008000; stroke-width: 3; stroke-linecap: square"/>
   </g>
   <g id="line2d_53">
    <path d="M 119.531502 22.977373 
L 123.796026 21.059487 
L 128.109632 19.830313 
L 132.450742 19.296 
L 136.79764 19.459221 
L 141.128581 20.319158 
" clip-path="url(#pc63fab920b)" style="fill: none; stroke: #008000; stroke-width: 3; stroke-linecap: square"/>
   </g>
   <g id="line2d_54">
    <path d="M 141.128581 20.319158 
L 145.421899 21.871512 
L 149.656117 24.108515 
L 153.810054 27.018977 
L 157.86293 30.58834 
L 161.794471 34.798747 
" clip-path="url(#pc63fab920b)" style="fill: none; stroke: #008000; stroke-width: 3; stroke-linecap: square"/>
   </g>
   <g id="line2d_55">
    <path d="M 161.794471 34.798747 
L 165.58501 39.629136 
L 169.215585 45.055344 
L 172.668033 51.050226 
L 175.925085 57.583793 
L 178.970448 64.623362 
" clip-path="url(#pc63fab920b)" style="fill: none; stroke: #008000; stroke-width: 3; stroke-linecap: square"/>
   </g>
   <g id="line2d_56">
    <path d="M 178.970448 64.623362 
L 181.788886 72.133718 
L 184.391679 80.035286 
L 186.820192 88.218023 
L 189.121005 96.588934 
L 191.343996 105.067615 
" clip-path="url(#pc63fab920b)" style="fill: none; stroke: #008000; stroke-width: 3; stroke-linecap: square"/>
   </g>
   <g id="line2d_57">
    <path d="M 191.343996 105.067615 
L 193.540856 113.581355 
L 195.763848 122.060036 
L 198.064661 130.430947 
L 200.493174 138.613684 
L 203.095967 146.515252 
" clip-path="url(#pc63fab920b)" style="fill: none; stroke: #008000; stroke-width: 3; stroke-linecap: square"/>
   </g>
   <g id="line2d_58">
    <path d="M 203.095967 146.515252 
L 205.914405 154.025608 
L 208.959767 161.065177 
L 212.21682 167.598744 
L 215.669268 173.593626 
L 219.299843 179.019834 
" clip-path="url(#pc63fab920b)" style="fill: none; stroke: #008000; stroke-width: 3; stroke-linecap: square"/>
   </g>
   <g id="line2d_59">
    <path d="M 219.299843 179.019834 
L 223.090382 183.850223 
L 227.021923 188.06063 
L 231.074799 191.629993 
L 235.228736 194.540455 
L 239.462954 196.777458 
" clip-path="url(#pc63fab920b)" style="fill: none; stroke: #008000; stroke-width: 3; stroke-linecap: square"/>
   </g>
   <g id="line2d_60">
    <path d="M 239.462954 196.777458 
L 243.756272 198.329812 
L 248.087213 199.189749 
L 252.43411 199.35297 
L 256.775221 198.818657 
L 261.088827 197.589483 
" clip-path="url(#pc63fab920b)" style="fill: none; stroke: #008000; stroke-width: 3; stroke-linecap: square"/>
   </g>
   <g id="line2d_61">
    <path d="M 261.088827 197.589483 
L 265.353351 195.671597 
L 269.555861 193.143269 
L 273.698677 190.149033 
L 277.79287 186.827403 
L 281.855542 183.311672 
" clip-path="url(#pc63fab920b)" style="fill: none; stroke: #008000; stroke-width: 3; stroke-linecap: square"/>
   </g>
   <g id="line2d_62">
    <path d="M 281.855542 183.311672 
L 285.90732 179.731648 
L 289.947959 176.087547 
L 293.953961 172.252099 
L 297.898192 168.100872 
L 301.747522 163.514847 
" clip-path="url(#pc63fab920b)" style="fill: none; stroke: #008000; stroke-width: 3; stroke-linecap: square"/>
   </g>
   <g id="line2d_63">
    <path d="M 323.868903 164.806959 
" clip-path="url(#pc63fab920b)" style="fill: none; stroke: #ffd700; stroke-width: 1.5; stroke-linecap: square"/>
    <defs>
     <path id="m3451daa3dc" d="M 0 4 
C 1.060812 4 2.078319 3.578535 2.828427 2.828427 
C 3.578535 2.078319 4 1.060812 4 0 
C 4 -1.060812 3.578535 -2.078319 2.828427 -2.828427 
C 2.078319 -3.578535 1.060812 -4 0 -4 
C -1.060812 -4 -2.078319 -3.578535 -2.828427 -2.828427 
C -3.578535 -2.078319 -4 -1.060812 -4 0 
C -4 1.060812 -3.578535 2.078319 -2.828427 2.828427 
C -2.078319 3.578535 -1.060812 4 0 4 
z
" style="stroke: #ffd700"/>
    </defs>
    <g clip-path="url(#pc63fab920b)">
     <use xlink:href="#m3451daa3dc" x="323.868903" y="164.806959" style="fill: #ffd700; stroke: #ffd700"/>
    </g>
   </g>
   <g id="line2d_64">
    <path d="M 323.503958 162.908304 
" clip-path="url(#pc63fab920b)" style="fill: none; stroke: #ffd700; stroke-width: 1.5; stroke-linecap: square"/>
    <g clip-path="url(#pc63fab920b)">
     <use xlink:href="#m3451daa3dc" x="323.503958" y="162.908304" style="fill: #ffd700; stroke: #ffd700"/>
    </g>
   </g>
   <g id="line2d_65">
    <path d="M 324.161944 166.768703 
" clip-path="url(#pc63fab920b)" style="fill: none; stroke: #ffd700; stroke-width: 1.5; stroke-linecap: square"/>
    <g clip-path="url(#pc63fab920b)">
     <use xlink:href="#m3451daa3dc" x="324.161944" y="166.768703" style="fill: #ffd700; stroke: #ffd700"/>
    </g>
   </g>
   <g id="line2d_66">
    <path d="M 320.57 151.018559 
" clip-path="url(#pc63fab920b)" style="fill: none; stroke: #ffd700; stroke-width: 1.5; stroke-linecap: square"/>
    <g clip-path="url(#pc63fab920b)">
     <use xlink:href="#m3451daa3dc" x="320.57" y="151.018559" style="fill: #ffd700; stroke: #ffd700"/>
    </g>
   </g>
   <g id="line2d_67">
    <path d="M 319.939306 149.459511 
" clip-path="url(#pc63fab920b)" style="fill: none; stroke: #ffd700; stroke-width: 1.5; stroke-linecap: square"/>
    <g clip-path="url(#pc63fab920b)">
     <use xlink:href="#m3451daa3dc" x="319.939306" y="149.459511" style="fill: #ffd700; stroke: #ffd700"/>
    </g>
   </g>
   <g id="line2d_68">
    <path d="M 348.087273 196.222307 
" clip-path="url(#pc63fab920b)" style="fill: none; stroke: #ffd700; stroke-width: 1.5; stroke-linecap: square"/>
    <g clip-path="url(#pc63fab920b)">
     <use xlink:href="#m3451daa3dc" x="348.087273" y="196.222307" style="fill: #ffd700; stroke: #ffd700"/>
    </g>
   </g>
   <g id="line2d_69">
    <path d="M 348.03263 194.154344 
" clip-path="url(#pc63fab920b)" style="fill: none; stroke: #ffd700; stroke-width: 1.5; stroke-linecap: square"/>
    <g clip-path="url(#pc63fab920b)">
     <use xlink:href="#m3451daa3dc" x="348.03263" y="194.154344" style="fill: #ffd700; stroke: #ffd700"/>
    </g>
   </g>
   <g id="line2d_70">
    <path d="M 348.064822 198.293356 
" clip-path="url(#pc63fab920b)" style="fill: none; stroke: #ffd700; stroke-width: 1.5; stroke-linecap: square"/>
    <g clip-path="url(#pc63fab920b)">
     <use xlink:href="#m3451daa3dc" x="348.064822" y="198.293356" style="fill: #ffd700; stroke: #ffd700"/>
    </g>
   </g>
   <g id="line2d_71">
    <path d="M 345.609768 163.936486 
" clip-path="url(#pc63fab920b)" style="fill: none; stroke: #ffd700; stroke-width: 1.5; stroke-linecap: square"/>
    <g clip-path="url(#pc63fab920b)">
     <use xlink:href="#m3451daa3dc" x="345.609768" y="163.936486" style="fill: #ffd700; stroke: #ffd700"/>
    </g>
   </g>
   <g id="line2d_72">
    <path d="M 345.244823 162.037831 
" clip-path="url(#pc63fab920b)" style="fill: none; stroke: #ffd700; stroke-width: 1.5; stroke-linecap: square"/>
    <g clip-path="url(#pc63fab920b)">
     <use xlink:href="#m3451daa3dc" x="345.244823" y="162.037831" style="fill: #ffd700; stroke: #ffd700"/>
    </g>
   </g>
   <g id="line2d_73">
    <path d="M 345.90281 165.898231 
" clip-path="url(#pc63fab920b)" style="fill: none; stroke: #ffd700; stroke-width: 1.5; stroke-linecap: square"/>
    <g clip-path="url(#pc63fab920b)">
     <use xlink:href="#m3451daa3dc" x="345.90281" y="165.898231" style="fill: #ffd700; stroke: #ffd700"/>
    </g>
   </g>
   <g id="line2d_74">
    <path d="M 346.113421 228.68601 
" clip-path="url(#pc63fab920b)" style="fill: none; stroke: #ffd700; stroke-width: 1.5; stroke-linecap: square"/>
    <g clip-path="url(#pc63fab920b)">
     <use xlink:href="#m3451daa3dc" x="346.113421" y="228.68601" style="fill: #ffd700; stroke: #ffd700"/>
    </g>
   </g>
   <g id="line2d_75">
    <path d="M 346.375771 226.702026 
" clip-path="url(#pc63fab920b)" style="fill: none; stroke: #ffd700; stroke-width: 1.5; stroke-linecap: square"/>
    <g clip-path="url(#pc63fab920b)">
     <use xlink:href="#m3451daa3dc" x="346.375771" y="226.702026" style="fill: #ffd700; stroke: #ffd700"/>
    </g>
   </g>
   <g id="line2d_76">
    <path d="M 345.778232 230.6127 
" clip-path="url(#pc63fab920b)" style="fill: none; stroke: #ffd700; stroke-width: 1.5; stroke-linecap: square"/>
    <g clip-path="url(#pc63fab920b)">
     <use xlink:href="#m3451daa3dc" x="345.778232" y="230.6127" style="fill: #ffd700; stroke: #ffd700"/>
    </g>
   </g>
   <g id="line2d_77">
    <path d="M 343.031013 242.729934 
" clip-path="url(#pc63fab920b)" style="fill: none; stroke: #ffd700; stroke-width: 1.5; stroke-linecap: square"/>
    <g clip-path="url(#pc63fab920b)">
     <use xlink:href="#m3451daa3dc" x="343.031013" y="242.729934" style="fill: #ffd700; stroke: #ffd700"/>
    </g>
   </g>
   <g id="line2d_78">
    <path d="M 342.424959 244.338505 
" clip-path="url(#pc63fab920b)" style="fill: none; stroke: #ffd700; stroke-width: 1.5; stroke-linecap: square"/>
    <g clip-path="url(#pc63fab920b)">
     <use xlink:href="#m3451daa3dc" x="342.424959" y="244.338505" style="fill: #ffd700; stroke: #ffd700"/>
    </g>
   </g>
   <g id="line2d_79">
    <path d="M 341.848613 259.604198 
" clip-path="url(#pc63fab920b)" style="fill: none; stroke: #ffd700; stroke-width: 1.5; stroke-linecap: square"/>
    <g clip-path="url(#pc63fab920b)">
     <use xlink:href="#m3451daa3dc" x="341.848613" y="259.604198" style="fill: #ffd700; stroke: #ffd700"/>
    </g>
   </g>
   <g id="line2d_80">
    <path d="M 341.244229 261.216 
" clip-path="url(#pc63fab920b)" style="fill: none; stroke: #ffd700; stroke-width: 1.5; stroke-linecap: square"/>
    <g clip-path="url(#pc63fab920b)">
     <use xlink:href="#m3451daa3dc" x="341.244229" y="261.216" style="fill: #ffd700; stroke: #ffd700"/>
    </g>
   </g>
   <g id="line2d_81">
    <path d="M 344.146306 147.01505 
" clip-path="url(#pc63fab920b)" style="fill: none; stroke: #ffd700; stroke-width: 1.5; stroke-linecap: square"/>
    <g clip-path="url(#pc63fab920b)">
     <use xlink:href="#m3451daa3dc" x="344.146306" y="147.01505" style="fill: #ffd700; stroke: #ffd700"/>
    </g>
   </g>
   <g id="line2d_82">
    <path d="M 343.781361 145.116395 
" clip-path="url(#pc63fab920b)" style="fill: none; stroke: #ffd700; stroke-width: 1.5; stroke-linecap: square"/>
    <g clip-path="url(#pc63fab920b)">
     <use xlink:href="#m3451daa3dc" x="343.781361" y="145.116395" style="fill: #ffd700; stroke: #ffd700"/>
    </g>
   </g>
   <g id="line2d_83">
    <path d="M 344.439347 148.976794 
" clip-path="url(#pc63fab920b)" style="fill: none; stroke: #ffd700; stroke-width: 1.5; stroke-linecap: square"/>
    <g clip-path="url(#pc63fab920b)">
     <use xlink:href="#m3451daa3dc" x="344.439347" y="148.976794" style="fill: #ffd700; stroke: #ffd700"/>
    </g>
   </g>
   <g id="line2d_84">
    <path d="M 340.866768 133.378815 
" clip-path="url(#pc63fab920b)" style="fill: none; stroke: #ffd700; stroke-width: 1.5; stroke-linecap: square"/>
    <g clip-path="url(#pc63fab920b)">
     <use xlink:href="#m3451daa3dc" x="340.866768" y="133.378815" style="fill: #ffd700; stroke: #ffd700"/>
    </g>
   </g>
   <g id="line2d_85">
    <path d="M 340.237693 131.816403 
" clip-path="url(#pc63fab920b)" style="fill: none; stroke: #ffd700; stroke-width: 1.5; stroke-linecap: square"/>
    <g clip-path="url(#pc63fab920b)">
     <use xlink:href="#m3451daa3dc" x="340.237693" y="131.816403" style="fill: #ffd700; stroke: #ffd700"/>
    </g>
   </g>
   <g id="line2d_86">
    <path d="M 345.763795 162.109609 
" clip-path="url(#pc63fab920b)" style="fill: none; stroke: #ffd700; stroke-width: 1.5; stroke-linecap: square"/>
    <g clip-path="url(#pc63fab920b)">
     <use xlink:href="#m3451daa3dc" x="345.763795" y="162.109609" style="fill: #ffd700; stroke: #ffd700"/>
    </g>
   </g>
   <g id="line2d_87">
    <path d="M 345.761721 164.225807 
" clip-path="url(#pc63fab920b)" style="fill: none; stroke: #ffd700; stroke-width: 1.5; stroke-linecap: square"/>
    <g clip-path="url(#pc63fab920b)">
     <use xlink:href="#m3451daa3dc" x="345.761721" y="164.225807" style="fill: #ffd700; stroke: #ffd700"/>
    </g>
   </g>
   <g id="line2d_88">
    <path d="M 331.67615 108.049813 
" clip-path="url(#pc63fab920b)" style="fill: none; stroke: #ffd700; stroke-width: 1.5; stroke-linecap: square"/>
    <g clip-path="url(#pc63fab920b)">
     <use xlink:href="#m3451daa3dc" x="331.67615" y="108.049813" style="fill: #ffd700; stroke: #ffd700"/>
    </g>
   </g>
   <g id="line2d_89">
    <path d="M 330.846486 107.082946 
" clip-path="url(#pc63fab920b)" style="fill: none; stroke: #ffd700; stroke-width: 1.5; stroke-linecap: square"/>
    <g clip-path="url(#pc63fab920b)">
     <use xlink:href="#m3451daa3dc" x="330.846486" y="107.082946" style="fill: #ffd700; stroke: #ffd700"/>
    </g>
   </g>
   <g id="line2d_90">
    <path d="M 347.07323 180.857922 
" clip-path="url(#pc63fab920b)" style="fill: none; stroke: #ffd700; stroke-width: 1.5; stroke-linecap: square"/>
    <g clip-path="url(#pc63fab920b)">
     <use xlink:href="#m3451daa3dc" x="347.07323" y="180.857922" style="fill: #ffd700; stroke: #ffd700"/>
    </g>
   </g>
   <g id="line2d_91">
    <path d="M 346.719596 178.899725 
" clip-path="url(#pc63fab920b)" style="fill: none; stroke: #ffd700; stroke-width: 1.5; stroke-linecap: square"/>
    <g clip-path="url(#pc63fab920b)">
     <use xlink:href="#m3451daa3dc" x="346.719596" y="178.899725" style="fill: #ffd700; stroke: #ffd700"/>
    </g>
   </g>
   <g id="line2d_92">
    <path d="M 347.312808 211.658127 
" clip-path="url(#pc63fab920b)" style="fill: none; stroke: #ffd700; stroke-width: 1.5; stroke-linecap: square"/>
    <g clip-path="url(#pc63fab920b)">
     <use xlink:href="#m3451daa3dc" x="347.312808" y="211.658127" style="fill: #ffd700; stroke: #ffd700"/>
    </g>
   </g>
   <g id="line2d_93">
    <path d="M 346.989847 213.643417 
" clip-path="url(#pc63fab920b)" style="fill: none; stroke: #ffd700; stroke-width: 1.5; stroke-linecap: square"/>
    <g clip-path="url(#pc63fab920b)">
     <use xlink:href="#m3451daa3dc" x="346.989847" y="213.643417" style="fill: #ffd700; stroke: #ffd700"/>
    </g>
   </g>
   <g id="line2d_94">
    <path d="M 342.310865 150.148087 
" clip-path="url(#pc63fab920b)" style="fill: none; stroke: #ffd700; stroke-width: 1.5; stroke-linecap: square"/>
    <g clip-path="url(#pc63fab920b)">
     <use xlink:href="#m3451daa3dc" x="342.310865" y="150.148087" style="fill: #ffd700; stroke: #ffd700"/>
    </g>
   </g>
   <g id="line2d_95">
    <path d="M 341.680171 148.589038 
" clip-path="url(#pc63fab920b)" style="fill: none; stroke: #ffd700; stroke-width: 1.5; stroke-linecap: square"/>
    <g clip-path="url(#pc63fab920b)">
     <use xlink:href="#m3451daa3dc" x="341.680171" y="148.589038" style="fill: #ffd700; stroke: #ffd700"/>
    </g>
   </g>
   <g id="line2d_96">
    <path d="M 344.914035 245.713893 
" clip-path="url(#pc63fab920b)" style="fill: none; stroke: #ffd700; stroke-width: 1.5; stroke-linecap: square"/>
    <g clip-path="url(#pc63fab920b)">
     <use xlink:href="#m3451daa3dc" x="344.914035" y="245.713893" style="fill: #ffd700; stroke: #ffd700"/>
    </g>
   </g>
   <g id="line2d_97">
    <path d="M 345.176385 243.729909 
" clip-path="url(#pc63fab920b)" style="fill: none; stroke: #ffd700; stroke-width: 1.5; stroke-linecap: square"/>
    <g clip-path="url(#pc63fab920b)">
     <use xlink:href="#m3451daa3dc" x="345.176385" y="243.729909" style="fill: #ffd700; stroke: #ffd700"/>
    </g>
   </g>
   <g id="line2d_98">
    <path d="M 344.578846 247.640583 
" clip-path="url(#pc63fab920b)" style="fill: none; stroke: #ffd700; stroke-width: 1.5; stroke-linecap: square"/>
    <g clip-path="url(#pc63fab920b)">
     <use xlink:href="#m3451daa3dc" x="344.578846" y="247.640583" style="fill: #ffd700; stroke: #ffd700"/>
    </g>
   </g>
   <g id="line2d_99">
    <path d="M 346.295763 230.499237 
" clip-path="url(#pc63fab920b)" style="fill: none; stroke: #ffd700; stroke-width: 1.5; stroke-linecap: square"/>
    <g clip-path="url(#pc63fab920b)">
     <use xlink:href="#m3451daa3dc" x="346.295763" y="230.499237" style="fill: #ffd700; stroke: #ffd700"/>
    </g>
   </g>
   <g id="line2d_100">
    <path d="M 346.260778 228.384523 
" clip-path="url(#pc63fab920b)" style="fill: none; stroke: #ffd700; stroke-width: 1.5; stroke-linecap: square"/>
    <g clip-path="url(#pc63fab920b)">
     <use xlink:href="#m3451daa3dc" x="346.260778" y="228.384523" style="fill: #ffd700; stroke: #ffd700"/>
    </g>
   </g>
   <g id="line2d_101">
    <path d="M 336.875858 118.391992 
" clip-path="url(#pc63fab920b)" style="fill: none; stroke: #ffd700; stroke-width: 1.5; stroke-linecap: square"/>
    <g clip-path="url(#pc63fab920b)">
     <use xlink:href="#m3451daa3dc" x="336.875858" y="118.391992" style="fill: #ffd700; stroke: #ffd700"/>
    </g>
   </g>
   <g id="line2d_102">
    <path d="M 336.243644 116.89769 
" clip-path="url(#pc63fab920b)" style="fill: none; stroke: #ffd700; stroke-width: 1.5; stroke-linecap: square"/>
    <g clip-path="url(#pc63fab920b)">
     <use xlink:href="#m3451daa3dc" x="336.243644" y="116.89769" style="fill: #ffd700; stroke: #ffd700"/>
    </g>
   </g>
   <g id="line2d_103">
    <path d="M 337.450251 120.001989 
" clip-path="url(#pc63fab920b)" style="fill: none; stroke: #ffd700; stroke-width: 1.5; stroke-linecap: square"/>
    <g clip-path="url(#pc63fab920b)">
     <use xlink:href="#m3451daa3dc" x="337.450251" y="120.001989" style="fill: #ffd700; stroke: #ffd700"/>
    </g>
   </g>
   <g id="line2d_104">
    <path d="M 281.855542 183.311672 
" clip-path="url(#pc63fab920b)" style="fill: none; stroke: #ffd700; stroke-width: 1.5; stroke-linecap: square"/>
    <g clip-path="url(#pc63fab920b)">
     <use xlink:href="#m3451daa3dc" x="281.855542" y="183.311672" style="fill: #ffd700; stroke: #ffd700"/>
    </g>
   </g>
   <g id="line2d_105">
    <path d="M 281.499877 181.355368 
" clip-path="url(#pc63fab920b)" style="fill: none; stroke: #ffd700; stroke-width: 1.5; stroke-linecap: square"/>
    <g clip-path="url(#pc63fab920b)">
     <use xlink:href="#m3451daa3dc" x="281.499877" y="181.355368" style="fill: #ffd700; stroke: #ffd700"/>
    </g>
   </g>
   <g id="line2d_106">
    <path d="M 302.114435 165.411548 
" clip-path="url(#pc63fab920b)" style="fill: none; stroke: #ffd700; stroke-width: 1.5; stroke-linecap: square"/>
    <g clip-path="url(#pc63fab920b)">
     <use xlink:href="#m3451daa3dc" x="302.114435" y="165.411548" style="fill: #ffd700; stroke: #ffd700"/>
    </g>
   </g>
   <g id="line2d_107">
    <path d="M 301.747522 163.514847 
" clip-path="url(#pc63fab920b)" style="fill: none; stroke: #ffd700; stroke-width: 1.5; stroke-linecap: square"/>
    <g clip-path="url(#pc63fab920b)">
     <use xlink:href="#m3451daa3dc" x="301.747522" y="163.514847" style="fill: #ffd700; stroke: #ffd700"/>
    </g>
   </g>
   <g id="line2d_108">
    <path d="M 301.747522 163.514847 
" clip-path="url(#pc63fab920b)" style="fill: none; stroke: #008000; stroke-width: 1.5; stroke-linecap: square"/>
    <defs>
     <path id="mf8d18ee2c0" d="M 0 4 
C 1.060812 4 2.078319 3.578535 2.828427 2.828427 
C 3.578535 2.078319 4 1.060812 4 0 
C 4 -1.060812 3.578535 -2.078319 2.828427 -2.828427 
C 2.078319 -3.578535 1.060812 -4 0 -4 
C -1.060812 -4 -2.078319 -3.578535 -2.828427 -2.828427 
C -3.578535 -2.078319 -4 -1.060812 -4 0 
C -4 1.060812 -3.578535 2.078319 -2.828427 2.828427 
C -2.078319 3.578535 -1.060812 4 0 4 
z
" style="stroke: #008000"/>
    </defs>
    <g clip-path="url(#pc63fab920b)">
     <use xlink:href="#mf8d18ee2c0" x="301.747522" y="163.514847" style="fill: #008000; stroke: #008000"/>
    </g>
   </g>
   <g id="line2d_109">
    <path d="M 23.432727 122.553867 
" clip-path="url(#pc63fab920b)" style="fill: none; stroke: #008000; stroke-width: 1.5; stroke-linecap: square"/>
    <g clip-path="url(#pc63fab920b)">
     <use xlink:href="#mf8d18ee2c0" x="23.432727" y="122.553867" style="fill: #008000; stroke: #008000"/>
    </g>
   </g>
   <g id="line2d_110">
    <path d="M 45.116804 119.499559 
" clip-path="url(#pc63fab920b)" style="fill: none; stroke: #008000; stroke-width: 1.5; stroke-linecap: square"/>
    <g clip-path="url(#pc63fab920b)">
     <use xlink:href="#mf8d18ee2c0" x="45.116804" y="119.499559" style="fill: #008000; stroke: #008000"/>
    </g>
   </g>
   <g id="line2d_111">
    <path d="M 65.527854 103.265445 
" clip-path="url(#pc63fab920b)" style="fill: none; stroke: #008000; stroke-width: 1.5; stroke-linecap: square"/>
    <g clip-path="url(#pc63fab920b)">
     <use xlink:href="#mf8d18ee2c0" x="65.527854" y="103.265445" style="fill: #008000; stroke: #008000"/>
    </g>
   </g>
   <g id="line2d_112">
    <path d="M 82.829217 73.550877 
" clip-path="url(#pc63fab920b)" style="fill: none; stroke: #008000; stroke-width: 1.5; stroke-linecap: square"/>
    <g clip-path="url(#pc63fab920b)">
     <use xlink:href="#mf8d18ee2c0" x="82.829217" y="73.550877" style="fill: #008000; stroke: #008000"/>
    </g>
   </g>
   <g id="line2d_113">
    <path d="M 99.677253 42.444265 
" clip-path="url(#pc63fab920b)" style="fill: none; stroke: #008000; stroke-width: 1.5; stroke-linecap: square"/>
    <g clip-path="url(#pc63fab920b)">
     <use xlink:href="#mf8d18ee2c0" x="99.677253" y="42.444265" style="fill: #008000; stroke: #008000"/>
    </g>
   </g>
   <g id="line2d_114">
    <path d="M 119.531502 22.977373 
" clip-path="url(#pc63fab920b)" style="fill: none; stroke: #008000; stroke-width: 1.5; stroke-linecap: square"/>
    <g clip-path="url(#pc63fab920b)">
     <use xlink:href="#mf8d18ee2c0" x="119.531502" y="22.977373" style="fill: #008000; stroke: #008000"/>
    </g>
   </g>
   <g id="line2d_115">
    <path d="M 141.128581 20.319158 
" clip-path="url(#pc63fab920b)" style="fill: none; stroke: #008000; stroke-width: 1.5; stroke-linecap: square"/>
    <g clip-path="url(#pc63fab920b)">
     <use xlink:href="#mf8d18ee2c0" x="141.128581" y="20.319158" style="fill: #008000; stroke: #008000"/>
    </g>
   </g>
   <g id="line2d_116">
    <path d="M 161.794471 34.798747 
" clip-path="url(#pc63fab920b)" style="fill: none; stroke: #008000; stroke-width: 1.5; stroke-linecap: square"/>
    <g clip-path="url(#pc63fab920b)">
     <use xlink:href="#mf8d18ee2c0" x="161.794471" y="34.798747" style="fill: #008000; stroke: #008000"/>
    </g>
   </g>
   <g id="line2d_117">
    <path d="M 178.970448 64.623362 
" clip-path="url(#pc63fab920b)" style="fill: none; stroke: #008000; stroke-width: 1.5; stroke-linecap: square"/>
    <g clip-path="url(#pc63fab920b)">
     <use xlink:href="#mf8d18ee2c0" x="178.970448" y="64.623362" style="fill: #008000; stroke: #008000"/>
    </g>
   </g>
   <g id="line2d_118">
    <path d="M 191.343996 105.067615 
" clip-path="url(#pc63fab920b)" style="fill: none; stroke: #008000; stroke-width: 1.5; stroke-linecap: square"/>
    <g clip-path="url(#pc63fab920b)">
     <use xlink:href="#mf8d18ee2c0" x="191.343996" y="105.067615" style="fill: #008000; stroke: #008000"/>
    </g>
   </g>
   <g id="line2d_119">
    <path d="M 203.095967 146.515252 
" clip-path="url(#pc63fab920b)" style="fill: none; stroke: #008000; stroke-width: 1.5; stroke-linecap: square"/>
    <g clip-path="url(#pc63fab920b)">
     <use xlink:href="#mf8d18ee2c0" x="203.095967" y="146.515252" style="fill: #008000; stroke: #008000"/>
    </g>
   </g>
   <g id="line2d_120">
    <path d="M 219.299843 179.019834 
" clip-path="url(#pc63fab920b)" style="fill: none; stroke: #008000; stroke-width: 1.5; stroke-linecap: square"/>
    <g clip-path="url(#pc63fab920b)">
     <use xlink:href="#mf8d18ee2c0" x="219.299843" y="179.019834" style="fill: #008000; stroke: #008000"/>
    </g>
   </g>
   <g id="line2d_121">
    <path d="M 239.462954 196.777458 
" clip-path="url(#pc63fab920b)" style="fill: none; stroke: #008000; stroke-width: 1.5; stroke-linecap: square"/>
    <g clip-path="url(#pc63fab920b)">
     <use xlink:href="#mf8d18ee2c0" x="239.462954" y="196.777458" style="fill: #008000; stroke: #008000"/>
    </g>
   </g>
   <g id="line2d_122">
    <path d="M 261.088827 197.589483 
" clip-path="url(#pc63fab920b)" style="fill: none; stroke: #008000; stroke-width: 1.5; stroke-linecap: square"/>
    <g clip-path="url(#pc63fab920b)">
     <use xlink:href="#mf8d18ee2c0" x="261.088827" y="197.589483" style="fill: #008000; stroke: #008000"/>
    </g>
   </g>
   <g id="line2d_123">
    <path d="M 281.855542 183.311672 
" clip-path="url(#pc63fab920b)" style="fill: none; stroke: #008000; stroke-width: 1.5; stroke-linecap: square"/>
    <g clip-path="url(#pc63fab920b)">
     <use xlink:href="#mf8d18ee2c0" x="281.855542" y="183.311672" style="fill: #008000; stroke: #008000"/>
    </g>
   </g>
   <g id="line2d_124">
    <path d="M 301.747522 163.514847 
" clip-path="url(#pc63fab920b)" style="fill: none; stroke: #008000; stroke-width: 1.5; stroke-linecap: square"/>
    <g clip-path="url(#pc63fab920b)">
     <use xlink:href="#mf8d18ee2c0" x="301.747522" y="163.514847" style="fill: #008000; stroke: #008000"/>
    </g>
   </g>
  </g>
 </g>
 <defs>
  <clipPath id="pc63fab920b">
   <rect x="7.2" y="7.2" width="357.12" height="266.112"/>
  </clipPath>
 </defs>
</svg>
