<?xml version="1.0" encoding="utf-8" standalone="no"?>
<!DOCTYPE svg PUBLIC "-//W3C//DTD SVG 1.1//EN"
  "http://www.w3.org/Graphics/SVG/1.1/DTD/svg11.dtd">
<svg xmlns:xlink="http://www.w3.org/1999/xlink" width="371.52pt" height="280.512pt" viewBox="0 0 371.52 280.512" xmlns="http://www.w3.org/2000/svg" version="1.1">
 <metadata>
  <rdf:RDF xmlns:dc="http://purl.org/dc/elements/1.1/" xmlns:cc="http://creativecommons.org/ns#" xmlns:rdf="http://www.w3.org/1999/02/22-rdf-syntax-ns#">
   <cc:Work>
    <dc:type rdf:resource="http://purl.org/dc/dcmitype/StillImage"/>
    <dc:date>2022-04-27T16:16:32.179155</dc:date>
    <dc:format>image/svg+xml</dc:format>
    <dc:creator>
     <cc:Agent>
      <dc:title>Matplotlib v3.5.1, https://matplotlib.org/</dc:title>
     </cc:Agent>
    </dc:creator>
   </cc:Work>
  </rdf:RDF>
 </metadata>
 <defs>
  <style type="text/css">*{stroke-linejoin: round; stroke-linecap: butt}</style>
 </defs>
 <g id="figure_1">
  <g id="patch_1">
   <path d="M 0 280.512 
L 371.52 280.512 
L 371.52 0 
L 0 0 
z
" style="fill: #ffffff"/>
  </g>
  <g id="axes_1">
   <g id="line2d_1">
    <path d="M 113.368751 235.449928 
L 122.200872 223.220749 
L 130.904558 207.099152 
L 139.484613 188.006752 
L 147.963966 166.826762 
L 156.378037 144.409108 
" clip-path="url(#p5e2cba90f1)" style="fill: none; stroke: #008000; stroke-width: 3; stroke-linecap: square"/>
   </g>
   <g id="line2d_2">
    <path d="M 156.378037 144.409108 
L 164.769548 121.581491 
L 173.183619 99.163837 
L 181.662972 77.983847 
L 190.243027 58.891447 
L 198.946712 42.76985 
" clip-path="url(#p5e2cba90f1)" style="fill: none; stroke: #008000; stroke-width: 3; stroke-linecap: square"/>
   </g>
   <g id="line2d_3">
    <path d="M 198.946712 42.76985 
L 207.778833 30.540672 
L 216.712607 22.702986 
L 225.703343 19.296 
L 234.706066 20.336758 
L 243.67574 25.820052 
" clip-path="url(#p5e2cba90f1)" style="fill: none; stroke: #008000; stroke-width: 3; stroke-linecap: square"/>
   </g>
   <g id="line2d_4">
    <path d="M 243.67574 25.820052 
L 252.567495 35.718454 
L 261.351877 49.540284 
L 270.028724 66.363317 
L 278.616188 85.298937 
L 287.145085 105.488507 
" clip-path="url(#p5e2cba90f1)" style="fill: none; stroke: #008000; stroke-width: 3; stroke-linecap: square"/>
   </g>
   <g id="line2d_5">
    <path d="M 287.145085 105.488507 
L 295.653646 126.093682 
L 304.182543 146.283252 
L 312.770007 165.218872 
L 321.446854 182.041904 
L 330.231236 195.863735 
" clip-path="url(#p5e2cba90f1)" style="fill: none; stroke: #008000; stroke-width: 3; stroke-linecap: square"/>
   </g>
   <g id="line2d_6">
    <path d="M 330.231236 195.863735 
L 339.122991 205.762136 
L 348.087273 211.69832 
" clip-path="url(#p5e2cba90f1)" style="fill: none; stroke: #008000; stroke-width: 3; stroke-linecap: square"/>
   </g>
   <g id="line2d_7">
    <path d="M 287.145085 105.488507 
L 295.653646 126.093682 
L 304.141354 147.113205 
L 312.56395 169.370831 
L 320.869556 193.674187 
L 328.993692 220.799698 
" clip-path="url(#p5e2cba90f1)" style="fill: none; stroke: #ffd700; stroke-width: 2; stroke-linecap: square"/>
   </g>
   <g id="line2d_8">
    <path d="M 287.145085 105.488507 
L 295.653646 126.093682 
L 304.141354 147.113205 
L 312.56395 169.370831 
L 320.869556 193.674187 
L 328.993692 220.799698 
" clip-path="url(#p5e2cba90f1)" style="fill: none; stroke: #008000; stroke-width: 3; stroke-linecap: square"/>
   </g>
   <g id="line2d_9">
    <path d="M 23.432727 261.216 
" clip-path="url(#p5e2cba90f1)" style="fill: none; stroke: #008000; stroke-width: 3; stroke-linecap: square"/>
   </g>
   <g id="line2d_10">
    <path d="M 23.432727 261.216 
L 32.438091 259.957874 
L 41.443455 258.699749 
L 50.448818 257.441623 
L 59.454182 256.183497 
L 68.459546 254.925371 
" clip-path="url(#p5e2cba90f1)" style="fill: none; stroke: #008000; stroke-width: 3; stroke-linecap: square"/>
   </g>
   <g id="line2d_11">
    <path d="M 68.459546 254.925371 
L 77.46491 253.667246 
L 86.468742 251.969952 
L 95.465334 248.954362 
L 104.441017 243.740255 
L 113.368751 235.449928 
" clip-path="url(#p5e2cba90f1)" style="fill: none; stroke: #008000; stroke-width: 3; stroke-linecap: square"/>
   </g>
   <g id="line2d_12">
    <path d="M 113.368751 235.449928 
L 122.200872 223.220749 
L 130.904558 207.099152 
L 139.484613 188.006752 
L 147.963966 166.826762 
L 156.378037 144.409108 
" clip-path="url(#p5e2cba90f1)" style="fill: none; stroke: #008000; stroke-width: 3; stroke-linecap: square"/>
   </g>
   <g id="line2d_13">
    <path d="M 156.378037 144.409108 
L 164.769548 121.581491 
L 173.183619 99.163837 
L 181.662972 77.983847 
L 190.243027 58.891447 
L 198.946712 42.76985 
" clip-path="url(#p5e2cba90f1)" style="fill: none; stroke: #008000; stroke-width: 3; stroke-linecap: square"/>
   </g>
   <g id="line2d_14">
    <path d="M 198.946712 42.76985 
L 207.778833 30.540672 
L 216.712607 22.702986 
L 225.703343 19.296 
L 234.706066 20.336758 
L 243.67574 25.820052 
" clip-path="url(#p5e2cba90f1)" style="fill: none; stroke: #008000; stroke-width: 3; stroke-linecap: square"/>
   </g>
   <g id="line2d_15">
    <path d="M 243.67574 25.820052 
L 252.567495 35.718454 
L 261.351877 49.540284 
L 270.028724 66.363317 
L 278.616188 85.298937 
L 287.145085 105.488507 
" clip-path="url(#p5e2cba90f1)" style="fill: none; stroke: #008000; stroke-width: 3; stroke-linecap: square"/>
   </g>
   <g id="line2d_16">
    <path d="M 287.145085 105.488507 
L 295.653646 126.093682 
L 304.141354 147.113205 
L 312.56395 169.370831 
L 320.869556 193.674187 
L 328.993692 220.799698 
" clip-path="url(#p5e2cba90f1)" style="fill: none; stroke: #008000; stroke-width: 3; stroke-linecap: square"/>
   </g>
   <g id="line2d_17">
    <path d="M 156.378037 144.409108 
" clip-path="url(#p5e2cba90f1)" style="fill: none; stroke: #008000; stroke-width: 1.5; stroke-linecap: square"/>
    <defs>
     <path id="m3d484ee077" d="M 0 4 
C 1.060812 4 2.078319 3.578535 2.828427 2.828427 
C 3.578535 2.078319 4 1.060812 4 0 
C 4 -1.060812 3.578535 -2.078319 2.828427 -2.828427 
C 2.078319 -3.578535 1.060812 -4 0 -4 
C -1.060812 -4 -2.078319 -3.578535 -2.828427 -2.828427 
C -3.578535 -2.078319 -4 -1.060812 -4 0 
C -4 1.060812 -3.578535 2.078319 -2.828427 2.828427 
C -2.078319 3.578535 -1.060812 4 0 4 
z
" style="stroke: #008000"/>
    </defs>
    <g clip-path="url(#p5e2cba90f1)">
     <use xlink:href="#m3d484ee077" x="156.378037" y="144.409108" style="fill: #008000; stroke: #008000"/>
    </g>
   </g>
   <g id="line2d_18">
    <path d="M 198.946712 42.76985 
" clip-path="url(#p5e2cba90f1)" style="fill: none; stroke: #008000; stroke-width: 1.5; stroke-linecap: square"/>
    <g clip-path="url(#p5e2cba90f1)">
     <use xlink:href="#m3d484ee077" x="198.946712" y="42.76985" style="fill: #008000; stroke: #008000"/>
    </g>
   </g>
   <g id="line2d_19">
    <path d="M 243.67574 25.820052 
" clip-path="url(#p5e2cba90f1)" style="fill: none; stroke: #008000; stroke-width: 1.5; stroke-linecap: square"/>
    <g clip-path="url(#p5e2cba90f1)">
     <use xlink:href="#m3d484ee077" x="243.67574" y="25.820052" style="fill: #008000; stroke: #008000"/>
    </g>
   </g>
   <g id="line2d_20">
    <path d="M 287.145085 105.488507 
" clip-path="url(#p5e2cba90f1)" style="fill: none; stroke: #008000; stroke-width: 1.5; stroke-linecap: square"/>
    <g clip-path="url(#p5e2cba90f1)">
     <use xlink:href="#m3d484ee077" x="287.145085" y="105.488507" style="fill: #008000; stroke: #008000"/>
    </g>
   </g>
   <g id="line2d_21">
    <path d="M 330.231236 195.863735 
" clip-path="url(#p5e2cba90f1)" style="fill: none; stroke: #008000; stroke-width: 1.5; stroke-linecap: square"/>
    <g clip-path="url(#p5e2cba90f1)">
     <use xlink:href="#m3d484ee077" x="330.231236" y="195.863735" style="fill: #008000; stroke: #008000"/>
    </g>
   </g>
   <g id="line2d_22">
    <path d="M 348.087273 211.69832 
" clip-path="url(#p5e2cba90f1)" style="fill: none; stroke: #008000; stroke-width: 1.5; stroke-linecap: square"/>
    <g clip-path="url(#p5e2cba90f1)">
     <use xlink:href="#m3d484ee077" x="348.087273" y="211.69832" style="fill: #008000; stroke: #008000"/>
    </g>
   </g>
   <g id="line2d_23">
    <path d="M 328.993692 220.799698 
" clip-path="url(#p5e2cba90f1)" style="fill: none; stroke: #ffd700; stroke-width: 1.5; stroke-linecap: square"/>
    <defs>
     <path id="mf45abf2d55" d="M 0 4 
C 1.060812 4 2.078319 3.578535 2.828427 2.828427 
C 3.578535 2.078319 4 1.060812 4 0 
C 4 -1.060812 3.578535 -2.078319 2.828427 -2.828427 
C 2.078319 -3.578535 1.060812 -4 0 -4 
C -1.060812 -4 -2.078319 -3.578535 -2.828427 -2.828427 
C -3.578535 -2.078319 -4 -1.060812 -4 0 
C -4 1.060812 -3.578535 2.078319 -2.828427 2.828427 
C -2.078319 3.578535 -1.060812 4 0 4 
z
" style="stroke: #ffd700"/>
    </defs>
    <g clip-path="url(#p5e2cba90f1)">
     <use xlink:href="#mf45abf2d55" x="328.993692" y="220.799698" style="fill: #ffd700; stroke: #ffd700"/>
    </g>
   </g>
   <g id="line2d_24">
    <path d="M 328.993692 220.799698 
" clip-path="url(#p5e2cba90f1)" style="fill: none; stroke: #008000; stroke-width: 1.5; stroke-linecap: square"/>
    <g clip-path="url(#p5e2cba90f1)">
     <use xlink:href="#m3d484ee077" x="328.993692" y="220.799698" style="fill: #008000; stroke: #008000"/>
    </g>
   </g>
   <g id="line2d_25">
    <path d="M 23.432727 261.216 
" clip-path="url(#p5e2cba90f1)" style="fill: none; stroke: #008000; stroke-width: 1.5; stroke-linecap: square"/>
    <g clip-path="url(#p5e2cba90f1)">
     <use xlink:href="#m3d484ee077" x="23.432727" y="261.216" style="fill: #008000; stroke: #008000"/>
    </g>
   </g>
   <g id="line2d_26">
    <path d="M 68.459546 254.925371 
" clip-path="url(#p5e2cba90f1)" style="fill: none; stroke: #008000; stroke-width: 1.5; stroke-linecap: square"/>
    <g clip-path="url(#p5e2cba90f1)">
     <use xlink:href="#m3d484ee077" x="68.459546" y="254.925371" style="fill: #008000; stroke: #008000"/>
    </g>
   </g>
   <g id="line2d_27">
    <path d="M 113.368751 235.449928 
" clip-path="url(#p5e2cba90f1)" style="fill: none; stroke: #008000; stroke-width: 1.5; stroke-linecap: square"/>
    <g clip-path="url(#p5e2cba90f1)">
     <use xlink:href="#m3d484ee077" x="113.368751" y="235.449928" style="fill: #008000; stroke: #008000"/>
    </g>
   </g>
   <g id="line2d_28">
    <path d="M 156.378037 144.409108 
" clip-path="url(#p5e2cba90f1)" style="fill: none; stroke: #008000; stroke-width: 1.5; stroke-linecap: square"/>
    <g clip-path="url(#p5e2cba90f1)">
     <use xlink:href="#m3d484ee077" x="156.378037" y="144.409108" style="fill: #008000; stroke: #008000"/>
    </g>
   </g>
   <g id="line2d_29">
    <path d="M 198.946712 42.76985 
" clip-path="url(#p5e2cba90f1)" style="fill: none; stroke: #008000; stroke-width: 1.5; stroke-linecap: square"/>
    <g clip-path="url(#p5e2cba90f1)">
     <use xlink:href="#m3d484ee077" x="198.946712" y="42.76985" style="fill: #008000; stroke: #008000"/>
    </g>
   </g>
   <g id="line2d_30">
    <path d="M 243.67574 25.820052 
" clip-path="url(#p5e2cba90f1)" style="fill: none; stroke: #008000; stroke-width: 1.5; stroke-linecap: square"/>
    <g clip-path="url(#p5e2cba90f1)">
     <use xlink:href="#m3d484ee077" x="243.67574" y="25.820052" style="fill: #008000; stroke: #008000"/>
    </g>
   </g>
   <g id="line2d_31">
    <path d="M 287.145085 105.488507 
" clip-path="url(#p5e2cba90f1)" style="fill: none; stroke: #008000; stroke-width: 1.5; stroke-linecap: square"/>
    <g clip-path="url(#p5e2cba90f1)">
     <use xlink:href="#m3d484ee077" x="287.145085" y="105.488507" style="fill: #008000; stroke: #008000"/>
    </g>
   </g>
   <g id="line2d_32">
    <path d="M 328.993692 220.799698 
" clip-path="url(#p5e2cba90f1)" style="fill: none; stroke: #008000; stroke-width: 1.5; stroke-linecap: square"/>
    <g clip-path="url(#p5e2cba90f1)">
     <use xlink:href="#m3d484ee077" x="328.993692" y="220.799698" style="fill: #008000; stroke: #008000"/>
    </g>
   </g>
  </g>
 </g>
 <defs>
  <clipPath id="p5e2cba90f1">
   <rect x="7.2" y="7.2" width="357.12" height="266.112"/>
  </clipPath>
 </defs>
</svg>
